<ttFont>
          <CharString index="0">
            rmoveto
            -89 callgsubr
            -61 callgsubr
            -246 -59 vlineto
            -89 callsubr
            -358 vlineto
            -84 -14 -43 -23 -22 vhcurveto
            -26 -28 -44 -11 -40 hhcurveto
            -94 -92 37 141 hvcurveto
            366 vlineto
            -89 callgsubr
            -65 callgsubr
            25 -4 4 -9 -25 vvcurveto
            -382 vlineto
            -155 81 -87 160 125 137 65 177 vhcurveto
            return
          </CharString>
          <CharString index="1">
            503 240 rmoveto
            145 -60 105 -155 -180 -68 -135 -115 -145 60 -105 155 180 68 135 115 vhcurveto
            -240 184 rmoveto
            100 54 -69 -111 -53 -12 -77 -30 -30 hvcurveto
            -18 -18 -32 -10 -45 hhcurveto
            -100 -54 69 111 53 12 77 30 30 hvcurveto
            18 18 32 10 45 hhcurveto
            return
          </CharString>
          <CharString index="2">
            rmoveto
            100 -89 38 -95 -58 -37 -10 -27 -75 vhcurveto
            7 -115 rlineto
            58 hlineto
            14 73 rlineto
            9 20 36 10 32 hhcurveto
            61 47 -19 -61 hvcurveto
            -67 vlineto
            -162 -22 rlineto
            -89 -12 -47 -52 -79 vvcurveto
            -76 50 -52 76 64 59 32 56 53 vhcurveto
            return
          </CharString>
          <CharString index="3">
            613 614 -107 callsubr
            return
          </CharString>
          <CharString index="4">
            rmoveto
            36 -19 32 -45 -35 -23 -15 -43 -28 15 -26 34 6 10 1 2 5 vhcurveto
            -26 -33 -34 -32 -21 vhcurveto
            23 -24 rlineto
            46 21 48 56 69 vvcurveto
            return
          </CharString>
          <CharString index="5">
            -17 -9 -55 -58 -71 hhcurveto
            -65 -33 35 61 hvcurveto
            320 27 callgsubr
            -1 callsubr
            -8 -28 vvcurveto
            -251 vlineto
            -92 56 -51 98 76 55 47 39 33 vhcurveto
            return
          </CharString>
          <CharString index="6">
            82 vstem
            -104 callsubr
            return
          </CharString>
          <CharString index="7">
            -11 callsubr
            hintmask 10111100
            417 139 rmoveto
            -102 callsubr
            hintmask 01111100
            -97 callsubr
            return
          </CharString>
          <CharString index="8">
            rmoveto
            358 -562 rlineto
            88 615 hlineto
            25 4 12 25 3 vhcurveto
            52 6 rlineto
            59 -247 -59 vlineto
            29 callsubr
            3 -12 -25 vvcurveto
            -457 vlineto
            -359 562 rlineto
            -168 -59 hlineto
            29 callsubr
            4 -12 -25 vvcurveto
            -509 -52 callgsubr
            250 59 vlineto
            -53 9 rlineto
            -79 callgsubr
            return
          </CharString>
          <CharString index="9">
            rmoveto
            -35 -20 -37 -34 -45 hhcurveto
            -45 -37 34 35 -20 hvcurveto
            -48 -15 rlineto
            -65 20 50 -55 80 hhcurveto
            80 50 55 65 20 hvcurveto
            endchar
          </CharString>
          <CharString index="10">
            8 -76 8 callsubr
            -69 callsubr
            382 27 callgsubr
            -1 callsubr
            -8 -28 vvcurveto
            return
          </CharString>
          <CharString index="11">
            rmoveto
            45 -31 47 -60 -65 -35 -50 -45 -45 31 -47 60 65 35 50 45 vhcurveto
            -50 2 rmoveto
            -30 -15 -20 -30 -25 -21 17 25 30 15 20 30 25 21 -17 -25 vhcurveto
            return
          </CharString>
          <CharString index="12">
            25 -4 4 -9 -25 vvcurveto
            return
          </CharString>
          <CharString index="13">
            15 -90 rlineto
            72 hlineto
            14 155 rlineto
            16 -67 -68 11 -68 hhcurveto
            -154 -73 -79 -111 -94 57 -59 77 -29 hvcurveto
            122 -46 rlineto
            99 -37 24 -32 -60 vvcurveto
            -78 -66 -44 -82 -62 -34 14 21 -35 vhcurveto
            return
          </CharString>
          <CharString index="14">
            -21 2 -2 8 28 vvcurveto
            return
          </CharString>
          <CharString index="15">
            rlineto
            -93 callsubr
            return
          </CharString>
          <CharString index="16">
            28 -6 17 -8 -22 vvcurveto
            -38 -26 -10 -23 -24 -33 8 6 -15 vhcurveto
            -12 -39 rlineto
            -7 15 34 -14 40 hhcurveto
            51 56 31 65 31 -9 18 -45 14 hvcurveto
            -27 9 rlineto
            return
          </CharString>
          <CharString index="17">
            -25 -4 -9 -25 -4 vhcurveto
            return
          </CharString>
          <CharString index="18">
            53 -87 callgsubr
            return
          </CharString>
          <CharString index="19">
            8 -78 rlineto
            146 -69 callsubr
            -79 131 rmoveto
            -89 vlineto
            return
          </CharString>
          <CharString index="20">
            hstem
            110 86 335 -101 callsubr
            return
          </CharString>
          <CharString index="21">
            -43 -39 35 -56 hhcurveto
            -37 -32 -28 -30 -21 hvcurveto
            15 -42 rlineto
            14 17 25 17 26 hhcurveto
            endchar
          </CharString>
          <CharString index="22">
            120 98 rmoveto
            -49 callsubr
            -57 -6 rlineto
            -54 255 53 vlineto
            -73 -75 callsubr
            205 vlineto
            43 10 44 70 63 hhcurveto
            11 20 -4 -3 6 hvcurveto
            11 -64 rlineto
            58 hlineto
            8 126 rlineto
            12 -21 -28 7 -26 hhcurveto
            -85 -59 -67 -43 -16 hvcurveto
            return
          </CharString>
          <CharString index="23">
            46 39 -37 53 hhcurveto
            36 33 29 29 20 hvcurveto
            -16 40 rlineto
            -12 -14 -30 -15 -22 hhcurveto
            return
          </CharString>
          <CharString index="24">
            rmoveto
            110 150 -39 32 -108 -121 -108 121 -38 -32 108 -150 rlineto
            endchar
          </CharString>
          <CharString index="25">
            -5 14 15 -5 15 hhcurveto
            13 11 5 18 13 hvcurveto
            98 146 rlineto
            86 44 -11 callgsubr
            14 -5 15 hhcurveto
            13 12 5 18 13 hvcurveto
            98 146 rlineto
            endchar
          </CharString>
          <CharString index="26">
            -26 -29 -59 -53 -54 hhcurveto
            -42 -31 23 42 44 29 29 47 7 hvcurveto
            return
          </CharString>
          <CharString index="27">
            rmoveto
            -37 callgsubr
            hlineto
            hintmask 11010111
            235 232 vlineto
            -59 callgsubr
            hintmask 11100111
            -97 callgsubr
            vlineto
            endchar
          </CharString>
          <CharString index="28">
            227 490 rmoveto
            -92 -85 -37 -92 -76 39 -37 111 -35 hvcurveto
            73 -23 49 -23 -42 vvcurveto
            -57 -54 -16 -57 -36 -29 10 11 -27 vhcurveto
            return
          </CharString>
          <CharString index="29">
            690 rmoveto
            39 -23 30 -47 -33 -26 -17 -44 -31 19 -21 33 -2 vhcurveto
            4 7 0 1 4 hvcurveto
            -31 -37 -39 -27 -14 vhcurveto
            27 -29 rlineto
            55 34 44 49 75 vvcurveto
            return
          </CharString>
          <CharString index="30">
            -25 -2 -12 -4 -24 hhcurveto
            -233 266 234 73 -234 235 232 -28 callgsubr
            return
          </CharString>
          <CharString index="31">
            -65 callsubr
            -7 -21 -3 vhcurveto
            return
          </CharString>
          <CharString index="32">
            7 -92 callsubr
            return
          </CharString>
          <CharString index="33">
            rmoveto
            -142 -18 -21 -115 -72 vhcurveto
            49 -40 8 callsubr
            72 19 33 142 vvcurveto
            483 27 callgsubr
            -1 callsubr
            -8 -28 vvcurveto
            return
          </CharString>
          <CharString index="34">
            6 6 vvcurveto
            9 6 6 17 2 vhcurveto
            51 6 rlineto
            return
          </CharString>
          <CharString index="35">
            -76 callsubr
            hintmask 11110000
            -55 -6 rlineto
            -54 235 54 vlineto
            -55 6 rlineto
            -21 3 -2 7 28 vvcurveto
            return
          </CharString>
          <CharString index="36">
            59 vlineto
            -57 9 rlineto
            -79 callgsubr
            return
          </CharString>
          <CharString index="37">
            54 vlineto
            -55 6 rlineto
            -21 3 -2 7 28 vvcurveto
            249 vlineto
            72 -37 71 -115 -90 -47 -51 -31 -30 vhcurveto
            return
          </CharString>
          <CharString index="38">
            54 hlineto
            -56 6 -92 callsubr
            return
          </CharString>
          <CharString index="39">
            59 vlineto
            -53 6 -23 3 -6 10 -1 21 rlinecurve
            24 512 212 -611 rlineto
            71 hlineto
            191 611 37 -514 rlineto
            -19 -7 -10 -22 -3 vhcurveto
            -54 -6 rlineto
            -59 256 59 vlineto
            -59 9 -25 4 -2 8 -2 25 rlinecurve
            -40 518 rlineto
            22 8 7 23 3 vhcurveto
            56 6 rlineto
            59 -212 vlineto
            -177 -586 -198 586 rlineto
            -200 -59 hlineto
            52 -6 rlineto
            22 -3 8 -8 -19 vvcurveto
            -35 -520 -2 -25 -2 -8 -25 -4 rlinecurve
            -36 callgsubr
            -59 vlineto
            endchar
          </CharString>
          <CharString index="40">
            -98 callgsubr
            hintmask 11110000
            -36 callgsubr
            -59 return
          </CharString>
          <CharString index="41">
            rmoveto
            114 135 -38 32 -114 -106 -113 106 -39 -32 115 -135 rlineto
            return
          </CharString>
          <CharString index="42">
            -1 callsubr
            -8 -28 vvcurveto
            -286 vlineto
            -28 -2 return
          </CharString>
          <CharString index="43">
            -73 callsubr
            51 return
          </CharString>
          <CharString index="44">
            -67 callsubr
            250 vlineto
            return
          </CharString>
          <CharString index="45">
            rmoveto
            56 vlineto
            55 18 37 23 48 vvcurveto
            61 -51 21 -45 -43 -27 -11 -3 -12 vhcurveto
            5 -40 rlineto
            5 21 18 4 19 hhcurveto
            21 34 -1 -39 -28 -34 -15 -49 -14 hvcurveto
            10 -90 rlineto
            endchar
          </CharString>
          <CharString index="46">
            -25 -4 -11 -25 -4 vhcurveto
            -36 callgsubr
            -60 299 vlineto
            228 87 155 216 215 -87 134 -228 hvcurveto
            return
          </CharString>
          <CharString index="47">
            6 -73 rlineto
            64 hlineto
            6 172 rlineto
            -592 hlineto
            6 -172 rlineto
            64 hlineto
            6 73 rlineto
            return
          </CharString>
          <CharString index="48">
            -105 callgsubr
            endchar
          </CharString>
          <CharString index="49">
            rmoveto
            75 21 132 35 35 vhcurveto
            30 30 35 24 78 hhcurveto
            72 35 -12 -23 50 hvcurveto
            return
          </CharString>
          <CharString index="50">
            rmoveto
            -149 193 rlineto
            -13 -16 -17 -10 -18 vvcurveto
            -7 2 -8 6 -11 vhcurveto
            77 -123 -77 -123 rlineto
            -6 -11 -2 -8 -8 vvcurveto
            -18 17 -12 13 -13 vhcurveto
            return
          </CharString>
          <CharString index="51">
            5 -15 -39 13 -50 hhcurveto
            -152 -85 -128 -140 -145 73 -87 115 95 49 59 19 13 hvcurveto
            return
          </CharString>
          <CharString index="52">
            21 -21 720 -20 return
          </CharString>
          <CharString index="53">
            3 0 2 callsubr
            162 73 136 172 -73 73 return
          </CharString>
          <CharString index="54">
            -90 callsubr
            -57 -9 rlineto
            -76 callgsubr
            return
          </CharString>
          <CharString index="55">
            0 callgsubr
            hintmask 11101000
            -18 callsubr
            hintmask 11101000
            20 callsubr
          </CharString>
          <CharString index="56">
            hhcurveto
            -229 -97 -168 -210 return
          </CharString>
          <CharString index="57">
            32 callgsubr
            -80 callgsubr
            -44 callsubr
            hintmask 11001100
            -4 callgsubr
            hintmask 10101100
            25 2 12 4 24 hhcurveto
            endchar
          </CharString>
          <CharString index="58">
            -28 -2 -8 -21 -2 vhcurveto
            return
          </CharString>
          <CharString index="59">
            96 41 rlineto
            -275 vlineto
            -25 -3 -8 -19 -2 vhcurveto
            -58 -6 rlineto
            -48 224 48 vlineto
            -60 6 rlineto
            -19 2 -2 8 25 vvcurveto
            return
          </CharString>
          <CharString index="60">
            -46 15 -41 54 35 27 16 44 41 -20 18 -45 5 vhcurveto
            42 49 43 29 18 vhcurveto
            -32 34 rlineto
            -51 -26 -61 -68 -80 vvcurveto
            return
          </CharString>
          <CharString index="61">
            -1 callsubr
            -8 -26 vvcurveto
            -588 -24 callsubr
            return
          </CharString>
          <CharString index="62">
            14 callsubr
            -4 -26 -26 -3 -19 24 callgsubr
            return
          </CharString>
          <CharString index="63">
            -25 -2 -12 -4 -24 hhcurveto
            -314 hlineto
            411 577 rlineto
            70 -498 vlineto
            return
          </CharString>
          <CharString index="64">
            46 21 -31 callsubr
            return
          </CharString>
          <CharString index="65">
            -11 -10 -19 callgsubr
            -20 return
          </CharString>
          <CharString index="66">
            hstemhm
            140 86 return
          </CharString>
          <CharString index="67">
            54 vlineto
            -55 6 -92 callsubr
            246 vlineto
            75 -38 71 -114 -90 -47 -51 -31 -29 vhcurveto
            return
          </CharString>
          <CharString index="68">
            44 -8 24 -47 -61 -12 -24 -48 -38 16 -18 39 53 20 11 49 vhcurveto
            return
          </CharString>
          <CharString index="69">
            rmoveto
            61 -6 rlineto
            55 -5 31 -24 -46 vvcurveto
            -37 -27 -47 -72 -29 -57 14 11 -33 vhcurveto
            -14 -46 rlineto
            -12 27 43 -20 75 hhcurveto
            98 64 65 75 38 -11 27 -21 16 hvcurveto
            -28 18 -28 8 -29 7 rrcurveto
            return
          </CharString>
          <CharString index="70">
            71 -40 -21 430 60 return
          </CharString>
          <CharString index="71">
            -10 100 rlineto
            -143 -52 hlineto
            0 callsubr
            -1 callsubr
            -8 -28 vvcurveto
            return
          </CharString>
          <CharString index="72">
            hstem
            50 130 vstem
            180 36 rmoveto
            51 -22 26 -47 -38 -23 -18 -48 -36 25 -18 24 7 6 1 1 6 vhcurveto
            -6 -50 -42 -35 -27 -17 29 -30 rcurveline
            63 37 45 72 64 vvcurveto
            return
          </CharString>
          <CharString index="73">
            77 42 34 78 41 37 -7 -18 39 vhcurveto
            return
          </CharString>
          <CharString index="74">
            -20 -25 callgsubr
            return
          </CharString>
          <CharString index="75">
            -88 -628 -29 callgsubr
          </CharString>
          <CharString index="76">
            -21 237 70 413 return
          </CharString>
          <CharString index="77">
            hstemhm
            42 157 return
          </CharString>
          <CharString index="78">
            -43 callsubr
            -20 return
          </CharString>
          <CharString index="79">
            15 12 50 34 10 4 rrcurveto
            return
          </CharString>
          <CharString index="80">
            112 93 112 return
          </CharString>
          <CharString index="81">
            -51 callsubr
            -230 return
          </CharString>
          <CharString index="82">
            -28 -2 -7 -21 -3 vhcurveto
            return
          </CharString>
          <CharString index="83">
            vlineto
            -25 callsubr
            return
          </CharString>
          <CharString index="84">
            21 -16 callsubr
            return
          </CharString>
          <CharString index="85">
            vvcurveto
            27 -4 17 -3 11 vhcurveto
            -83 -12 rlineto
            4 -21 4 -15 -15 vvcurveto
            return
          </CharString>
          <CharString index="86">
            rmoveto
            137 -124 rlineto
            return
          </CharString>
          <CharString index="87">
            -21 480 return
          </CharString>
          <CharString index="88">
            -52 vlineto
            0 callsubr
            return
          </CharString>
          <CharString index="89">
            -65 callgsubr
            hintmask 11100100
            -98 callgsubr
            return
          </CharString>
          <CharString index="90">
            74 592 74 0 24 181 12 callgsubr
            return
          </CharString>
          <CharString index="91">
            -20 callsubr
            -20 return
          </CharString>
          <CharString index="92">
            -94 -250 63 667 -20 return
          </CharString>
          <CharString index="93">
            vvcurveto
            53 29 41 69 59 51 -30 -18 24 vhcurveto
            43 88 rlineto
            24 -33 -56 15 -54 hhcurveto
            -68 -152 -28 -211 return
          </CharString>
          <CharString index="94">
            rmoveto
            -216 -77 -81 -156 vhcurveto
            -116 return
          </CharString>
          <CharString index="95">
            25 2 12 4 23 hhcurveto
            140 return
          </CharString>
          <CharString index="96">
            hstemhm
            105 79 233 79 return
          </CharString>
          <CharString index="97">
            104 -8 callgsubr
            return
          </CharString>
          <CharString index="98">
            42 97 439 97 return
          </CharString>
          <CharString index="99">
            226 384 rmoveto
            205 -287 rlineto
            -61 43 35 -46 60 hhcurveto
            43 24 9 10 19 hvcurveto
            6 58 rlineto
            return
          </CharString>
          <CharString index="100">
            6 -70 rlineto
            64 hlineto
            6 172 rlineto
            -618 hlineto
            208 -347 rmoveto
            -180 hlineto
            104 277 rlineto
            return
          </CharString>
          <CharString index="101">
            rmoveto
            -449 -730 rlineto
            59 hlineto
            450 730 rlineto
            return
          </CharString>
          <CharString index="102">
            -55 callsubr
            235 -20 hstem
            return
          </CharString>
          <CharString index="103">
            21 callsubr
            64 return
          </CharString>
          <CharString index="104">
            -55 -6 rlineto
            -54 235 54 vlineto
            -55 6 rlineto
            -21 3 -2 7 28 vvcurveto
            682 vlineto
            endchar
          </CharString>
          <CharString index="105">
            -53 -1 callgsubr
            return
          </CharString>
          <CharString index="106">
            21 -2 2 return
          </CharString>
          <CharString index="107">
            55 -6 rlineto
            return
          </CharString>
          <CharString index="108">
            hhcurveto
            106 71 38 8 22 hvcurveto
            -14 49 rlineto
            -10 -30 -79 -19 -48 hhcurveto
            -97 -47 59 104 return
          </CharString>
          <CharString index="109">
            73 -73 177 return
          </CharString>
          <CharString index="110">
            -39 callsubr
            endchar
          </CharString>
          <CharString index="111">
            913 rmoveto
            -100 -135 39 -32 98 106 99 -106 38 32 -99 135 rlineto
            return
          </CharString>
          <CharString index="112">
            70 -70 207 350 182 -67 67 return
          </CharString>
          <CharString index="113">
            53 -55 callsubr
            return
          </CharString>
          <CharString index="114">
            40 86 291 return
          </CharString>
          <CharString index="115">
            rlineto
            144 return
          </CharString>
          <CharString index="116">
            39 -7 20 -41 -55 -11 -22 -41 -34 17 -17 33 45 19 10 45 vhcurveto
            return
          </CharString>
          <CharString index="117">
            66 -35 -21 424 66 88 65 -65 202 hstemhm
            44 86 255 79 return
          </CharString>
          <CharString index="118">
            550 -21 261 -20 hstem
            return
          </CharString>
          <CharString index="119">
            156 77 -62 -215 hvcurveto
            return
          </CharString>
          <CharString index="120">
            -328 -229 -21 730 return
          </CharString>
          <CharString index="121">
            hlineto
            6 callgsubr
            37 61 10 9 18 vhcurveto
            9 51 rlineto
            return
          </CharString>
          <CharString index="122">
            hlineto
            hintmask 10010000
            28 156 rlineto
            -68 hlineto
            hintmask 10100000
            -28 -156 rlineto
            return
          </CharString>
          <CharString index="123">
            -25 -2 -12 -4 -24 hhcurveto
            -223 231 219 70 -219 return
          </CharString>
          <CharString index="124">
            -41 31 34 -20 38 hhcurveto
            27 14 5 10 27 hvcurveto
            10 55 rlineto
            return
          </CharString>
          <CharString index="125">
            42 780 rmoveto
            -19 callsubr
            return
          </CharString>
          <CharString index="126">
            -219 -21 230 66 368 66 return
          </CharString>
          <CharString index="127">
            -2 callsubr
            endchar
          </CharString>
          <CharString index="128">
            -38 callgsubr
            30 return
          </CharString>
          <CharString index="129">
            -10 73 -73 169 -152 -21 23 54 -54 73 return
          </CharString>
          <CharString index="130">
            32 callsubr
            endchar
          </CharString>
          <CharString index="131">
            28 callsubr
            hstemhm
            260 86 return
          </CharString>
          <CharString index="132">
            -38 callgsubr
            hstemhm
            120 79 return
          </CharString>
          <CharString index="133">
            47 -3 rlineto
            25 -2 4 -13 -25 vvcurveto
            endchar
          </CharString>
          <CharString index="134">
            173 21 -21 341 72 return
          </CharString>
          <CharString index="135">
            -21 548 172 -70 70 return
          </CharString>
          <CharString index="136">
            52 -6 rlineto
            25 -3 return
          </CharString>
          <CharString index="137">
            -20 hstem
            140 86 return
          </CharString>
          <CharString index="138">
            -90 callsubr
            -36 callgsubr
            -60 return
          </CharString>
          <CharString index="139">
            116 hlineto
            12 callsubr
            return
          </CharString>
          <CharString index="140">
            -73 47 -55 76 70 64 49 81 vhcurveto
            -61 return
          </CharString>
          <CharString index="141">
            71 -34 34 hstemhm
            return
          </CharString>
        <CharString name=".notdef">
          -347 endchar
        </CharString>
        <CharString name=".null">
          -617 endchar
        </CharString>
        <CharString name="A">
          -29 callsubr
          -67 callgsubr
          endchar
        </CharString>
        <CharString name="AE">
          312 0 2 callsubr
          127 70 174 172 -73 73 hstemhm
          467 83 264 73 hintmask 10110110
          259 664 rmoveto
          53 -5 4 -1 3 0 3 -2 rlinecurve
          -210 -544 -13 -35 -9 -6 -25 -5 rlinecurve
          -42 -7 rlineto
          -59 244 57 vlineto
          -54 9 rlineto
          -18 3 -10 8 15 vvcurveto
          6 2 7 3 8 vhcurveto
          71 190 rlineto
          206 -196 hlineto
          31 callsubr
          505 vlineto
          hintmask 01110110
          -80 callgsubr
          hintmask 10101110
          16 callsubr
          273 213 -28 callgsubr
          hintmask 10110110
          -7 callsubr
          hintmask 10101110
          26 callsubr
        </CharString>
        <CharString name="AEacute">
          332 0 73 231 70 174 172 -73 73 0 34 181 -20 hstemhm
          467 83 264 73 hintmask 11001111
          631 935 -100 callgsubr
          -421 -204 rmoveto
          53 -5 4 -1 3 0 3 -2 rlinecurve
          -210 -544 -13 -35 -9 -6 -25 -5 rlinecurve
          -42 -7 rlineto
          -59 244 57 vlineto
          -54 9 rlineto
          -18 3 -10 8 15 vvcurveto
          6 2 7 3 8 vhcurveto
          71 190 rlineto
          206 -196 hlineto
          31 callsubr
          505 vlineto
          -80 callgsubr
          16 callsubr
          hlineto
          hintmask 11010111
          273 213 vlineto
          -59 callgsubr
          hintmask 11100111
          -7 callsubr
          hintmask 11010111
          26 callsubr
        </CharString>
        <CharString name="Aacute">
          -43 callsubr
          34 181 -20 hstem
          461 935 -100 callgsubr
          -440 -756 -107 callgsubr
          endchar
        </CharString>
        <CharString name="Abreve">
          -29 callsubr
          68 66 69 -20 -67 callgsubr
          109 269 -98 callsubr
        </CharString>
        <CharString name="Acircumflex">
          -29 callsubr
          213 -20 hstem
          294 -88 callgsubr
          -299 -801 -107 callgsubr
          endchar
        </CharString>
        <CharString name="Adieresis">
          -29 callsubr
          80 112 hstem
          170 -27 callsubr
          vstem
          -101 callgsubr
          -40 200 rmoveto
          -103 callgsubr
          205 hmoveto
          -103 callgsubr
          endchar
        </CharString>
        <CharString name="Agrave">
          -43 callsubr
          34 181 -20 hstem
          156 -81 callgsubr
          -135 -823 -107 callgsubr
          endchar
        </CharString>
        <CharString name="Amacron">
          -29 callsubr
          108 70 -67 callgsubr
          -128 174 -62 callgsubr
        </CharString>
        <CharString name="Aogonek">
          46 -225 55 191 -31 callsubr
          -20 hstem
          485 66 vstem
          485 -126 rmoveto
          -74 callgsubr
          -28 callsubr
          5 59 hlineto
          -39 7 -25 5 -11 6 -12 35 rlinecurve
          -214 608 rlineto
          -93 hlineto
          -215 -608 -12 -35 -10 -6 -25 -5 rlinecurve
          -38 -7 rlineto
          -59 240 57 vlineto
          -54 9 rlineto
          -18 3 -9 8 15 vvcurveto
          6 1 7 3 8 vhcurveto
          42 124 rlineto
          265 hlineto
          44 -127 rlineto
          3 -8 1 -6 -6 vvcurveto
          -13 -8 -8 -18 -3 vhcurveto
          -55 -9 rlineto
          -57 168 vlineto
          -10 callgsubr
          -152 715 rmoveto
          97 -282 rlineto
          -216 hlineto
          97 282 11 45 rlineto
          endchar
        </CharString>
        <CharString name="Aring">
          -29 callsubr
          55 47 92 48 hstem
          233 50 91 50 vstem
          -101 callgsubr
          102 216 -96 callsubr
          endchar
        </CharString>
        <CharString name="Aringacute">
          40 21 -21 227 70 421 92 0 48 0 23 181 -20 hstem
          230 50 91 50 vstem
          421 766 rmoveto
          45 -31 47 -60 -65 -35 -50 -45 -33 16 -34 33 -16 vhcurveto
          -212 -568 -12 -35 -10 -6 -25 -5 rlinecurve
          -38 -7 rlineto
          -59 240 57 vlineto
          -54 9 rlineto
          -18 3 -9 8 15 vvcurveto
          6 1 7 3 8 vhcurveto
          40 114 rlineto
          269 hlineto
          42 -117 rlineto
          3 -8 1 -6 -6 vvcurveto
          -13 -8 -8 -18 -3 vhcurveto
          -55 -9 rlineto
          -57 257 59 vlineto
          -39 7 -25 5 -11 6 -12 35 rlinecurve
          -213 573 rlineto
          29 18 16 33 30 vvcurveto
          -87 -204 rmoveto
          95 -265 rlineto
          -219 hlineto
          94 265 15 53 rlineto
          127 447 -100 callgsubr
          -124 -227 rmoveto
          -30 -15 -20 -30 -25 -21 17 25 30 15 20 30 25 21 -17 -25 vhcurveto
          endchar
        </CharString>
        <CharString name="Atilde">
          -29 callsubr
          74 34 callsubr
          hintmask 11101000
          -101 callgsubr
          -65 177 rmoveto
          hintmask 11110000
          -84 callsubr
          hintmask 11101000
          -86 callsubr
        </CharString>
        <CharString name="B">
          1 0 70 270 68 242 70 -41 callsubr
          224 94 -44 44 -44 94 hintmask 11110010
          140 106 25 callgsubr
          290 vlineto
          151 95 81 136 115 -72 47 -91 8 hvcurveto
          hintmask 11111000
          47 12 66 62 97 vvcurveto
          135 -92 27 -138 vhcurveto
          -256 -59 hlineto
          -89 callsubr
          86 36 rmoveto
          65 hlineto
          90 69 -17 -92 -47 -9 -42 -28 -21 hvcurveto
          -21 -28 -40 -2 -41 hhcurveto
          -78 hlineto
          -68 vmoveto
          108 hlineto
          hintmask 11110100
          95 71 -30 -95 -60 -16 -42 -35 -21 hvcurveto
          -18 -31 -40 -4 -44 hhcurveto
          -108 hlineto
          endchar
        </CharString>
        <CharString name="C">
          -21 callgsubr
          hstemhm
          42 97 hintmask 10110000
          568 115 -66 callgsubr
          -44 callgsubr
          hintmask 11010000
          -77 callgsubr
          endchar
        </CharString>
        <CharString name="CR">
          -347 endchar
        </CharString>
        <CharString name="Cacute">
          -21 callgsubr
          0 24 181 -20 hstemhm
          42 97 hintmask 10011100
          470 935 -100 callgsubr
          49 -753 -66 callgsubr
          hintmask 10101100
          -44 callgsubr
          hintmask 11001100
          -77 callgsubr
          endchar
        </CharString>
        <CharString name="Ccaron">
          -21 callgsubr
          0 23 167 -20 hstemhm
          42 97 hintmask 10011100
          -6 callgsubr
          254 -638 -66 callgsubr
          hintmask 10101100
          -44 callgsubr
          hintmask 11001100
          -77 callgsubr
          endchar
        </CharString>
        <CharString name="Ccedilla">
          19 -230 46 174 78 442 220 -75 75 hstemhm
          42 97 227 63 hintmask 11011100
          568 115 -66 callgsubr
          -44 callgsubr
          hintmask 11101100
          21 -110 rlineto
          72 hlineto
          16 163 rlineto
          53 -97 -64 4 -63 -51 callsubr
          -214 78 -129 179 -17 hvcurveto
          -15 -84 37 -8 rlineto
          -91 callsubr
          52 vlineto
          112 2 105 49 23 9 rrcurveto
          endchar
        </CharString>
        <CharString name="Ccircumflex">
          -21 callgsubr
          183 -20 hstemhm
          42 97 hintmask 10111000
          315 -88 callgsubr
          178 -798 -66 callgsubr
          -44 callgsubr
          hintmask 11011000
          -77 callgsubr
          endchar
        </CharString>
        <CharString name="Cdotaccent">
          -21 callgsubr
          107 118 hstemhm
          42 97 118 118 hintmask 10111100
          568 115 -66 callgsubr
          -44 callgsubr
          hintmask 11011100
          -77 callgsubr
          -213 844 rmoveto
          -93 callgsubr
          endchar
        </CharString>
        <CharString name="D">
          101 0 73 574 73 hstem
          140 86 349 97 vstem
          575 370 -13 callsubr
          574 32 callsubr
          -517 350 rmoveto
          -56 vlineto
          53 -6 rlineto
          25 -3 4 -12 -25 vvcurveto
          -509 vlineto
          -61 callsubr
          endchar
        </CharString>
        <CharString name="Dcaron">
          97 0 73 574 73 0 33 167 -20 -41 callsubr
          349 97 hintmask 10111100
          -6 callgsubr
          261 -383 -13 callsubr
          hlineto
          hintmask 11011100
          574 116 vlineto
          12 callsubr
          -517 350 rmoveto
          -56 vlineto
          53 -6 rlineto
          25 -3 4 -12 -25 vvcurveto
          -509 vlineto
          -61 callsubr
          endchar
        </CharString>
        <CharString name="Dcroat">
          97 0 73 275 69 230 73 hstem
          140 86 349 97 vstem
          61 348 rmoveto
          79 -239 hlineto
          -61 callsubr
          -299 -56 hlineto
          53 -6 rlineto
          25 -3 4 -12 -25 vvcurveto
          -201 -79 vlineto
          514 -47 -13 callsubr
          275 174 69 -174 230 23 callsubr
        </CharString>
        <CharString name="E">
          -54 callsubr
          -41 callsubr
          274 73 hintmask 01110110
          576 hmoveto
          -80 callgsubr
          hintmask 10101110
          -77 callsubr
          hintmask 01110110
          -97 callgsubr
          vlineto
          endchar
        </CharString>
        <CharString name="Eacute">
          -14 callgsubr
          446 935 -100 callgsubr
          81 -868 -80 callsubr
        </CharString>
        <CharString name="Ebreve">
          -54 callsubr
          48 66 69 -20 -41 callsubr
          274 73 hintmask 0111011110000000
          576 hmoveto
          -80 callgsubr
          hintmask 1010111110000000
          -77 callsubr
          hintmask 0111011110000000
          -97 callgsubr
          vlineto
          383 903 -98 callsubr
        </CharString>
        <CharString name="Ecaron">
          3 0 73 266 73 136 172 -73 73 0 33 167 -20 -41 callsubr
          274 73 hintmask 11001111
          379 753 -66 callsubr
          272 -753 -80 callsubr
        </CharString>
        <CharString name="Ecircumflex">
          -54 callsubr
          193 -20 -41 callsubr
          274 73 hintmask 01110111
          295 -88 callgsubr
          206 -913 rmoveto
          -80 callgsubr
          hintmask 10101111
          -77 callsubr
          hintmask 01110111
          -97 callgsubr
          vlineto
          endchar
        </CharString>
        <CharString name="Edieresis">
          -54 callsubr
          60 112 -41 callsubr
          -46 -27 callsubr
          3 73 hintmask 0111011011000000
          576 hmoveto
          -80 callgsubr
          hintmask 1010111011000000
          -77 callsubr
          hintmask 0111011011000000
          -97 callgsubr
          vlineto
          hintmask 1011010111000000
          234 834 rmoveto
          -103 callgsubr
          205 hmoveto
          -103 callgsubr
          endchar
        </CharString>
        <CharString name="Edotaccent">
          -54 callsubr
          67 118 -41 callsubr
          54 118 102 73 hintmask 0111011110000000
          576 hmoveto
          -80 callgsubr
          hintmask 1010111110000000
          -77 callsubr
          hintmask 0111011110000000
          -97 callgsubr
          vlineto
          340 844 rmoveto
          -93 callgsubr
          endchar
        </CharString>
        <CharString name="Egrave">
          -14 callgsubr
          154 -81 callgsubr
          373 -935 -80 callsubr
        </CharString>
        <CharString name="Emacron">
          -54 callsubr
          88 70 -41 callsubr
          274 73 hintmask 01110111
          576 hmoveto
          -80 callgsubr
          hintmask 10101111
          -77 callsubr
          hintmask 01110111
          -97 callgsubr
          vlineto
          146 808 -62 callgsubr
        </CharString>
        <CharString name="Eng">
          162 -133 -21 175 -21 647 83 -10 -20 hstemhm
          140 88 348 88 hintmask 11101100
          576 153 rmoveto
          -119 -22 -58 -143 -69 vhcurveto
          39 -61 143 65 70 57 1 160 rlinecurve
          413 vlineto
          108 -63 81 -133 -112 -69 -53 -65 -58 vhcurveto
          hintmask 11011100
          -11 108 rlineto
          -159 -59 hlineto
          51 -6 rlineto
          27 -3 3 -13 -25 vvcurveto
          -501 vlineto
          -31 -3 -9 -22 -4 vhcurveto
          -59 -10 rlineto
          -59 260 58 vlineto
          -64 11 rlineto
          -22 4 -2 9 31 vvcurveto
          418 vlineto
          hintmask 11101100
          65 37 71 51 95 hhcurveto
          77 68 -42 -105 hvcurveto
          endchar
        </CharString>
        <CharString name="Eogonek">
          3 -225 55 170 73 266 73 136 172 -73 73 -41 callsubr
          156 66 52 73 hintmask 11101111
          382 -126 rmoveto
          -74 callgsubr
          -28 callsubr
          5 hlineto
          -6 177 rlineto
          -67 hlineto
          -6 -75 rlineto
          -77 callsubr
          hintmask 11110111
          -97 callgsubr
          429 vlineto
          -10 callgsubr
          endchar
        </CharString>
        <CharString name="Eth">
          101 0 73 246 73 255 73 hstem
          140 86 349 97 vstem
          58 319 rmoveto
          82 -210 hlineto
          -61 callsubr
          -299 -56 hlineto
          53 -6 rlineto
          25 -3 4 -12 -25 vvcurveto
          -226 -82 vlineto
          517 -22 -13 callsubr
          246 183 73 -183 255 23 callsubr
        </CharString>
        <CharString name="Euro">
          -38 -10 78 166 58 66 58 197 79 hstem
          10 358 rmoveto
          65 -17 hlineto
          -17 0 -16 1 -16 vhcurveto
          -66 -58 72 hlineto
          -156 24 82 -88 164 hhcurveto
          89 88 48 11 19 hvcurveto
          -20 64 rlineto
          -9 -19 -75 -36 -64 hhcurveto
          -109 -62 50 116 -22 hvcurveto
          202 hlineto
          15 58 rlineto
          -224 hlineto
          -1 15 0 16 18 vvcurveto
          17 243 vlineto
          18 58 rlineto
          -255 hlineto
          9 62 19 60 22 24 rrcurveto
          33 30 27 18 69 hhcurveto
          74 72 -28 -14 27 hvcurveto
          26 70 rlineto
          31 -60 -56 20 -86 hhcurveto
          -154 -95 -104 -172 -20 hvcurveto
          -69 hlineto
          endchar
        </CharString>
        <CharString name="F">
          -37 21 -21 333 73 241 73 -41 callsubr
          vstemhm
          58 720 rmoveto
          -56 vlineto
          53 -6 rlineto
          23 -3 6 -10 -23 vvcurveto
          -516 -52 callgsubr
          269 60 vlineto
          -71 8 rlineto
          -25 3 -5 10 25 vvcurveto
          227 214 73 -214 241 222 vlineto
          -59 callgsubr
          hintmask 11110000
          6 -70 rlineto
          64 hlineto
          6 172 rlineto
          endchar
        </CharString>
        <CharString name="G">
          70 -10 -2 callgsubr
          hstemhm
          45 97 367 84 hintmask 10111000
          142 359 -58 callsubr
          hintmask 11011000
          21 -110 rlineto
          72 hlineto
          16 163 rlineto
          53 -101 -69 4 -66 -26 callsubr
          89 -132 212 110 85 38 23 52 hvcurveto
          175 vlineto
          25 2 8 25 5 vhcurveto
          39 7 rlineto
          59 -236 -59 vlineto
          57 -9 rlineto
          24 -4 5 -9 -25 vvcurveto
          -133 vlineto
          -16 -51 -42 -9 -55 hhcurveto
          -156 -63 128 165 hvcurveto
          endchar
        </CharString>
        <CharString name="Gbreve">
          93 -10 -2 callgsubr
          38 66 69 -20 hstemhm
          42 97 367 84 hintmask 10111110
          139 359 -58 callsubr
          hintmask 11011110
          21 -110 rlineto
          72 hlineto
          16 163 rlineto
          53 -101 -69 4 -66 -26 callsubr
          89 -132 212 110 85 38 23 52 hvcurveto
          175 vlineto
          25 2 8 25 5 vhcurveto
          39 7 rlineto
          59 -236 -59 vlineto
          57 -9 rlineto
          24 -4 5 -9 -25 vvcurveto
          -133 vlineto
          -16 -51 -42 -9 -55 hhcurveto
          -156 -63 128 165 hvcurveto
          292 544 -98 callsubr
        </CharString>
        <CharString name="Gcircumflex">
          93 -10 -2 callgsubr
          183 -20 hstemhm
          42 97 367 84 hintmask 10111100
          304 -88 callgsubr
          -240 -554 -58 callsubr
          hintmask 11011100
          21 -110 rlineto
          72 hlineto
          16 163 rlineto
          53 -101 -69 4 -66 -26 callsubr
          89 -132 212 110 85 38 23 52 hvcurveto
          175 vlineto
          25 2 8 25 5 vhcurveto
          39 7 rlineto
          59 -236 -59 vlineto
          57 -9 rlineto
          24 -4 5 -9 -25 vvcurveto
          -133 vlineto
          -16 -51 -42 -9 -55 hhcurveto
          -156 -63 128 165 hvcurveto
          endchar
        </CharString>
        <CharString name="Gcommaaccent">
          93 -230 -21 102 112 27 -2 callgsubr
          hstemhm
          42 97 161 122 84 84 hintmask 11101111
          422 -105 -103 callsubr
          -283 464 -58 callsubr
          hintmask 11110111
          21 -110 rlineto
          72 hlineto
          16 163 rlineto
          53 -101 -69 4 -66 -26 callsubr
          89 -132 212 110 85 38 23 52 hvcurveto
          175 vlineto
          25 2 8 25 5 vhcurveto
          39 7 rlineto
          59 -236 -59 vlineto
          57 -9 rlineto
          24 -4 5 -9 -25 vvcurveto
          -133 vlineto
          -16 -51 -42 -9 -55 hhcurveto
          -156 -63 128 165 hvcurveto
          endchar
        </CharString>
        <CharString name="Gdotaccent">
          93 -10 -2 callgsubr
          57 118 hstemhm
          42 97 141 118 108 84 hintmask 10111110
          139 359 -58 callsubr
          hintmask 11011110
          21 -110 rlineto
          72 hlineto
          16 163 rlineto
          53 -101 -69 4 -66 -26 callsubr
          89 -132 212 110 85 38 23 52 hvcurveto
          175 vlineto
          25 2 8 25 5 vhcurveto
          39 7 rlineto
          59 -236 -59 vlineto
          57 -9 rlineto
          24 -4 5 -9 -25 vvcurveto
          -133 vlineto
          -16 -51 -42 -9 -55 hhcurveto
          -156 -63 128 165 hvcurveto
          259 485 rmoveto
          -93 callgsubr
          endchar
        </CharString>
        <CharString name="H">
          27 callsubr
          307 30 callsubr
          338 86 vstem
          650 614 rmoveto
          -89 callgsubr
          -61 callgsubr
          -255 -59 vlineto
          58 -87 callgsubr
          -201 -338 201 vlineto
          -89 callgsubr
          58 -40 callgsubr
          -255 -59 vlineto
          53 -9 rlineto
          -98 callgsubr
          -36 callgsubr
          -59 255 59 vlineto
          -58 9 rlineto
          -79 callgsubr
          235 338 -235 vlineto
          -90 callsubr
          -58 -9 rlineto
          -59 255 59 vlineto
          -53 9 rlineto
          -79 callgsubr
          endchar
        </CharString>
        <CharString name="Hbar">
          27 callsubr
          92 60 -60 215 -41 callsubr
          338 86 hintmask 11011100
          650 614 rmoveto
          -89 callgsubr
          -61 callgsubr
          -255 -59 vlineto
          58 -87 callgsubr
          hintmask 11101100
          -49 -338 49 vlineto
          -89 callgsubr
          58 9 rlineto
          hintmask 11011100
          59 -255 -59 vlineto
          -89 callsubr
          hintmask 11101100
          -49 -62 -60 62 -399 -52 callgsubr
          255 59 vlineto
          -58 9 rlineto
          -79 callgsubr
          235 338 -235 vlineto
          -90 callsubr
          -58 -9 rlineto
          -59 255 59 vlineto
          -53 9 rlineto
          -79 callgsubr
          399 58 60 -58 vlineto
          -424 -152 rmoveto
          92 338 -92 vlineto
          endchar
        </CharString>
        <CharString name="Hcircumflex">
          27 callsubr
          307 -20 213 30 callsubr
          338 86 vstem
          362 -88 callgsubr
          213 -299 rmoveto
          -89 callgsubr
          -61 callgsubr
          -255 -59 vlineto
          58 -87 callgsubr
          -201 -338 201 vlineto
          -89 callgsubr
          58 -40 callgsubr
          -255 -59 vlineto
          53 -9 rlineto
          -98 callgsubr
          -36 callgsubr
          -59 255 59 vlineto
          -58 9 rlineto
          -79 callgsubr
          235 338 -235 vlineto
          -90 callsubr
          -58 -9 rlineto
          -59 255 59 vlineto
          -53 9 rlineto
          -79 callgsubr
          endchar
        </CharString>
        <CharString name="I">
          -251 21 -21 720 -12 callgsubr
          hintmask 11100000
          13 callgsubr
          hintmask 11010000
          -79 callgsubr
          508 vlineto
          -89 callgsubr
          hintmask 11100000
          -65 callgsubr
          hintmask 11010000
          -98 callgsubr
          hintmask 11100000
          20 callsubr
        </CharString>
        <CharString name="IJ">
          41 -133 -21 175 -21 720 -12 callgsubr
          231 86 hintmask 11110100
          13 callgsubr
          hintmask 11101100
          -79 callgsubr
          508 vlineto
          -89 callgsubr
          hintmask 11110100
          -65 callgsubr
          hintmask 11101100
          -98 callgsubr
          hintmask 11110100
          -2 callsubr
          23 -154 rmoveto
          175 92 37 29 181 vvcurveto
          466 vlineto
          -89 callgsubr
          -65 callgsubr
          25 -4 4 -9 -25 vvcurveto
          -435 vlineto
          -155 -20 -34 -145 -90 vhcurveto
          endchar
        </CharString>
        <CharString name="Iacute">
          -251 21 -21 720 34 181 -12 callgsubr
          hintmask 11110000
          305 935 -100 callgsubr
          -46 -809 -83 callgsubr
          endchar
        </CharString>
        <CharString name="Ibreve">
          -251 -55 callsubr
          68 66 69 -12 callgsubr
          hintmask 11111000
          13 callgsubr
          hintmask 11110100
          -79 callgsubr
          508 vlineto
          -89 callgsubr
          hintmask 11111000
          -65 callgsubr
          hintmask 11110100
          -98 callgsubr
          hintmask 11111000
          -2 callsubr
          -23 903 -98 callsubr
        </CharString>
        <CharString name="Icircumflex">
          -251 -55 callsubr
          213 -12 callgsubr
          hintmask 11110000
          147 4 callsubr
          86 -854 -83 callgsubr
          endchar
        </CharString>
        <CharString name="Idieresis">
          -251 -55 callsubr
          80 112 hstemhm
          34 112 -88 250 -168 86 -7 112 hintmask 11110010
          146 834 rmoveto
          -103 callgsubr
          185 hmoveto
          -103 callgsubr
          hintmask 11101000
          -23 -775 -52 callsubr
        </CharString>
        <CharString name="Idotaccent">
          -251 -55 callsubr
          87 118 hstemhm
          58 250 -184 118 -102 86 hintmask 11110000
          308 59 0 callgsubr
          hintmask 11110000
          -18 callsubr
          hintmask 11110000
          -36 callgsubr
          -59 250 vlineto
          hintmask 11101000
          -66 844 rmoveto
          -93 callgsubr
          endchar
        </CharString>
        <CharString name="Igrave">
          -251 21 -21 720 34 181 -12 callgsubr
          hintmask 11110000
          12 -81 callgsubr
          247 -876 -83 callgsubr
          endchar
        </CharString>
        <CharString name="Imacron">
          -251 -55 callsubr
          108 70 -27 callgsubr
          hintmask 11110000
          308 59 -83 callgsubr
          -260 808 -62 callgsubr
        </CharString>
        <CharString name="Iogonek">
          -251 -225 55 191 -21 720 -20 hstemhm
          58 250 -193 66 -41 86 hintmask 11101000
          115 -126 rmoveto
          -74 callgsubr
          -28 callsubr
          hintmask 11110000
          4 59 hlineto
          1 callgsubr
          hintmask 11110000
          -18 callsubr
          hintmask 11110000
          -36 callgsubr
          -59 162 vlineto
          hintmask 11101000
          -10 callgsubr
          endchar
        </CharString>
        <CharString name="Itilde">
          -251 -55 callsubr
          74 71 -34 34 -27 callgsubr
          hintmask 11011000
          116 811 rmoveto
          hintmask 11101000
          43 36 -37 49 hhcurveto
          36 33 29 29 20 hvcurveto
          -16 40 rlineto
          -12 -14 -30 -15 -22 hhcurveto
          hintmask 11011000
          -40 -36 35 -52 hhcurveto
          -37 -32 -28 -30 -21 hvcurveto
          15 -42 rlineto
          14 17 25 17 26 hhcurveto
          192 -752 -52 callsubr
        </CharString>
        <CharString name="J">
          -276 -133 -21 874 30 callsubr
          vstem
          14 -154 rmoveto
          175 92 37 29 181 vvcurveto
          466 vlineto
          -89 callgsubr
          -65 callgsubr
          25 -4 4 -9 -25 vvcurveto
          -435 vlineto
          -155 -20 -34 -145 -90 vhcurveto
          endchar
        </CharString>
        <CharString name="Jcircumflex">
          -276 -133 -21 874 -20 213 30 callsubr
          vstem
          142 4 callsubr
          -203 -1067 rmoveto
          175 92 37 29 181 vvcurveto
          466 vlineto
          -89 callgsubr
          -65 callgsubr
          25 -4 4 -9 -25 vvcurveto
          -435 vlineto
          -155 -20 -34 -145 -90 vhcurveto
          endchar
        </CharString>
        <CharString name="K">
          29 0 60 -49 -21 730 -20 -41 callsubr
          hintmask 01110000
          -8 callsubr
          hintmask 10110000
          -5 -14 -17 -2 -14 hhcurveto
          -32 -25 18 75 -55 hvcurveto
          -180 245 202 219 rlineto
          37 35 22 4 40 hhcurveto
          62 -49 vlineto
          -36 -31 -15 -28 -26 hvcurveto
          -255 -274 rlineto
          211 vlineto
          -89 callgsubr
          57 -40 callgsubr
          -254 -59 vlineto
          53 -9 rlineto
          -98 callgsubr
          -36 callgsubr
          -59 254 -71 callsubr
          endchar
        </CharString>
        <CharString name="Kcommaaccent">
          29 -41 callgsubr
          36 60 -49 -21 730 -20 -41 callsubr
          71 122 hintmask 11011110
          -8 callsubr
          hintmask 11101110
          -5 -14 -17 -2 -14 hhcurveto
          -32 -25 18 75 -55 hvcurveto
          -180 245 202 219 rlineto
          37 35 22 4 40 hhcurveto
          62 -49 vlineto
          -36 -31 -15 -28 -26 hvcurveto
          -255 -274 rlineto
          211 vlineto
          -89 callgsubr
          57 -40 callgsubr
          -254 -59 vlineto
          53 -9 rlineto
          -98 callgsubr
          -36 callgsubr
          -59 254 -71 callsubr
          193 -210 -103 callsubr
          endchar
        </CharString>
        <CharString name="L">
          -61 0 177 543 -20 -41 callsubr
          240 73 vstemhm
          542 hmoveto
          -80 callgsubr
          hintmask 11110000
          -85 callgsubr
          endchar
        </CharString>
        <CharString name="Lacute">
          -61 0 73 647 34 181 30 callsubr
          240 73 vstem
          316 935 -100 callgsubr
          177 -868 rmoveto
          -80 callgsubr
          -85 callgsubr
          endchar
        </CharString>
        <CharString name="Lcaron">
          -51 0 177 467 115 -39 -20 -41 callsubr
          169 129 -58 73 hintmask 11011000
          524 -78 callsubr
          18 -690 rmoveto
          -80 callgsubr
          hintmask 10110100
          -85 callgsubr
          endchar
        </CharString>
        <CharString name="Lcommaaccent">
          -61 -41 callgsubr
          36 2 callsubr
          543 -20 -41 callsubr
          -8 122 126 73 hintmask 11011101
          542 hmoveto
          -80 callgsubr
          -85 callgsubr
          hintmask 11101011
          282 -104 -103 callsubr
          endchar
        </CharString>
        <CharString name="Ldot">
          -61 0 177 130 118 295 -20 -41 callsubr
          122 118 vstemhm
          466 364 -26 callgsubr
          76 -364 rmoveto
          -80 callgsubr
          hintmask 11111000
          -85 callgsubr
          endchar
        </CharString>
        <CharString name="Lslash">
          -61 0 2 callsubr
          543 -20 hstemhm
          58 168 -86 86 -86 231 95 73 hintmask 10101010
          61 242 rmoveto
          79 46 rlineto
          -182 vlineto
          -90 callsubr
          hintmask 10110010
          -36 callgsubr
          -59 484 vlineto
          hintmask 01110010
          -80 callgsubr
          hintmask 10110010
          -25 -2 -12 -4 -24 hhcurveto
          -199 265 hlineto
          hintmask 10100110
          145 85 rlineto
          69 vlineto
          hintmask 10110010
          -145 -84 rlineto
          206 vlineto
          -89 callgsubr
          59 -40 callgsubr
          -256 -59 vlineto
          53 -9 rlineto
          hintmask 10101010
          -95 callsubr
          -256 vlineto
          -79 -46 rlineto
          endchar
        </CharString>
        <CharString name="M">
          276 -55 callsubr
          hstem
          118 68 504 84 vstem
          257 hmoveto
          -68 callsubr
        </CharString>
        <CharString name="N">
          170 21 -21 720 30 callsubr
          360 86 vstem
          226 562 -99 callsubr
          endchar
        </CharString>
        <CharString name="Nacute">
          170 -5 callsubr
          140 86 360 86 vstem
          473 935 -100 callgsubr
          -296 -306 -99 callsubr
          endchar
        </CharString>
        <CharString name="Ncaron">
          170 -5 callsubr
          140 86 360 86 vstem
          226 562 -99 callsubr
          218 647 -83 callsubr
        </CharString>
        <CharString name="Ncommaaccent">
          170 -41 callgsubr
          57 -21 720 30 callsubr
          143 122 95 86 vstem
          226 562 -99 callsubr
          265 -210 -103 callsubr
          endchar
        </CharString>
        <CharString name="Ntilde">
          170 -55 callsubr
          73 71 -34 34 -41 callsubr
          360 86 hintmask 11011100
          226 562 -99 callsubr
          108 704 rmoveto
          hintmask 11101100
          -84 callsubr
          hintmask 11011100
          -86 callsubr
        </CharString>
        <CharString name="O">
          -20 callgsubr
          hstem
          -9 callsubr
          vstem
          675 360 -59 callsubr
        </CharString>
        <CharString name="OE">
          398 -10 83 -83 187 -156 -21 329 73 146 172 -73 73 10 -20 hstemhm
          42 97 417 90 263 73 hintmask 0011100111000000
          985 hmoveto
          hintmask 0101100111000000
          -80 callgsubr
          hintmask 1001010111000000
          -25 -2 -12 -4 -24 hhcurveto
          -222 256 209 73 -209 245 217 -28 callgsubr
          hintmask 1001100111000000
          6 -70 rlineto
          64 hlineto
          6 172 rlineto
          -415 -72 hlineto
          hintmask 1001001111000000
          52 -40 -59 30 -80 hhcurveto
          -251 -90 -180 -190 -215 81 -155 212 112 71 42 59 45 hvcurveto
          hintmask 0011100111000000
          -91 vlineto
          -227 656 rmoveto
          170 50 -104 -171 -146 -18 -68 -23 -40 hvcurveto
          -40 -35 -44 -23 -65 hhcurveto
          -150 -82 110 180 90 22 117 35 40 hvcurveto
          40 35 50 15 55 hhcurveto
          endchar
        </CharString>
        <CharString name="Oacute">
          100 -10 -17 callsubr
          hintmask 10111100
          502 935 -100 callgsubr
          124 -508 -60 callgsubr
        </CharString>
        <CharString name="Obreve">
          -20 callgsubr
          38 66 69 -20 hstem
          -9 callsubr
          vstem
          675 360 -105 callgsubr
          115 247 -98 callsubr
        </CharString>
        <CharString name="Ocircumflex">
          -20 callgsubr
          183 -20 hstem
          -9 callsubr
          vstem
          323 -88 callgsubr
          277 -553 -59 callsubr
        </CharString>
        <CharString name="Odieresis">
          -20 callgsubr
          50 112 hstem
          42 97 61 -27 callsubr
          61 97 vstem
          675 360 -105 callgsubr
          -34 178 rmoveto
          -103 callgsubr
          205 hmoveto
          -103 callgsubr
          endchar
        </CharString>
        <CharString name="Ograve">
          100 -10 -17 callsubr
          hintmask 10111100
          199 -81 callgsubr
          427 -575 -60 callgsubr
        </CharString>
        <CharString name="Ohorn">
          -20 callgsubr
          60 12 callgsubr
          -14 82 hintmask 11111000
          675 360 rmoveto
          92 -15 82 -34 63 vhcurveto
          hintmask 11110100
          60 22 57 42 74 -22 callsubr
          -51 -26 -24 -37 -14 vhcurveto
          58 -47 -70 34 -99 hhcurveto
          -245 -95 -180 -190 -215 81 -155 212 hvcurveto
          hintmask 11111000
          245 95 180 190 hvcurveto
          -39 callgsubr
        </CharString>
        <CharString name="Ohungarumlaut">
          -20 callgsubr
          0 25 213 12 callgsubr
          hintmask 11011100
          675 360 -105 callgsubr
          -13 312 -30 callgsubr
          hintmask 10111100
          -82 callsubr
        </CharString>
        <CharString name="Omacron">
          -20 callgsubr
          78 70 hstem
          -9 callsubr
          vstem
          675 360 -105 callgsubr
          -122 152 -62 callgsubr
        </CharString>
        <CharString name="Oslash">
          100 -32 -21 43 74 592 74 40 -20 hstem
          -9 callsubr
          vstem
          -71 callgsubr
          endchar
        </CharString>
        <CharString name="Oslashacute">
          100 -32 -21 43 -17 callsubr
          hintmask 11101110
          -71 callgsubr
          136 279 rmoveto
          -179 -152 rlineto
          hintmask 11011110
          -14 12 16 -15 20 hhcurveto
          8 8 3 7 11 hvcurveto
          153 104 rlineto
          endchar
        </CharString>
        <CharString name="Otilde">
          -20 callgsubr
          44 34 callsubr
          -9 callsubr
          hintmask 11011100
          675 360 -105 callgsubr
          -59 155 rmoveto
          hintmask 11101100
          -84 callsubr
          hintmask 11011100
          -86 callsubr
        </CharString>
        <CharString name="P">
          -48 21 -21 279 70 301 70 hstem
          140 86 231 97 vstem
          226 650 rmoveto
          86 hlineto
          77 68 -26 -100 -82 -15 -40 -34 -27 hvcurveto
          -25 -31 -43 -1 -39 hhcurveto
          -69 hlineto
          -86 -243 25 callgsubr
          269 60 vlineto
          -71 8 rlineto
          -25 3 -5 10 25 vvcurveto
          173 72 vlineto
          127 129 93 162 148 -93 38 -140 hvcurveto
          21 callgsubr
          endchar
        </CharString>
        <CharString name="Q">
          100 -187 78 -12 72 39 74 592 74 hstemhm
          -9 callsubr
          hintmask 01111100
          226 -134 rmoveto
          7 24 24 6 27 hhcurveto
          hintmask 10111100
          99 85 -66 100 hhcurveto
          37 29 11 11 20 hvcurveto
          12 7 10 7 8 9 -15 53 rcurveline
          -8 -4 -8 -3 -9 -3 rrcurveto
          -5 -16 -21 -5 -24 hhcurveto
          hintmask 01111100
          -65 -99 60 -106 hhcurveto
          -59 -29 -14 -19 -36 hvcurveto
          469 442 -59 callsubr
        </CharString>
        <CharString name="R">
          21 0 -5 callgsubr
          -41 callsubr
          227 97 hintmask 01111100
          226 650 -78 callgsubr
          hintmask 10111100
          -94 callgsubr
          endchar
        </CharString>
        <CharString name="Racute">
          21 0 -5 callgsubr
          0 34 181 -20 -41 callsubr
          227 97 hintmask 10101111
          396 935 -100 callgsubr
          hintmask 01110111
          -219 -218 -78 callgsubr
          hintmask 10110111
          -94 callgsubr
          endchar
        </CharString>
        <CharString name="Rcaron">
          21 0 -5 callgsubr
          0 33 167 -20 -41 callsubr
          227 97 hintmask 10101111
          354 753 -66 callsubr
          hintmask 01110111
          -53 -103 -78 callgsubr
          hintmask 10110111
          -94 callgsubr
          endchar
        </CharString>
        <CharString name="Rcommaaccent">
          21 -41 callgsubr
          36 -5 callgsubr
          -41 callsubr
          85 122 20 97 hintmask 1101111110000000
          226 650 -78 callgsubr
          hintmask 1110111110000000
          -94 callgsubr
          207 -210 -103 callsubr
          endchar
        </CharString>
        <CharString name="S">
          -80 -10 5 callsubr
          hstemhm
          46 92 287 89 hintmask 01011100
          131 197 -73 callgsubr
          -34 callsubr
          hintmask 10101100
          -94 callsubr
          endchar
        </CharString>
        <CharString name="Sacute">
          -80 -10 70 487 182 -67 67 0 25 8 callgsubr
          46 92 287 89 hintmask 10101110
          131 197 -73 callgsubr
          -34 callsubr
          hintmask 11001110
          -94 callsubr
          250 857 -53 callgsubr
          hintmask 10011110
          -96 callgsubr
        </CharString>
        <CharString name="Scaron">
          -80 -10 70 487 182 -67 67 0 25 167 -20 hstemhm
          46 92 287 89 hintmask 10011110
          318 754 -66 callsubr
          -112 -557 -73 callgsubr
          hintmask 10101110
          -34 callsubr
          hintmask 11001110
          -94 callsubr
          endchar
        </CharString>
        <CharString name="Scedilla">
          -80 -230 46 175 69 -69 206 350 182 -67 67 hstemhm
          46 92 160 63 64 89 hintmask 10101111
          131 197 rmoveto
          -73 hlineto
          -12 -161 58 -24 46 -18 81 -3 rlinecurve
          -15 -83 37 -8 rlineto
          -91 callsubr
          53 vlineto
          154 8 80 85 118 vvcurveto
          122 -85 41 -89 31 vhcurveto
          -85 30 rlineto
          -89 31 -28 35 59 vvcurveto
          -34 callsubr
          hintmask 11010111
          -94 callsubr
          endchar
        </CharString>
        <CharString name="Scircumflex">
          -80 -10 5 callsubr
          184 -20 hstemhm
          46 92 287 89 hintmask 01011110
          242 -88 callgsubr
          -186 -716 -73 callgsubr
          -34 callsubr
          hintmask 10101110
          -94 callsubr
          endchar
        </CharString>
        <CharString name="Scommaaccent">
          -80 -41 callgsubr
          26 5 callsubr
          hstemhm
          46 92 75 122 90 89 hintmask 1101011110000000
          131 197 -73 callgsubr
          -34 callsubr
          hintmask 1110101110000000
          -94 callsubr
          hintmask 1101101110000000
          189 -199 -103 callsubr
          endchar
        </CharString>
        <CharString name="T">
          -11 21 24 callsubr
          hintmask 10110000
          485 650 rmoveto
          -59 callgsubr
          hintmask 11010000
          -60 callsubr
          hintmask 10110000
          -56 callgsubr
          endchar
        </CharString>
        <CharString name="Tbar">
          -11 21 -21 331 65 152 172 -70 70 hstemhm
          260 86 hintmask 11011000
          485 650 rmoveto
          -59 callgsubr
          hintmask 11101000
          -60 callsubr
          hintmask 11011000
          -12 callsubr
          -254 -165 -65 165 -225 hlineto
          -53 callsubr
          225 165 65 -165 254 vlineto
          endchar
        </CharString>
        <CharString name="Tcaron">
          -11 21 28 callsubr
          0 34 167 -20 hstemhm
          260 86 hintmask 10011100
          341 754 -66 callsubr
          hintmask 10101100
          219 -104 rmoveto
          -59 callgsubr
          hintmask 11001100
          -60 callsubr
          hintmask 10101100
          -56 callgsubr
          endchar
        </CharString>
        <CharString name="Tcedilla">
          -11 -230 46 205 24 callsubr
          -6 63 hintmask 11011000
          485 650 rmoveto
          -59 callgsubr
          hintmask 11101000
          -60 callsubr
          hintmask 11011000
          -12 callsubr
          -544 hlineto
          -90 callsubr
          -57 -9 rlineto
          -59 100 vlineto
          -16 -92 37 -8 rlineto
          hintmask 11100100
          -91 callsubr
          62 110 59 vlineto
          -57 9 rlineto
          hintmask 11011000
          -79 callgsubr
          544 vlineto
          endchar
        </CharString>
        <CharString name="Tcommaaccent">
          -11 -41 callgsubr
          57 28 callsubr
          hstemhm
          242 122 -104 86 hintmask 11101100
          485 650 rmoveto
          -59 callgsubr
          hintmask 11110100
          -60 callsubr
          hintmask 11101010
          -56 callgsubr
          hintmask 11110100
          18 -754 -103 callsubr
          endchar
        </CharString>
        <CharString name="Thorn">
          -53 0 241 -63 63 292 61 -61 187 hstemhm
          56 250 -166 84 224 93 hintmask 10101010
          306 30 callgsubr
          hintmask 01100110
          -79 callgsubr
          72 76 vlineto
          119 122 86 156 135 -89 39 -131 hvcurveto
          -97 20 hlineto
          -89 callgsubr
          hintmask 10011010
          -55 callgsubr
          55 -9 rlineto
          hintmask 10100110
          -98 callgsubr
          hintmask 10101010
          -55 -1 callgsubr
          hintmask 10100110
          -82 241 rmoveto
          292 88 vlineto
          72 64 -22 -99 -81 -15 -41 -32 -25 hvcurveto
          -23 -30 -42 -1 -32 hhcurveto
          endchar
        </CharString>
        <CharString name="U">
          104 -10 80 650 -20 -87 callsubr
          endchar
        </CharString>
        <CharString name="Uacute">
          10 callgsubr
          498 935 -100 callgsubr
          66 -254 -107 callsubr
          endchar
        </CharString>
        <CharString name="Ubreve">
          -10 callsubr
          68 66 69 -20 -87 callsubr
          -149 671 -98 callsubr
        </CharString>
        <CharString name="Ucircumflex">
          -10 callsubr
          213 19 callgsubr
          327 -88 callgsubr
          211 -299 -107 callsubr
          endchar
        </CharString>
        <CharString name="Udieresis">
          105 -8 callgsubr
          80 112 hstem
          110 86 7 -27 callsubr
          11 -101 callsubr
          -298 602 rmoveto
          -103 callgsubr
          205 hmoveto
          -103 callgsubr
          endchar
        </CharString>
        <CharString name="Ugrave">
          10 callgsubr
          186 -81 callgsubr
          378 -321 -107 callsubr
          endchar
        </CharString>
        <CharString name="Uhorn">
          130 -8 callgsubr
          133 -20 hstem
          111 86 335 82 68 82 vstem
          674 821 rmoveto
          4 -21 4 -15 -15 vvcurveto
          -21 -5 -16 -7 -13 vhcurveto
          -220 -59 hlineto
          -89 callsubr
          -358 vlineto
          -84 -14 -43 -23 -22 vhcurveto
          -26 -28 -44 -11 -40 hhcurveto
          -94 -92 37 141 hvcurveto
          366 vlineto
          -89 callgsubr
          -65 callgsubr
          25 -4 4 -9 -25 vvcurveto
          -382 vlineto
          -155 81 -87 160 125 137 65 177 vhcurveto
          382 vlineto
          6 0 6 1 4 vhcurveto
          71 18 78 43 87 vvcurveto
          27 -4 17 -3 11 vhcurveto
          endchar
        </CharString>
        <CharString name="Uhungarumlaut">
          104 -10 80 650 35 213 -20 -87 callsubr
          -260 736 rmoveto
          -110 -203 rlineto
          -82 callsubr
        </CharString>
        <CharString name="Umacron">
          -10 callsubr
          108 70 -87 callsubr
          -386 576 -62 callgsubr
        </CharString>
        <CharString name="Uogonek">
          104 -225 55 160 80 -49 -21 720 -20 hstemhm
          110 86 49 66 220 82 hintmask 11011110
          613 614 rmoveto
          -89 callgsubr
          -61 callgsubr
          -246 -59 vlineto
          -89 callsubr
          -358 vlineto
          -84 -14 -43 -23 -22 vhcurveto
          -26 -28 -44 -11 -40 hhcurveto
          -94 -92 37 141 hvcurveto
          366 vlineto
          -89 callgsubr
          -65 callgsubr
          25 -4 4 -9 -25 vvcurveto
          -382 vlineto
          -150 76 -86 150 -6 vhcurveto
          -48 -32 -43 -28 -56 vvcurveto
          -74 callgsubr
          hintmask 10111110
          -28 callsubr
          -1 hlineto
          96 24 84 70 138 vvcurveto
          endchar
        </CharString>
        <CharString name="Uring">
          -10 callsubr
          55 47 92 48 hstem
          110 86 70 50 91 50 74 -101 callsubr
          -156 618 -96 callsubr
          endchar
        </CharString>
        <CharString name="Utilde">
          -10 callsubr
          74 34 callsubr
          110 86 335 82 hintmask 11011100
          -104 callsubr
          -318 579 rmoveto
          hintmask 11101100
          -84 callsubr
          hintmask 11011100
          -86 callsubr
        </CharString>
        <CharString name="V">
          45 22 -21 720 -20 hstem
          583 615 rmoveto
          12 35 11 5 25 3 37 4 rcurveline
          59 -249 -58 vlineto
          53 -6 rlineto
          22 -2 9 -5 -14 vvcurveto
          -5 -2 -8 -2 -8 vhcurveto
          -147 -486 -166 486 rlineto
          -3 9 -2 8 6 vvcurveto
          13 8 4 21 2 vhcurveto
          53 6 rlineto
          58 -269 -59 vlineto
          35 -4 25 -3 22 -5 12 -35 rlinecurve
          222 -614 rlineto
          73 hlineto
          endchar
        </CharString>
        <CharString name="W">
          324 -55 callsubr
          hstem
          861 614 -86 callgsubr
          endchar
        </CharString>
        <CharString name="Wacute">
          14 callgsubr
          560 935 -100 callgsubr
          252 -254 -68 callgsubr
        </CharString>
        <CharString name="Wcircumflex">
          324 -55 callsubr
          213 -20 hstem
          448 -88 callgsubr
          338 -299 -86 callgsubr
          endchar
        </CharString>
        <CharString name="Wdieresis">
          324 -55 callsubr
          80 112 hstem
          319 -27 callsubr
          vstem
          861 614 -86 callgsubr
          -298 834 rmoveto
          -103 callgsubr
          205 hmoveto
          -103 callgsubr
          endchar
        </CharString>
        <CharString name="Wgrave">
          14 callgsubr
          345 -81 callgsubr
          467 -321 -68 callgsubr
        </CharString>
        <CharString name="X">
          66 -55 callsubr
          hstem
          288 371 rmoveto
          -176 -265 -20 -30 -18 -9 -30 -3 rlinecurve
          -38 -5 rlineto
          -59 267 58 vlineto
          -61 6 rlineto
          -14 1 -6 5 9 vvcurveto
          7 4 9 7 11 vhcurveto
          129 203 146 -203 rlineto
          6 -9 3 -7 -6 vvcurveto
          -12 -11 -7 -16 -1 vhcurveto
          -61 -6 rlineto
          -58 275 59 vlineto
          -38 5 -25 3 -12 14 -18 25 rlinecurve
          -188 266 158 242 19 30 22 8 30 4 rlinecurve
          38 5 rlineto
          59 -254 -58 vlineto
          51 -6 rlineto
          13 -1 5 -5 -7 vvcurveto
          -7 -5 -10 -8 -12 vhcurveto
          -114 -178 -125 178 rlineto
          -8 12 -4 9 7 vvcurveto
          8 6 5 13 1 vhcurveto
          56 6 rlineto
          58 -268 -59 vlineto
          38 -5 30 -4 8 -8 21 -30 rlinecurve
          endchar
        </CharString>
        <CharString name="Y">
          6 callsubr
          hstem
          292 86 vstem
          -99 callgsubr
          endchar
        </CharString>
        <CharString name="Yacute">
          53 -5 callsubr
          292 86 vstem
          474 935 -100 callgsubr
          -231 -614 rmoveto
          -148 vlineto
          -53 callsubr
          150 vlineto
          202 358 16 29 5 9 29 4 rlinecurve
          38 5 rlineto
          59 -248 -59 vlineto
          50 -6 rlineto
          21 -3 14 -4 -13 vvcurveto
          -5 -2 -7 -5 -9 vhcurveto
          -150 -283 -157 283 rlineto
          -5 10 -3 7 6 vvcurveto
          12 12 4 20 3 vhcurveto
          50 6 rlineto
          58 -269 -59 vlineto
          38 -5 30 -4 13 -8 17 -30 rlinecurve
          endchar
        </CharString>
        <CharString name="Ycircumflex">
          6 callsubr
          213 -20 hstem
          292 86 vstem
          304 -88 callgsubr
          -87 -659 rmoveto
          -148 vlineto
          -53 callsubr
          150 vlineto
          202 358 16 29 5 9 29 4 rlinecurve
          38 5 rlineto
          59 -248 -59 vlineto
          50 -6 rlineto
          21 -3 14 -4 -13 vvcurveto
          -5 -2 -7 -5 -9 vhcurveto
          -150 -283 -157 283 rlineto
          -5 10 -3 7 6 vvcurveto
          12 12 4 20 3 vhcurveto
          50 6 rlineto
          58 -269 -59 vlineto
          38 -5 30 -4 13 -8 17 -30 rlinecurve
          endchar
        </CharString>
        <CharString name="Ydieresis">
          6 callsubr
          80 112 hstem
          180 112 0 86 7 112 vstem
          -99 callgsubr
          198 220 rmoveto
          -103 callgsubr
          205 hmoveto
          -103 callgsubr
          endchar
        </CharString>
        <CharString name="Ygrave">
          53 -5 callsubr
          292 86 vstem
          162 -81 callgsubr
          81 -681 rmoveto
          -148 vlineto
          -53 callsubr
          150 vlineto
          202 358 16 29 5 9 29 4 rlinecurve
          38 5 rlineto
          59 -248 -59 vlineto
          50 -6 rlineto
          21 -3 14 -4 -13 vvcurveto
          -5 -2 -7 -5 -9 vhcurveto
          -150 -283 -157 283 rlineto
          -5 10 -3 7 6 vvcurveto
          12 12 4 20 3 vhcurveto
          50 6 rlineto
          58 -269 -59 vlineto
          38 -5 30 -4 13 -8 17 -30 rlinecurve
          endchar
        </CharString>
        <CharString name="Ytilde">
          6 callsubr
          73 34 callsubr
          292 86 hintmask 11011000
          -99 callgsubr
          171 196 rmoveto
          hintmask 11101000
          -84 callsubr
          hintmask 11011000
          -86 callsubr
        </CharString>
        <CharString name="Z">
          7 0 2 callsubr
          374 169 -70 70 hstemhm
          515 73 hintmask 10011000
          20 callgsubr
          hintmask 01101000
          -80 callgsubr
          hintmask 10011000
          -44 callsubr
          hintmask 10101000
          -4 callgsubr
          hintmask 10011000
          25 2 12 4 24 hhcurveto
          endchar
        </CharString>
        <CharString name="Zacute">
          26 callgsubr
          181 -20 hstemhm
          515 73 hintmask 10011100
          458 935 -100 callgsubr
          hintmask 10101100
          -38 -218 -50 callsubr
        </CharString>
        <CharString name="Zcaron">
          26 callgsubr
          167 -20 hstemhm
          515 73 hintmask 10011100
          363 754 -66 callsubr
          hintmask 10101100
          181 -104 -50 callsubr
        </CharString>
        <CharString name="Zdotaccent">
          7 0 2 callsubr
          374 169 -70 70 67 118 hstemhm
          265 118 132 73 hintmask 10011110
          20 callgsubr
          hintmask 01101110
          -80 callgsubr
          hintmask 10011110
          -44 callsubr
          hintmask 10101110
          -4 callgsubr
          hintmask 10011110
          25 2 12 4 24 hhcurveto
          194 194 rmoveto
          -93 callgsubr
          endchar
        </CharString>
        <CharString name="_0000">
          -617 endchar
        </CharString>
        <CharString name="a">
          -90 -33 callgsubr
          hstemhm
          37 83 215 79 hintmask 10111000
          414 352 -105 callsubr
          hintmask 01111000
          -88 callsubr
          hintmask 10111000
          -81 callsubr
          endchar
        </CharString>
        <CharString name="aacute">
          -92 -33 callgsubr
          0 64 8 callgsubr
          35 83 215 79 hintmask 10101110
          412 352 -105 callsubr
          hintmask 01101110
          -88 callsubr
          hintmask 10011110
          -81 callsubr
          151 546 -53 callgsubr
          -96 callgsubr
        </CharString>
        <CharString name="abreve">
          -92 -33 callgsubr
          78 66 69 -20 hstemhm
          35 83 215 79 hintmask 10111110
          412 352 -105 callsubr
          hintmask 01111110
          -88 callsubr
          hintmask 10111110
          -81 callsubr
          143 497 -98 callsubr
        </CharString>
        <CharString name="acircumflex">
          -92 -33 callgsubr
          238 -20 hstemhm
          35 83 215 79 hintmask 10111100
          412 352 -105 callsubr
          hintmask 01111100
          -88 callsubr
          hintmask 10111100
          -81 callsubr
          6 522 -84 callgsubr
          endchar
        </CharString>
        <CharString name="acute">
          -332 585 -21 198 -20 hstem
          191 762 -53 callgsubr
          -96 callgsubr
        </CharString>
        <CharString name="acute.case">
          -361 775 -21 181 -20 hstem
          193 935 -100 callgsubr
          endchar
        </CharString>
        <CharString name="adieresis">
          -92 -33 callgsubr
          90 112 hstemhm
          35 83 -42 -27 callsubr
          -60 79 hintmask 10111001
          412 352 -105 callsubr
          hintmask 01111001
          -88 callsubr
          hintmask 10111001
          -81 callsubr
          hintmask 10110110
          -6 428 rmoveto
          -103 callgsubr
          205 hmoveto
          -103 callgsubr
          endchar
        </CharString>
        <CharString name="ae">
          151 -10 66 368 66 hstem
          35 83 215 76 241 79 vstem
          729 -75 callgsubr
          endchar
        </CharString>
        <CharString name="aeacute">
          153 -10 66 368 66 0 74 8 callgsubr
          37 83 215 76 241 79 hintmask 11011110
          731 -75 callgsubr
          308 560 -53 callgsubr
          hintmask 10111110
          -96 callgsubr
        </CharString>
        <CharString name="agrave">
          -92 -33 callgsubr
          0 64 8 callgsubr
          35 83 215 79 hintmask 10101110
          412 352 -105 callsubr
          hintmask 01101110
          -88 callsubr
          hintmask 10011110
          -81 callsubr
          -121 486 -21 callsubr
          -69 callgsubr
        </CharString>
        <CharString name="amacron">
          -122 -33 callgsubr
          118 70 hstemhm
          35 83 215 79 hintmask 10111100
          412 352 -105 callsubr
          hintmask 01111100
          -88 callsubr
          hintmask 10111100
          -81 callsubr
          -94 402 -62 callgsubr
        </CharString>
        <CharString name="ampersand">
          89 -11 69 -47 -21 554 186 -61 61 hstemhm
          31 100 -18 99 0 177 hintmask 10011010
          591 256 rmoveto
          -95 -61 -177 229 rlineto
          -39 45 -68 68 56 vvcurveto
          45 30 31 45 44 37 -13 -16 21 vhcurveto
          hintmask 10101010
          -96 75 vlineto
          18 136 rlineto
          24 -43 -61 26 -77 hhcurveto
          hintmask 10100100
          -152 -36 -81 -55 -73 48 -33 44 -70 hvcurveto
          -97 -83 rlineto
          hintmask 10101010
          -44 -38 -33 -37 -90 vvcurveto
          hintmask 10100100
          -68 35 -113 146 116 94 80 24 42 vhcurveto
          hintmask 01101010
          -61 53 34 -42 67 hhcurveto
          34 20 9 11 19 hvcurveto
          5 56 rlineto
          hintmask 10101010
          -3 -7 -16 -5 -17 hhcurveto
          -42 -36 32 42 -33 hvcurveto
          -10 12 81 59 rlineto
          -195 -58 rmoveto
          -18 -22 -89 -62 -59 hhcurveto
          -84 -36 58 65 63 29 23 34 33 hvcurveto
          61 60 rlineto
          endchar
        </CharString>
        <CharString name="aogonek">
          -92 -225 55 160 -37 callsubr
          hstemhm
          35 83 180 66 -31 79 hintmask 11011100
          298 15 callgsubr
          hintmask 11011010
          -4 -14 -25 -9 -27 hhcurveto
          hintmask 11011100
          -31 -17 25 28 hvcurveto
          hintmask 10111010
          26 30 27 18 14 vhcurveto
          -28 callsubr
          4 -69 callsubr
          254 vlineto
          100 -89 38 -95 -58 -37 -10 -27 -75 vhcurveto
          7 -115 rlineto
          58 hlineto
          14 73 rlineto
          9 20 36 10 32 hhcurveto
          61 47 -19 -61 hvcurveto
          -67 vlineto
          -162 -22 rlineto
          -89 -12 -47 -52 -79 vvcurveto
          hintmask 11011100
          -76 50 -52 76 64 59 32 56 53 vhcurveto
          hintmask 10111100
          8 -78 rlineto
          58 hlineto
          -10 callgsubr
          hintmask 11011010
          35 355 rmoveto
          -89 vlineto
          -81 callsubr
          endchar
        </CharString>
        <CharString name="aring">
          -92 -33 callgsubr
          65 47 92 48 hstemhm
          35 83 9 50 91 50 15 79 hintmask 1011111110000000
          412 352 -105 callsubr
          hintmask 0111111110000000
          -88 callsubr
          hintmask 1011111110000000
          -81 callsubr
          124 444 -96 callsubr
          endchar
        </CharString>
        <CharString name="aringacute">
          -90 -33 callgsubr
          65 47 92 48 0 24 181 -20 hstemhm
          37 83 6 50 91 50 18 79 hintmask 1011011111100000
          284 947 -100 callgsubr
          81 -528 -105 callsubr
          hintmask 0111101111100000
          -88 callsubr
          hintmask 1011101111100000
          -81 callsubr
          121 444 -96 callsubr
          endchar
        </CharString>
        <CharString name="asciicircum">
          -42 360 -21 381 -20 hstem
          249 720 rmoveto
          -187 -357 50 -24 171 307 176 -307 56 32 -193 349 rlineto
          endchar
        </CharString>
        <CharString name="asciitilde">
          -47 190 72 -16 72 hstemhm
          hintmask 01000000
          195 246 rmoveto
          hintmask 10000000
          56 59 -56 61 hhcurveto
          45 50 33 31 32 hvcurveto
          -12 47 rlineto
          -16 -29 -42 -23 -35 hhcurveto
          hintmask 01000000
          -50 -57 56 -65 hhcurveto
          -48 -49 -39 -32 -39 hvcurveto
          12 -47 rlineto
          16 30 45 30 36 hhcurveto
          endchar
        </CharString>
        <CharString name="asterisk">
          -265 411 -21 326 -20 21 -20 hstemhm
          145 52 -52 169 hintmask 10110000
          145 678 rmoveto
          -30 2 -29 3 -30 vhcurveto
          -106 73 rlineto
          -10 -16 -6 -6 -13 vvcurveto
          -23 12 -9 90 -42 vhcurveto
          -115 -54 rlineto
          -24 12 7 -13 19 hhcurveto
          16 22 15 41 59 hvcurveto
          -10 -126 rlineto
          -1 6 9 -1 5 hhcurveto
          21 16 13 25 29 -3 30 -3 31 hvcurveto
          107 -73 rlineto
          hintmask 11001000
          8 13 8 9 13 vvcurveto
          17 -10 10 -16 8 vhcurveto
          -77 38 116 55 rlineto
          27 -13 -5 10 -20 hhcurveto
          -15 -24 -15 -41 -59 hvcurveto
          11 127 rlineto
          hintmask 10110000
          -4 -10 1 -8 hhcurveto
          -19 -16 -13 -26 hvcurveto
          endchar
        </CharString>
        <CharString name="at">
          151 -81 74 115 69 -54 68 218 57 121 73 hstemhm
          31 85 91 73 379 74 hintmask 11011111
          499 444 rmoveto
          14 -28 -33 8 -35 hhcurveto
          -57 -46 -27 -32 -30 hvcurveto
          -31 -33 -32 -71 -68 vvcurveto
          -68 55 -59 60 47 62 38 29 38 vhcurveto
          hintmask 10111111
          -27 18 28 -25 36 hhcurveto
          92 90 111 149 144 -98 133 -197 -156 -84 -59 -56 -53 hvcurveto
          -42 -45 -72 -111 -171 vvcurveto
          -183 147 -116 156 174 137 74 24 43 vhcurveto
          -34 51 rlineto
          -37 -79 -116 -38 -100 hhcurveto
          -122 -121 75 172 139 74 131 57 35 hvcurveto
          28 44 82 14 55 hhcurveto
          123 108 -71 -138 -101 -43 -86 -51 -18 -24 14 42 7 hvcurveto
          33 209 rlineto
          -99 -224 rmoveto
          hintmask 11011111
          -23 -28 -59 -32 -29 hhcurveto
          -21 -47 6 67 66 30 47 19 19 hvcurveto
          16 15 24 11 27 hhcurveto
          55 -1 33 -29 0 vvcurveto
          endchar
        </CharString>
        <CharString name="atilde">
          -92 -33 callgsubr
          84 34 callsubr
          35 83 215 79 hintmask 10110110
          412 352 -105 callsubr
          hintmask 01110110
          -88 callsubr
          hintmask 10101110
          -81 callsubr
          -46 405 rmoveto
          hintmask 10110110
          -84 callsubr
          hintmask 10101110
          -86 callsubr
        </CharString>
        <CharString name="b">
          -53 -10 66 368 66 290 -20 hstem
          105 79 255 86 vstem
          184 780 rmoveto
          -159 -52 hlineto
          0 callsubr
          21 -2 4 -8 -28 vvcurveto
          -649 vlineto
          -28 52 61 -17 68 hhcurveto
          160 79 117 153 144 -80 86 -106 -89 -50 -50 -19 -16 hvcurveto
          -65 vmoveto
          25 16 45 43 60 hhcurveto
          76 58 -57 -119 -64 -11 -59 -25 -36 hvcurveto
          -21 -17 -38 -12 -45 hhcurveto
          -40 -43 10 31 -36 hvcurveto
          endchar
        </CharString>
        <CharString name="backslash">
          -204 -151 -21 892 -20 hstem
          20 692 rmoveto
          304 -864 65 28 -304 864 rlineto
          endchar
        </CharString>
        <CharString name="bar">
          -318 -219 -21 1030 -20 hstem
          115 69 vstem
          115 790 rmoveto
          -1030 69 1030 vlineto
          endchar
        </CharString>
        <CharString name="braceleft">
          23 callgsubr
          115 78 -78 173 cntrmask 11100000
          hintmask 11110000
          42 248 rmoveto
          55 18 -60 -96 hvcurveto
          -222 vlineto
          -60 33 -52 62 vhcurveto
          hintmask 11101000
          78 48 -37 hlineto
          hintmask 11110000
          -49 -9 33 56 hvcurveto
          213 vlineto
          77 -37 80 -47 4 vhcurveto
          47 4 37 80 77 vvcurveto
          213 vlineto
          56 9 33 49 vhcurveto
          hintmask 11101000
          37 48 -78 hlineto
          -62 -33 -52 -60 hvcurveto
          -222 vlineto
          -96 -18 -60 -55 vhcurveto
          endchar
        </CharString>
        <CharString name="braceright">
          23 callgsubr
          42 173 -78 78 cntrmask 11100000
          hintmask 11110000
          288 290 rmoveto
          -55 -18 60 96 hvcurveto
          222 vlineto
          60 -33 52 -62 vhcurveto
          -78 -48 37 hlineto
          hintmask 11101000
          49 9 -33 -56 hvcurveto
          -213 vlineto
          -77 36 -80 47 -4 vhcurveto
          -47 -4 -36 -80 -77 vvcurveto
          -213 vlineto
          -56 -9 -33 -49 vhcurveto
          hintmask 11110000
          -37 -48 78 hlineto
          62 33 52 60 hvcurveto
          222 vlineto
          96 18 60 55 vhcurveto
          endchar
        </CharString>
        <CharString name="bracketleft">
          -254 -240 61 898 61 hstemhm
          100 75 -75 225 hintmask 11100000
          325 780 rmoveto
          -225 -1020 hlineto
          hintmask 11010000
          225 61 hlineto
          hintmask 11100000
          -150 898 hlineto
          hintmask 11010000
          150 hlineto
          endchar
        </CharString>
        <CharString name="bracketright">
          -254 -240 61 898 61 hstemhm
          38 225 -75 75 hintmask 11100000
          38 719 rmoveto
          hintmask 11010000
          150 -898 hlineto
          hintmask 11100000
          -150 -61 225 1020 -225 hlineto
          endchar
        </CharString>
        <CharString name="breve">
          -241 578 66 69 -20 hstem
          295 713 -98 callsubr
        </CharString>
        <CharString name="brokenbar">
          -313 -219 -21 1030 -20 hstem
          115 74 vstem
          115 790 rmoveto
          -380 74 380 vlineto
          -74 -650 rmoveto
          -380 74 380 vlineto
          endchar
        </CharString>
        <CharString name="bullet">
          -235 243 218 hstem
          82 218 vstem
          300 344 rmoveto
          76 -14 41 -80 -103 -21 -41 -81 -64 28 -32 66 90 34 20 81 vhcurveto
          endchar
        </CharString>
        <CharString name="c">
          -142 -10 66 368 66 hstem
          40 86 vstem
          423 83 -95 callgsubr
          -155 74 -81 141 86 70 33 9 24 hvcurveto
          endchar
        </CharString>
        <CharString name="cacute">
          -142 -10 66 368 66 0 63 8 callgsubr
          40 86 hintmask 11011000
          423 83 -95 callgsubr
          -155 74 -81 141 86 70 33 9 24 hvcurveto
          -88 719 -53 callgsubr
          hintmask 10111000
          -96 callgsubr
        </CharString>
        <CharString name="caron">
          -264 585 -21 182 -20 hstem
          213 564 -83 callsubr
        </CharString>
        <CharString name="caron.case">
          -333 775 -21 167 -20 hstem
          180 754 -66 callsubr
          endchar
        </CharString>
        <CharString name="ccaron">
          -142 -10 66 368 66 0 74 182 -20 hstemhm
          40 86 hintmask 11011000
          423 83 -95 callgsubr
          -155 74 -81 141 86 70 33 9 24 hvcurveto
          hintmask 10111000
          -164 532 -83 callsubr
        </CharString>
        <CharString name="ccedilla">
          -142 -230 46 174 66 368 66 hstem
          40 86 154 63 vstem
          423 83 -95 callgsubr
          -139 59 -80 114 -14 hvcurveto
          -15 -85 37 -8 rlineto
          -91 callsubr
          52 vlineto
          83 2 66 31 24 9 rrcurveto
          endchar
        </CharString>
        <CharString name="ccircumflex">
          -142 -10 66 368 66 238 -20 hstem
          40 86 vstem
          207 728 -84 callgsubr
          141 -645 -95 callgsubr
          -155 74 -81 141 86 70 33 9 24 hvcurveto
          endchar
        </CharString>
        <CharString name="cdotaccent">
          -142 -10 66 368 66 107 118 hstem
          40 86 50 118 vstem
          423 83 -95 callgsubr
          -155 74 -81 141 86 70 33 9 24 hvcurveto
          -141 622 rmoveto
          -93 callgsubr
          endchar
        </CharString>
        <CharString name="cedilla">
          -295 -230 46 197 -20 hstem
          199 63 vstem
          136 13 rmoveto
          -19 -105 37 -8 rlineto
          -91 callsubr
          63 vlineto
          endchar
        </CharString>
        <CharString name="cent">
          -137 -38 194 -65 65 358 66 -66 194 hstemhm
          45 86 86 69 hintmask 10101100
          428 183 rmoveto
          -11 -44 -54 -16 -59 hhcurveto
          -92 -48 71 94 63 9 62 25 35 hvcurveto
          22 13 41 11 29 hhcurveto
          50 32 -9 -10 18 hvcurveto
          14 -75 rlineto
          58 hlineto
          7 123 -25 16 -58 19 -63 2 rlinecurve
          hintmask 10011100
          5 128 rlineto
          -71 hlineto
          5 -134 rlineto
          -110 -24 -65 -101 -133 vvcurveto
          -135 61 -76 117 -13 vhcurveto
          -5 -130 rlineto
          71 hlineto
          hintmask 01101100
          -5 129 75 5 59 28 22 8 rlinecurve
          endchar
        </CharString>
        <CharString name="circumflex">
          -264 577 -21 182 -20 hstem
          140 738 -84 callgsubr
          endchar
        </CharString>
        <CharString name="circumflex.case">
          -333 767 -21 167 -20 hstem
          105 -88 callgsubr
          endchar
        </CharString>
        <CharString name="colon">
          -389 -6 128 240 -17 callgsubr
          368 vmoveto
          3 callsubr
        </CharString>
        <CharString name="comma">
          -387 -116 -21 130 120 -35 callsubr
          endchar
        </CharString>
        <CharString name="commaaccent">
          -362 -41 callgsubr
          hstem
          66 122 vstem
          188 -104 -103 callsubr
          endchar
        </CharString>
        <CharString name="copyright">
          207 -10 50 112 60 300 60 108 50 hstem
          47 50 136 75 429 50 vstem
          47 359 rmoveto
          -203 166 -166 203 205 166 166 203 205 -166 166 -205 -203 -166 -166 -205 vhcurveto
          50 hmoveto
          176 145 145 174 176 145 -145 -176 -174 -145 -145 -176 -174 -145 145 174 vhcurveto
          451 -123 rmoveto
          -11 -34 -43 -13 -45 hhcurveto
          -77 -41 58 84 48 9 51 20 31 hvcurveto
          18 12 33 10 25 hhcurveto
          37 23 -8 -8 14 hvcurveto
          11 -63 rlineto
          53 hlineto
          6 108 rlineto
          13 -24 -48 18 -51 hhcurveto
          -121 -74 -88 -130 -130 63 -72 121 67 55 28 7 19 hvcurveto
          endchar
        </CharString>
        <CharString name="currency">
          -101 77 -21 80 68 232 71 76 -20 hstem
          64 74 231 76 vstem
          445 324 rmoveto
          41 -14 42 -26 34 vhcurveto
          81 89 -56 47 -73 -95 rlineto
          16 -26 -32 9 -37 hhcurveto
          -38 -34 -9 -15 -27 hvcurveto
          -77 100 -56 -49 82 -92 rlineto
          -32 -35 -16 -46 -43 vvcurveto
          -46 16 -46 33 -35 vhcurveto
          -80 -88 56 -47 75 97 rlineto
          -11 23 28 -6 32 hhcurveto
          39 34 9 16 29 hvcurveto
          75 -97 57 48 -82 91 rlineto
          30 35 16 44 42 vvcurveto
          -76 5 rmoveto
          -74 -39 -51 -75 -62 -55 43 65 74 41 50 75 62 53 -44 -63 vhcurveto
          endchar
        </CharString>
        <CharString name="d">
          -48 -10 66 -35 -21 424 66 290 -20 hstemhm
          39 86 255 79 hintmask 10111100
          380 133 -58 callgsubr
          hintmask 01111100
          -35 callgsubr
          endchar
        </CharString>
        <CharString name="dcaron">
          30 7 66 368 66 137 115 38 -20 hstem
          45 86 255 79 50 129 vstem
          644 -78 callsubr
          -258 -540 -58 callgsubr
          -35 callgsubr
          endchar
        </CharString>
        <CharString name="degree">
          -299 442 53 182 53 hstem
          12 58 178 58 vstem
          306 586 rmoveto
          85 -62 59 -85 -85 -62 -59 -85 -85 62 -59 85 85 62 59 85 vhcurveto
          -58 hmoveto
          -56 -33 -35 -56 -56 -33 35 56 56 33 35 56 56 33 -35 -56 vhcurveto
          endchar
        </CharString>
        <CharString name="dieresis">
          -70 590 112 hstem
          115 -27 callsubr
          vstem
          227 644 rmoveto
          -103 callgsubr
          205 hmoveto
          -103 callgsubr
          endchar
        </CharString>
        <CharString name="divide">
          -101 5 114 84 65 94 114 hstem
          198 114 vstem
          312 60 rmoveto
          9 callsubr
          357 vmoveto
          9 callsubr
          -272 -214 rmoveto
          436 65 -436 hlineto
          endchar
        </CharString>
        <CharString name="dollar">
          -63 -119 191 -67 67 543 62 -62 180 hstemhm
          66 91 75 71 108 92 hintmask 10101110
          481 647 rmoveto
          -63 17 -58 11 -62 2 rrcurveto
          hintmask 10011110
          5 118 rlineto
          -74 hlineto
          4 -119 rlineto
          -108 -12 -59 -66 -86 vvcurveto
          -87 53 -37 66 -35 vhcurveto
          122 -64 rlineto
          89 -47 15 -15 -53 vvcurveto
          -64 -53 -38 -91 -57 -23 5 19 -46 vhcurveto
          -9 88 -72 4 -15 -146 63 -21 42 -14 84 -3 rlinecurve
          -4 -123 rlineto
          75 hlineto
          hintmask 01011110
          -4 124 rlineto
          127 10 75 73 103 vvcurveto
          100 -58 34 -72 35 vhcurveto
          -110 53 rlineto
          -69 38 -37 22 51 vvcurveto
          65 33 26 79 43 35 -7 -19 37 vhcurveto
          14 -84 rlineto
          71 hlineto
          endchar
        </CharString>
        <CharString name="dong">
          -32 -172 54 108 10 callsubr
          hintmask 11011011
          183 578 rmoveto
          202 -106 hlineto
          -56 callsubr
          hintmask 10111011
          -35 callgsubr
          480 72 65 -72 vlineto
          hintmask 11010111
          137 -164 -52 vlineto
          60 -6 rlineto
          21 -2 4 -8 -28 vvcurveto
          hintmask 11011011
          -41 -202 vlineto
          202 -510 -63 callgsubr
          -339 -557 rmoveto
          500 54 -500 hlineto
          endchar
        </CharString>
        <CharString name="dotaccent">
          -320 597 118 hstem
          87 118 vstem
          205 654 rmoveto
          -93 callgsubr
          endchar
        </CharString>
        <CharString name="dotbelow">
          -413 -185 118 hstem
          43 118 vstem
          161 -128 rmoveto
          -93 callgsubr
          endchar
        </CharString>
        <CharString name="dotlessi">
          21 -21 480 -33 callsubr
          hintmask 11100000
          199 480 -46 callgsubr
          hintmask 11010000
          -76 callsubr
          hintmask 11100000
          -54 callgsubr
        </CharString>
        <CharString name="dotlessj">
          13 callsubr
          -20 hstem
          110 79 vstem
          110 25 -29 callgsubr
        </CharString>
        <CharString name="dslash">
          -32 -10 10 callsubr
          hintmask 10110110
          183 578 rmoveto
          202 -106 hlineto
          -56 callsubr
          hintmask 01110110
          -35 callgsubr
          480 72 65 -72 vlineto
          hintmask 10101110
          137 -164 -52 vlineto
          60 -6 rlineto
          21 -2 4 -8 -28 vvcurveto
          hintmask 10110110
          -41 -202 vlineto
          202 -510 -63 callgsubr
          endchar
        </CharString>
        <CharString name="e">
          -133 -10 66 368 66 hstem
          36 87 243 79 vstem
          -104 callgsubr
          endchar
        </CharString>
        <CharString name="eacute">
          -133 -10 66 368 66 0 64 8 callgsubr
          36 87 243 79 hintmask 11011100
          -104 callgsubr
          -11 452 -53 callgsubr
          hintmask 10111100
          -96 callgsubr
        </CharString>
        <CharString name="ebreve">
          -133 -10 66 368 66 78 66 69 -20 hstem
          36 87 243 79 vstem
          -104 callgsubr
          -25 403 -98 callsubr
        </CharString>
        <CharString name="ecaron">
          -133 -10 66 368 66 0 64 182 -20 hstemhm
          36 87 243 79 hintmask 11011100
          -104 callgsubr
          hintmask 10111100
          -89 254 -83 callsubr
        </CharString>
        <CharString name="ecircumflex">
          -133 -10 66 368 66 238 -20 hstem
          36 87 243 79 vstem
          -104 callgsubr
          -162 428 -84 callgsubr
          endchar
        </CharString>
        <CharString name="edieresis">
          -133 -10 66 368 66 90 112 hstemhm
          36 87 -43 -27 callsubr
          -31 79 hintmask 11110010
          -104 callgsubr
          hintmask 11101100
          -174 334 rmoveto
          -103 callgsubr
          205 hmoveto
          -103 callgsubr
          endchar
        </CharString>
        <CharString name="edotaccent">
          -133 -10 66 368 66 97 118 hstem
          36 87 57 118 68 79 vstem
          -104 callgsubr
          -68 344 rmoveto
          -93 callgsubr
          endchar
        </CharString>
        <CharString name="egrave">
          -133 -10 66 368 66 0 64 8 callgsubr
          36 87 243 79 hintmask 11011100
          -104 callgsubr
          -289 392 -21 callsubr
          hintmask 10111100
          -69 callgsubr
        </CharString>
        <CharString name="eight">
          -115 -10 60 622 58 hstemhm
          40 84 -59 80 215 77 -60 85 hintmask 11011000
          65 545 rmoveto
          -75 42 -51 71 -50 vhcurveto
          hintmask 11100100
          -72 -51 -66 -49 -94 vvcurveto
          -131 83 -54 124 117 98 67 124 101 -42 38 -97 62 vhcurveto
          hintmask 11011000
          64 53 50 36 96 vvcurveto
          103 -70 60 -106 -107 -89 -53 -132 vhcurveto
          hintmask 11100100
          59 -364 rmoveto
          83 42 35 56 41 vhcurveto
          18 -10 rlineto
          88 -53 49 -32 -75 vvcurveto
          -72 -36 -48 -76 -82 -59 54 77 vhcurveto
          hintmask 11011000
          236 390 rmoveto
          -82 -33 -34 -48 -46 vhcurveto
          -87 56 -47 37 63 vvcurveto
          72 30 35 67 58 60 -35 -66 vhcurveto
          endchar
        </CharString>
        <CharString name="eightsuperior">
          -270 266 47 169 -20 217 47 hstemhm
          14 67 -45 63 159 60 -47 67 hintmask 11101100
          36 616 rmoveto
          -60 38 -27 44 -25 vhcurveto
          hintmask 11110010
          -56 -30 -48 -30 -65 vvcurveto
          -77 60 -36 96 87 81 44 79 60 -46 32 -62 32 vhcurveto
          hintmask 11101100
          51 34 37 20 61 vvcurveto
          62 -53 36 -80 -83 -66 -34 -76 vhcurveto
          hintmask 11110010
          45 -227 rmoveto
          47 35 19 40 27 vhcurveto
          1 hlineto
          49 -30 65 -32 -37 vvcurveto
          -42 -32 -28 -53 -61 -44 24 52 vhcurveto
          hintmask 11101100
          177 232 rmoveto
          -45 -35 -21 -32 -23 vhcurveto
          -62 33 -30 23 39 vvcurveto
          39 28 13 39 44 48 -17 -41 vhcurveto
          endchar
        </CharString>
        <CharString name="ellipsis">
          83 -6 133 hstem
          50 133 101 133 100 133 vstem
          183 58 rmoveto
          -24 callgsubr
          234 hmoveto
          -24 callgsubr
          233 hmoveto
          -24 callgsubr
          endchar
        </CharString>
        <CharString name="emacron">
          -133 -10 66 368 66 118 70 hstem
          36 87 243 79 vstem
          -104 callgsubr
          -249 308 -62 callgsubr
        </CharString>
        <CharString name="emdash">
          279 221 64 hstem
          221 vmoveto
          896 64 -896 hlineto
          endchar
        </CharString>
        <CharString name="endash">
          -169 221 64 hstem
          221 vmoveto
          448 64 -448 hlineto
          endchar
        </CharString>
        <CharString name="eng">
          11 -229 -21 271 -32 callgsubr
          hstemhm
          118 79 239 79 hintmask 11101100
          515 347 rmoveto
          72 -37 71 -115 -90 -47 -51 -31 -30 vhcurveto
          hintmask 11011100
          -9 72 rlineto
          -147 -52 hlineto
          0 callsubr
          -65 callsubr
          -8 -21 -2 vhcurveto
          -55 -6 rlineto
          -54 240 53 vlineto
          -60 -75 callsubr
          242 vlineto
          hintmask 11101100
          35 20 49 41 65 hhcurveto
          65 40 -33 -60 hvcurveto
          -307 vlineto
          -122 -24 -40 -109 -64 vhcurveto
          49 -40 8 callsubr
          72 19 49 142 vvcurveto
          endchar
        </CharString>
        <CharString name="eogonek">
          -133 -225 55 160 66 368 66 hstem
          36 87 96 66 81 79 vstem
          445 242 rmoveto
          152 -33 96 -152 -146 -78 -109 -146 -145 61 -100 145 31 29 3 5 25 vhcurveto
          -69 -47 -39 -27 -50 vvcurveto
          -51 33 -48 62 45 39 22 5 13 vhcurveto
          -12 41 rlineto
          -4 -14 -25 -9 -27 hhcurveto
          -31 -17 25 28 26 36 28 17 15 hvcurveto
          17 15 67 57 17 11 rrcurveto
          1 1 0 1 vhcurveto
          0 0 1 1 vhcurveto
          -1 -1 -14 49 rlineto
          -10 -30 -79 -19 -48 hhcurveto
          -97 -47 59 104 -3 hvcurveto
          -1 60 rmoveto
          116 13 12 29 109 hhcurveto
          94 16 -63 -61 hvcurveto
          endchar
        </CharString>
        <CharString name="equal">
          -73 115 66 107 66 hstem
          60 288 rmoveto
          424 66 -424 hlineto
          -239 vmoveto
          424 66 -424 hlineto
          endchar
        </CharString>
        <CharString name="eth">
          -100 -10 66 368 66 302 -20 hstem
          25 86 270 86 vstem
          467 281 rmoveto
          147 -45 146 -118 113 vhcurveto
          81 51 -29 45 -94 -59 -32 25 -36 23 -41 20 rlinecurve
          -33 -51 26 -15 27 -19 27 -21 rlinecurve
          -96 -60 30 -46 109 68 52 -51 45 -66 21 -80 rlinecurve
          19 -13 -46 20 -43 hhcurveto
          -151 -83 -135 -115 -145 56 -105 140 174 72 129 162 hvcurveto
          -228 143 rmoveto
          123 19 -54 -126 -53 -10 -73 -29 -31 hvcurveto
          -19 -18 -31 -12 -48 hhcurveto
          -88 -46 69 111 53 12 78 26 25 hvcurveto
          17 18 29 15 43 hhcurveto
          endchar
        </CharString>
        <CharString name="exclam">
          -292 -10 130 600 -20 hstem
          100 130 -106 77 vstem
          100 57 rmoveto
          -39 7 -28 49 57 17 28 43 36 -20 23 -37 -47 -26 -16 -47 vhcurveto
          32 117 rmoveto
          61 hlineto
          16 384 3 162 rlineto
          -99 hlineto
          4 -162 rlineto
          endchar
        </CharString>
        <CharString name="exclamdown">
          -294 -219 -21 600 130 hstem
          100 130 -106 77 vstem
          100 423 rmoveto
          -47 26 -16 47 37 20 23 36 43 -17 28 -57 -49 -7 -28 -39 vhcurveto
          17 -501 rmoveto
          -4 -162 rlineto
          99 hlineto
          -3 162 -16 384 rlineto
          -61 hlineto
          endchar
        </CharString>
        <CharString name="f">
          -283 11 callgsubr
          hintmask 11011000
          37 476 rmoveto
          -48 83 -330 vlineto
          -49 callsubr
          -57 -6 rlineto
          -54 260 53 vlineto
          -78 -75 callsubr
          330 vlineto
          hintmask 11010100
          128 67 hlineto
          hintmask 10111000
          -128 -10 rlineto
          161 -15 callgsubr
          -105 -2 vlineto
          endchar
        </CharString>
        <CharString name="fi">
          -27 21 -21 428 57 122 183 -72 72 hstemhm
          120 79 209 79 hintmask 11011100
          487 485 rmoveto
          -288 158 hlineto
          53 30 22 64 31 46 -14 -7 16 vhcurveto
          hintmask 11101100
          16 -90 rlineto
          78 hlineto
          16 142 rlineto
          19 -36 -59 22 -92 hhcurveto
          -110 -79 -66 -134 hvcurveto
          -105 vlineto
          -83 -9 rlineto
          -48 83 -330 vlineto
          -49 callsubr
          -57 -6 rlineto
          -54 260 53 vlineto
          -78 -75 callsubr
          330 118 vlineto
          68 -6 rlineto
          -76 callsubr
          -54 callgsubr
        </CharString>
        <CharString name="five">
          -158 -168 69 529 74 hstem
          330 86 vstem
          396 504 rmoveto
          -298 hlineto
          -26 -318 130 -19 rlineto
          95 -14 33 -37 -68 vvcurveto
          -60 -42 -87 -104 -33 -91 20 8 -25 vhcurveto
          -15 -52 rlineto
          -17 34 54 -28 95 hhcurveto
          112 101 83 142 68 -19 88 -142 21 hvcurveto
          -105 16 15 180 rlineto
          231 hlineto
          endchar
        </CharString>
        <CharString name="fivesuperior">
          -277 266 53 171 49 121 60 hstemhm
          64 238 -62 75 hintmask 11110000
          302 720 rmoveto
          -229 hlineto
          -17 -226 102 -8 rlineto
          hintmask 11101000
          60 -9 22 -22 -47 vvcurveto
          -41 -28 -48 -66 -26 -71 16 6 -21 vhcurveto
          -13 -45 rlineto
          -12 27 49 -18 59 hhcurveto
          91 74 56 92 50 -19 67 -102 8 hvcurveto
          -76 6 11 115 rlineto
          hintmask 11110000
          173 hlineto
          endchar
        </CharString>
        <CharString name="fl">
          -20 11 callgsubr
          81 79 hintmask 10111010
          486 736 rmoveto
          13 vlineto
          16 -37 -79 25 -61 hhcurveto
          -110 -79 -66 -134 hvcurveto
          -105 -2 vlineto
          -81 -9 rlineto
          hintmask 11011010
          -48 83 -330 vlineto
          -49 callsubr
          -57 -6 rlineto
          -54 260 53 vlineto
          -78 -75 callsubr
          330 vlineto
          hintmask 11010110
          128 67 hlineto
          hintmask 10111010
          -128 -10 rlineto
          158 vlineto
          50 25 27 57 75 32 -26 -18 20 vhcurveto
          -578 -24 callsubr
          -55 -6 rlineto
          -54 235 54 vlineto
          -55 6 rlineto
          -21 3 -2 7 28 vvcurveto
          638 vlineto
          endchar
        </CharString>
        <CharString name="florin">
          -216 -201 -21 565 67 275 70 hstem
          145 82 vstem
          63 397 rmoveto
          -54 82 -284 vlineto
          -144 -1 -35 -134 -51 vhcurveto
          41 -51 rlineto
          141 48 35 41 144 vvcurveto
          332 118 vlineto
          10 72 -128 -10 rlineto
          206 vlineto
          43 21 31 48 52 34 -23 -10 20 vhcurveto
          34 74 rlineto
          14 -24 -39 15 -45 hhcurveto
          -109 -74 -66 -134 hvcurveto
          -150 -2 vlineto
          endchar
        </CharString>
        <CharString name="four">
          -112 -143 -21 164 75 440 -20 hstem
          320 79 vstem
          475 75 rmoveto
          -76 175 -79 -175 -198 hlineto
          248 390 -48 50 -297 -441 41 -74 rlineto
          254 -164 79 164 76 hlineto
          endchar
        </CharString>
        <CharString name="foursuperior">
          -248 297 -21 100 54 297 -20 hstem
          235 63 vstem
          369 430 -49 callgsubr
          endchar
        </CharString>
        <CharString name="fraction">
          -447 21 -21 730 -20 hstem
          279 730 rmoveto
          -449 -730 rlineto
          60 hlineto
          450 730 rlineto
          endchar
        </CharString>
        <CharString name="franc">
          -35 0 228 -60 60 105 73 102 172 -73 73 hstemhm
          142 86 hintmask 01110100
          71 168 rmoveto
          71 -62 hlineto
          -90 callsubr
          -36 callgsubr
          hintmask 10110100
          -59 269 60 vlineto
          -71 8 rlineto
          -25 3 -5 10 25 vvcurveto
          hintmask 01101100
          62 139 vlineto
          10 60 rlineto
          -149 105 214 73 -214 201 222 -28 callgsubr
          hintmask 10110100
          6 -70 rlineto
          64 hlineto
          6 172 rlineto
          -504 -56 hlineto
          53 -6 rlineto
          23 -3 6 -10 -23 vvcurveto
          -354 -71 vlineto
          endchar
        </CharString>
        <CharString name="g">
          -31 callgsubr
          21 -20 hstemhm
          35 83 235 83 -47 79 hintmask 11111010
          477 512 -102 callgsubr
          hintmask 11111100
          -92 callgsubr
          endchar
        </CharString>
        <CharString name="gbreve">
          -31 callgsubr
          77 66 69 -20 hstemhm
          35 83 235 83 -47 79 hintmask 11111101
          477 512 -102 callgsubr
          hintmask 11111110
          -92 callgsubr
          -16 381 -98 callsubr
        </CharString>
        <CharString name="gcircumflex">
          -31 callgsubr
          237 -20 hstemhm
          35 83 235 83 -47 79 hintmask 11111010
          477 512 -102 callgsubr
          hintmask 11111100
          -92 callgsubr
          -153 406 -84 callgsubr
          endchar
        </CharString>
        <CharString name="gcommaaccent">
          -31 callgsubr
          62 112 102 -20 hstemhm
          35 83 52 122 61 83 -47 79 hintmask 1111111010000000
          170 621 rmoveto
          -36 19 -32 45 35 23 15 43 28 -15 26 -34 -6 -10 -1 -2 -5 vhcurveto
          26 33 34 32 21 vhcurveto
          -23 24 rlineto
          -46 -21 -48 -56 -69 vvcurveto
          307 -109 -102 callgsubr
          hintmask 1111111100000000
          -92 callgsubr
          endchar
        </CharString>
        <CharString name="gdotaccent">
          -31 callgsubr
          96 118 hstemhm
          35 83 58 118 59 83 -47 79 hintmask 11111101
          477 512 -102 callgsubr
          hintmask 11111110
          -92 callgsubr
          -59 322 rmoveto
          -93 callgsubr
          endchar
        </CharString>
        <CharString name="germandbls">
          -19 0 57 -41 -21 485 -20 260 70 hstemhm
          120 79 57 75 94 83 -17 79 hintmask 10111110
          46 471 rmoveto
          -10 -53 rlineto
          84 -320 hlineto
          -49 callsubr
          -57 -6 rlineto
          -54 159 606 vlineto
          33 3 29 15 20 vhcurveto
          19 14 32 13 45 hhcurveto
          73 44 -28 -73 hvcurveto
          -174 -169 67 -146 vvcurveto
          -75 37 -38 94 -35 vhcurveto
          hintmask 10111101
          62 -23 42 -23 -42 vvcurveto
          -57 -46 -16 -48 -31 -24 10 11 -23 vhcurveto
          -8 73 rlineto
          -56 hlineto
          -6 -121 rlineto
          hintmask 01111101
          -19 40 48 -16 65 hhcurveto
          88 80 54 96 76 -49 25 -90 40 hvcurveto
          -64 28 -36 9 58 vvcurveto
          hintmask 10111110
          88 177 -25 182 vvcurveto
          115 -73 49 -99 -135 -81 -78 -162 vhcurveto
          -70 -2 vlineto
          endchar
        </CharString>
        <CharString name="grave">
          -324 585 -21 198 -20 hstem
          45 702 -21 callsubr
          -69 callgsubr
        </CharString>
        <CharString name="grave.case">
          -361 775 -21 181 -20 hstem
          14 -81 callgsubr
          endchar
        </CharString>
        <CharString name="greater">
          -72 1 -21 520 -20 hstem
          90 500 rmoveto
          -35 -50 323 -210 -325 -210 37 -50 410 260 rlineto
          endchar
        </CharString>
        <CharString name="guillemotleft">
          -128 65 -21 386 -20 hstem
          205 44 -57 callgsubr
          326 -193 -57 callgsubr
          endchar
        </CharString>
        <CharString name="guillemotright">
          -128 65 -21 386 -20 hstem
          433 237 -57 callsubr
          -28 193 -57 callsubr
          endchar
        </CharString>
        <CharString name="guilsinglleft">
          -305 65 -21 386 -20 hstem
          205 44 -57 callgsubr
          endchar
        </CharString>
        <CharString name="guilsinglright">
          -305 65 -21 386 -20 hstem
          235 237 -57 callsubr
          endchar
        </CharString>
        <CharString name="h">
          10 21 -16 callgsubr
          290 -33 callsubr
          239 79 hintmask 11110100
          595 hmoveto
          -40 callsubr
          372 -159 -52 vlineto
          57 -6 rlineto
          hintmask 11101100
          17 callgsubr
          hintmask 11110100
          -55 -6 rlineto
          -54 240 53 vlineto
          -60 -75 callsubr
          241 vlineto
          37 20 49 40 65 hhcurveto
          65 40 -33 -59 hvcurveto
          -324 vlineto
          endchar
        </CharString>
        <CharString name="hbar">
          10 21 -16 callgsubr
          93 60 -60 197 hstemhm
          48 151 -79 79 239 79 hintmask 11101010
          595 hmoveto
          -40 callsubr
          175 202 60 -202 vlineto
          hintmask 11010110
          137 -159 -52 vlineto
          57 -6 rlineto
          -1 callsubr
          -9 -28 vvcurveto
          hintmask 11100110
          -40 vlineto
          hintmask 11101010
          -72 -60 hlineto
          hintmask 11100110
          72 -485 hlineto
          -49 callsubr
          -55 -6 rlineto
          -54 240 53 vlineto
          -60 -75 callsubr
          241 vlineto
          37 20 49 40 65 hhcurveto
          65 40 -33 -59 hvcurveto
          -324 vlineto
          endchar
        </CharString>
        <CharString name="hcircumflex">
          10 21 -16 callgsubr
          290 -20 153 -33 callsubr
          239 79 hintmask 11111010
          318 913 rmoveto
          -110 -135 39 -32 108 106 109 -106 38 32 -109 135 rlineto
          202 -913 rmoveto
          -40 callsubr
          372 -159 -52 vlineto
          57 -6 rlineto
          hintmask 11110110
          17 callgsubr
          hintmask 11111010
          -55 -6 rlineto
          -54 240 53 vlineto
          -60 -75 callsubr
          241 vlineto
          37 20 49 40 65 hhcurveto
          65 40 -33 -59 hvcurveto
          -324 vlineto
          endchar
        </CharString>
        <CharString name="hook">
          -366 599 -21 187 45 hstem
          155 60 vstem
          123 583 -62 callsubr
        </CharString>
        <CharString name="hungarumlaut">
          -203 576 -21 213 -20 hstem
          154 768 rmoveto
          -110 -203 rlineto
          -82 callsubr
        </CharString>
        <CharString name="hyphen">
          -221 214 75 hstem
          60 214 rmoveto
          276 75 -276 hlineto
          endchar
        </CharString>
        <CharString name="i">
          -23 callsubr
          136 118 -30 callsubr
          -110 110 -79 79 hintmask 11110000
          199 480 -46 callgsubr
          hintmask 11100100
          -72 callsubr
          8 555 rmoveto
          40 -8 21 -43 vhcurveto
          hintmask 11101000
          -55 -12 -21 -43 -37 14 -17 39 47 18 10 47 hvcurveto
          endchar
        </CharString>
        <CharString name="iacute">
          21 -20 callsubr
          74 198 -33 callsubr
          hintmask 11110000
          199 480 -46 callgsubr
          hintmask 11101000
          -72 callsubr
          36 654 -53 callgsubr
          -96 callgsubr
        </CharString>
        <CharString name="ibreve">
          -23 callsubr
          108 66 69 -33 callsubr
          hintmask 11111000
          220 703 rmoveto
          -35 -18 -33 -34 -41 hhcurveto
          -41 -33 34 35 -18 hvcurveto
          -44 -15 rlineto
          -65 18 46 -55 72 hhcurveto
          72 45 55 65 18 hvcurveto
          -64 -208 -46 callgsubr
          hintmask 11110100
          -76 callsubr
          hintmask 11111000
          -54 callgsubr
        </CharString>
        <CharString name="icircumflex">
          -23 callsubr
          268 -33 callsubr
          hintmask 11110000
          98 728 5 callgsubr
          35 -248 -46 callgsubr
          hintmask 11101000
          -72 callsubr
          endchar
        </CharString>
        <CharString name="idieresis">
          -23 callsubr
          120 112 hstemhm
          -8 112 -62 157 -79 79 -42 112 hintmask 11110100
          104 634 rmoveto
          38 -8 20 -40 -52 -12 -20 -41 vhcurveto
          hintmask 11101000
          -35 14 -16 36 vhcurveto
          hintmask 11110010
          45 17 10 44 hvcurveto
          165 hmoveto
          -103 callgsubr
          hintmask 11101000
          -70 -154 -46 callgsubr
          hintmask 11110100
          -76 callsubr
          hintmask 11101000
          -54 callgsubr
        </CharString>
        <CharString name="igrave">
          21 -20 callsubr
          74 198 -33 callsubr
          hintmask 11110000
          199 480 -46 callgsubr
          hintmask 11101000
          -72 callsubr
          -212 594 -21 callsubr
          -69 callgsubr
        </CharString>
        <CharString name="ij">
          -38 -229 -21 271 -16 callsubr
          136 118 -30 callsubr
          -110 110 -79 79 171 109 -79 79 hintmask 1111100100000000
          199 480 -46 callgsubr
          hintmask 1111001100000000
          -76 callsubr
          hintmask 1111100100000000
          -55 -6 rlineto
          -54 235 54 vlineto
          -55 6 rlineto
          -21 3 -2 7 28 vvcurveto
          8 555 rmoveto
          40 -8 21 -43 vhcurveto
          hintmask 1111010100000000
          -55 -12 -21 -43 -37 14 -17 39 47 18 10 47 hvcurveto
          281 hmoveto
          -93 callgsubr
          hintmask 1111100010000000
          -32 callsubr
        </CharString>
        <CharString name="imacron">
          -23 callsubr
          148 70 -25 callgsubr
          hintmask 11110000
          8 608 rmoveto
          237 hlineto
          10 70 rlineto
          -237 hlineto
          181 -198 -46 callgsubr
          hintmask 11101000
          -72 callsubr
          endchar
        </CharString>
        <CharString name="iogonek">
          -225 55 191 -16 callsubr
          136 118 -30 callsubr
          -114 66 -31 79 hintmask 11110100
          85 15 callgsubr
          hintmask 11111000
          -4 -14 -25 -9 -27 hhcurveto
          hintmask 11110100
          -31 -17 25 28 hvcurveto
          hintmask 11111000
          26 30 27 18 14 vhcurveto
          -28 callsubr
          3 54 hlineto
          -55 6 rlineto
          -21 3 -2 7 28 vvcurveto
          382 27 callgsubr
          hintmask 11110010
          -76 callsubr
          hintmask 11111000
          -55 -6 rlineto
          -54 148 vlineto
          hintmask 11110100
          -10 callgsubr
          122 779 rmoveto
          -93 callgsubr
          endchar
        </CharString>
        <CharString name="itilde">
          -23 callsubr
          114 70 -34 34 -25 callgsubr
          hintmask 11011000
          65 610 rmoveto
          hintmask 11101000
          40 40 -36 44 hhcurveto
          31 26 23 23 17 hvcurveto
          -15 40 rlineto
          -7 -12 -20 -9 -18 hhcurveto
          hintmask 11011000
          -36 -43 34 -47 hhcurveto
          -32 -22 -22 -24 -19 hvcurveto
          15 -42 rlineto
          9 14 16 11 21 hhcurveto
          134 -130 -46 callgsubr
          hintmask 11100100
          -76 callsubr
          hintmask 11101000
          -54 callgsubr
        </CharString>
        <CharString name="j">
          13 callsubr
          116 0 118 hstemhm
          80 109 -79 79 hintmask 10110000
          198 653 rmoveto
          -93 callgsubr
          hintmask 11001000
          -32 callsubr
        </CharString>
        <CharString name="jcircumflex">
          13 callsubr
          -20 268 -20 hstem
          110 79 vstem
          110 25 -74 callsubr
          -20 344 5 callgsubr
          endchar
        </CharString>
        <CharString name="k">
          -75 0 55 -44 -21 432 58 300 -33 callsubr
          hintmask 10110100
          120 98 rmoveto
          -25 callsubr
          hintmask 10111000
          -7 callgsubr
          hintmask 01111000
          17 callsubr
          hintmask 10111000
          -45 callgsubr
          hintmask 10110100
          -1 callsubr
          -8 -28 vvcurveto
          endchar
        </CharString>
        <CharString name="kcommaaccent">
          -75 -41 callgsubr
          36 55 -44 -21 432 58 300 -33 callsubr
          35 122 hintmask 1110110110000000
          120 98 rmoveto
          -25 callsubr
          hintmask 1110111010000000
          -7 callgsubr
          hintmask 1101111010000000
          17 callsubr
          hintmask 1110111010000000
          -45 callgsubr
          hintmask 1110110110000000
          -1 callsubr
          -8 -28 vvcurveto
          236 -788 -103 callsubr
          endchar
        </CharString>
        <CharString name="kgreenlandic">
          -102 11 -21 31 -16 callsubr
          hstemhm
          42 240 -162 79 hintmask 10101000
          199 240 rmoveto
          151 -190 rlineto
          -36 29 33 -24 42 hhcurveto
          28 16 6 7 13 hvcurveto
          4 53 rlineto
          -5 -10 -11 0 -10 hhcurveto
          -20 -25 16 44 -39 hvcurveto
          -125 142 146 142 rlineto
          23 23 21 1 26 hhcurveto
          61 -41 vlineto
          -22 -22 -7 -20 -19 hvcurveto
          -188 -195 rlineto
          135 vlineto
          1 19 4 6 18 2 rrcurveto
          hintmask 10110000
          60 7 rlineto
          53 -240 -54 vlineto
          0 callsubr
          hintmask 10101000
          18 -2 4 -6 1 -19 rrcurveto
          -295 vlineto
          -49 callsubr
          hintmask 01110000
          -55 -6 rlineto
          -54 240 53 vlineto
          -60 7 rlineto
          hintmask 10101000
          -93 callsubr
          endchar
        </CharString>
        <CharString name="l">
          21 -21 780 -33 callsubr
          hintmask 11100000
          18 callsubr
          hintmask 11010000
          -46 callsubr
          hintmask 11100000
          -3 callsubr
        </CharString>
        <CharString name="lacute">
          21 -21 780 30 181 -33 callsubr
          hintmask 11110000
          238 991 -100 callgsubr
          -245 -144 rmoveto
          -19 callsubr
          hintmask 11101000
          -46 callsubr
          hintmask 11110000
          -3 callsubr
        </CharString>
        <CharString name="lcaron">
          -238 21 -21 644 115 21 -33 callsubr
          50 129 hintmask 11110100
          378 -78 callsubr
          -336 90 rmoveto
          -19 callsubr
          hintmask 11101100
          -46 callsubr
          hintmask 11110100
          -3 callsubr
        </CharString>
        <CharString name="lcommaaccent">
          -41 callgsubr
          57 -21 780 -20 -30 callsubr
          -103 122 -98 79 hintmask 11111000
          18 callsubr
          hintmask 11110010
          -46 callsubr
          hintmask 11111000
          -55 -6 rlineto
          -54 235 54 vlineto
          -55 6 rlineto
          -21 3 -2 7 28 vvcurveto
          682 vlineto
          hintmask 11110100
          19 -884 -103 callsubr
          endchar
        </CharString>
        <CharString name="ldot">
          -238 21 -21 327 118 335 -33 callsubr
          75 118 hintmask 11110100
          18 callsubr
          hintmask 11101100
          -46 callsubr
          hintmask 11110100
          -55 -6 rlineto
          -54 235 54 vlineto
          -55 6 rlineto
          -21 3 -2 7 28 vvcurveto
          682 vlineto
          193 -396 -26 callgsubr
          endchar
        </CharString>
        <CharString name="less">
          -72 1 -21 520 -20 hstem
          455 -20 rmoveto
          35 50 -323 210 325 210 -37 50 -410 -260 rlineto
          endchar
        </CharString>
        <CharString name="lira">
          -57 22 callsubr
          158 55 53 55 210 79 hstemhm
          133 88 -71 83 231 66 hintmask 0011011101100000
          55 348 rmoveto
          83 hlineto
          5 -53 rlineto
          -93 -55 97 hlineto
          2 -29 1 -25 -18 -3 callgsubr
          hintmask 0100011101100000
          4 callgsubr
          hintmask 1000011101100000
          -25 -16 -17 -22 vhcurveto
          hintmask 0010111101100000
          9 callgsubr
          35 128 vlineto
          18 55 rlineto
          -148 hlineto
          -3 53 rlineto
          148 hlineto
          18 55 rlineto
          -169 hlineto
          hintmask 1000011110100000
          -3 42 -1 39 35 -14 callsubr
          -13 1 -18 1 -19 hvcurveto
          -80 hlineto
          endchar
        </CharString>
        <CharString name="logicalnot">
          -90 127 222 -68 68 hstemhm
          422 65 hintmask 10100000
          487 127 rmoveto
          222 -447 vlineto
          hintmask 01100000
          -68 382 vlineto
          hintmask 10100000
          -154 vlineto
          endchar
        </CharString>
        <CharString name="longs">
          -268 21 -21 720 70 hstem
          110 79 vstem
          110 98 rmoveto
          -49 callsubr
          -57 -6 rlineto
          -54 260 53 vlineto
          -78 -75 callsubr
          548 -15 callgsubr
          endchar
        </CharString>
        <CharString name="lslash">
          21 -21 780 -20 -30 callsubr
          -144 144 -79 79 -79 147 hintmask 11100000
          18 callsubr
          hintmask 11001000
          -1 callsubr
          -8 -26 vvcurveto
          -281 vlineto
          hintmask 11010000
          -65 -38 rlineto
          -68 vlineto
          hintmask 11001000
          65 38 rlineto
          -239 -24 callsubr
          hintmask 11100000
          -55 -6 rlineto
          -54 235 54 vlineto
          -55 6 rlineto
          -21 3 -2 7 28 vvcurveto
          285 vlineto
          hintmask 11000100
          68 40 rlineto
          69 vlineto
          hintmask 11100000
          -68 -40 rlineto
          328 vlineto
          endchar
        </CharString>
        <CharString name="m">
          297 25 callsubr
          225 79 222 79 hintmask 11011100
          -64 callgsubr
          hintmask 10111100
          -9 73 rlineto
          -147 -52 hlineto
          0 callsubr
          -65 callsubr
          -8 -21 -2 vhcurveto
          -55 -6 rlineto
          -54 240 53 vlineto
          -60 -75 callsubr
          endchar
        </CharString>
        <CharString name="macron">
          -241 618 70 hstem
          58 618 -62 callgsubr
        </CharString>
        <CharString name="minus">
          -101 201 68 hstem
          40 201 rmoveto
          436 68 -436 hlineto
          endchar
        </CharString>
        <CharString name="mu">
          -12 -229 -21 240 74 416 -20 hstemhm
          100 59 -59 79 233 79 hintmask 11110100
          205 -227 rmoveto
          -16 59 -26 103 -4 87 rrcurveto
          -20 25 32 -12 38 hhcurveto
          76 55 47 39 33 hvcurveto
          -66 5 53 -20 30 hhcurveto
          23 26 10 5 12 hvcurveto
          10 56 rlineto
          -4 -9 -15 -2 -15 hhcurveto
          -26 -21 13 32 hvcurveto
          380 -79 -341 vlineto
          -17 -9 -55 -58 -71 hhcurveto
          hintmask 11101100
          -65 -33 35 61 hvcurveto
          320 -79 -303 vlineto
          -69 1 -81 -15 vvcurveto
          -112 8 -101 11 -49 vhcurveto
          endchar
        </CharString>
        <CharString name="multiply">
          -139 57 -21 395 -20 hstem
          88 36 rmoveto
          151 151 146 -148 45 46 -145 148 150 150 -46 45 -151 -148 -148 151 -46 -46 148 -151 -149 -146 rlineto
          endchar
        </CharString>
        <CharString name="n">
          10 25 callsubr
          239 79 hintmask 11011000
          595 hmoveto
          -70 callsubr
          hintmask 10111000
          -9 72 rlineto
          -147 -52 hlineto
          0 callsubr
          -65 callsubr
          -8 -21 -2 vhcurveto
          -55 -6 rlineto
          -54 240 53 vlineto
          -60 -75 callsubr
          242 vlineto
          hintmask 11011000
          -51 callgsubr
          endchar
        </CharString>
        <CharString name="nacute">
          10 -4 callsubr
          198 -20 29 callgsubr
          hintmask 11001110
          595 hmoveto
          -70 callsubr
          hintmask 10111110
          -9 72 rlineto
          -147 -52 hlineto
          0 callsubr
          -65 callsubr
          -8 -21 -2 vhcurveto
          -55 -6 rlineto
          -54 240 53 vlineto
          -60 -75 callsubr
          242 vlineto
          hintmask 11001110
          -51 callgsubr
          -53 752 -53 callgsubr
          hintmask 10111110
          -96 callgsubr
        </CharString>
        <CharString name="napostrophe">
          2 callgsubr
          184 115 hstemhm
          15 129 -24 79 239 79 hintmask 11011010
          144 -78 callsubr
          451 -690 rmoveto
          -70 callsubr
          hintmask 10110110
          -9 72 rlineto
          -147 -52 hlineto
          0 callsubr
          -65 callsubr
          -8 -21 -2 vhcurveto
          -55 -6 rlineto
          -54 240 53 vlineto
          -60 -75 callsubr
          242 vlineto
          hintmask 11011010
          -51 callgsubr
          endchar
        </CharString>
        <CharString name="ncaron">
          10 21 callsubr
          74 182 -20 29 callgsubr
          hintmask 11001110
          595 hmoveto
          -70 callsubr
          hintmask 10111110
          -9 72 rlineto
          -147 -52 hlineto
          0 callsubr
          -65 callsubr
          -8 -21 -2 vhcurveto
          -55 -6 rlineto
          -54 240 53 vlineto
          -60 -75 callsubr
          242 vlineto
          hintmask 11001110
          -51 callgsubr
          hintmask 10111110
          -86 564 -83 callsubr
        </CharString>
        <CharString name="ncommaaccent">
          10 -41 callgsubr
          57 -32 callgsubr
          hstemhm
          120 79 69 122 48 79 hintmask 11110111
          595 hmoveto
          -70 callsubr
          hintmask 11101111
          -9 72 rlineto
          -147 -52 hlineto
          0 callsubr
          -65 callsubr
          -8 -21 -2 vhcurveto
          -55 -6 rlineto
          -54 240 53 vlineto
          -60 -75 callsubr
          242 vlineto
          hintmask 11110111
          -51 callgsubr
          -48 -104 -103 callsubr
          endchar
        </CharString>
        <CharString name="nine">
          -100 -250 65 255 71 301 69 hstem
          28 86 263 92 vstem
          28 283 rmoveto
          -124 74 -89 124 63 54 23 51 35 vhcurveto
          -184 -20 -151 -145 -140 hhcurveto
          15 -65 rlineto
          51 83 12 77 88 hvcurveto
          125 109 40 156 150 vvcurveto
          151 -78 106 -150 -122 -91 -75 -153 vhcurveto
          86 -6 rmoveto
          87 28 78 93 100 42 -69 -88 -45 -7 -30 -11 -16 vhcurveto
          -23 -15 -43 -30 -57 hhcurveto
          -107 -23 73 63 hvcurveto
          endchar
        </CharString>
        <CharString name="ninesuperior">
          -252 260 54 105 52 202 52 hstem
          20 67 195 68 vstem
          20 563 rmoveto
          -89 57 -55 77 54 41 14 39 29 vhcurveto
          -22 -81 -62 -68 -129 -9 3 -54 rcurveline
          73 4 84 21 55 63 rrcurveto
          47 54 23 76 70 vvcurveto
          87 -37 90 -126 -101 -66 -65 -97 vhcurveto
          67 8 rmoveto
          52 27 50 59 71 38 -35 -67 -38 -11 -15 -10 -12 vhcurveto
          -19 -16 -27 -16 -28 hhcurveto
          -81 -22 40 60 hvcurveto
          endchar
        </CharString>
        <CharString name="nsuperior">
          -229 454 -21 251 46 -5 -20 hstemhm
          74 53 138 53 hintmask 11011000
          364 433 rmoveto
          37 vlineto
          -33 4 rlineto
          -11 1 -2 5 16 vvcurveto
          149 vlineto
          43 -21 42 -69 -58 -26 -27 -18 -17 vhcurveto
          hintmask 10111000
          -6 40 rlineto
          -93 -31 hlineto
          33 -4 rlineto
          12 -1 1 -5 -17 vvcurveto
          -171 vlineto
          -16 -1 -5 -12 -1 vhcurveto
          -33 -4 rlineto
          -37 149 37 vlineto
          -36 4 rlineto
          -12 1 -2 5 16 vvcurveto
          142 vlineto
          hintmask 11011000
          21 12 26 25 40 hhcurveto
          36 24 -20 -36 hvcurveto
          -195 vlineto
          endchar
        </CharString>
        <CharString name="ntilde">
          2 callgsubr
          124 71 -34 34 29 callgsubr
          hintmask 11010110
          595 hmoveto
          -70 callsubr
          hintmask 10110110
          -9 72 rlineto
          -147 -52 hlineto
          0 callsubr
          -65 callsubr
          -8 -21 -2 vhcurveto
          -55 -6 rlineto
          -54 240 53 vlineto
          -60 -75 callsubr
          242 vlineto
          hintmask 11001110
          -51 callgsubr
          -194 621 rmoveto
          hintmask 11010110
          -84 callsubr
          hintmask 11001110
          -86 callsubr
        </CharString>
        <CharString name="numbersign">
          -25 10 192 -62 62 150 61 -61 217 hstemhm
          hintmask 10100000
          381 10 rmoveto
          hintmask 01100000
          23 130 rlineto
          121 62 -110 hlineto
          26 150 rlineto
          111 61 -100 15 callsubr
          -125 15 callsubr
          -124 -61 113 hlineto
          -26 -150 rlineto
          -114 hlineto
          hintmask 01100000
          -62 103 vlineto
          hintmask 10100000
          -23 -130 rlineto
          68 hlineto
          hintmask 01100000
          23 130 rlineto
          125 hlineto
          hintmask 10100000
          -23 -130 rlineto
          -65 342 rmoveto
          125 hlineto
          -26 -150 rlineto
          -125 hlineto
          endchar
        </CharString>
        <CharString name="o">
          -9 callgsubr
          hstem
          -18 callgsubr
          vstem
          -106 callsubr
          endchar
        </CharString>
        <CharString name="oacute">
          -9 callgsubr
          0 64 8 callgsubr
          -18 callgsubr
          hintmask 11011100
          -106 callsubr
          124 328 -53 callgsubr
          hintmask 10111100
          -96 callgsubr
        </CharString>
        <CharString name="obreve">
          -9 callgsubr
          78 66 69 -20 hstem
          -18 callgsubr
          vstem
          -106 callsubr
          110 279 -98 callsubr
        </CharString>
        <CharString name="ocircumflex">
          -9 callgsubr
          238 -20 hstem
          -18 callgsubr
          vstem
          -106 callsubr
          -27 304 -84 callgsubr
          endchar
        </CharString>
        <CharString name="odieresis">
          -9 callgsubr
          90 112 hstemhm
          40 86 -14 -27 callsubr
          -12 86 hintmask 11110010
          -106 callsubr
          hintmask 11101100
          -39 210 rmoveto
          -103 callgsubr
          205 hmoveto
          -103 callgsubr
          endchar
        </CharString>
        <CharString name="oe">
          237 -10 66 368 66 hstem
          7 callsubr
          76 243 79 vstem
          815 242 rmoveto
          152 -33 96 -152 -78 -59 -31 -51 -37 vhcurveto
          50 -29 -54 32 -85 hhcurveto
          -180 -68 -135 -115 -145 60 -105 155 90 61 33 50 38 hvcurveto
          -52 33 54 -31 81 1 callsubr
          -3 hvcurveto
          -230 205 rmoveto
          100 54 -69 -111 -53 -12 -77 -30 -30 hvcurveto
          -18 -18 -32 -10 -45 hhcurveto
          -100 -54 69 111 53 12 77 30 30 hvcurveto
          18 18 32 10 45 hhcurveto
          229 -145 rmoveto
          116 13 12 29 109 hhcurveto
          94 16 -63 -61 hvcurveto
          endchar
        </CharString>
        <CharString name="ogonek">
          -377 -225 55 -55 225 hstemhm
          29 66 hintmask 10100000
          29 -126 rmoveto
          -74 callgsubr
          hintmask 01100000
          -28 callsubr
          -84 hlineto
          -10 callgsubr
          endchar
        </CharString>
        <CharString name="ograve">
          -9 callgsubr
          0 64 8 callgsubr
          -18 callgsubr
          hintmask 11011100
          -106 callsubr
          -154 268 -21 callsubr
          hintmask 10111100
          -69 callgsubr
        </CharString>
        <CharString name="ohorn">
          -35 -10 66 368 66 95 -20 hstemhm
          -18 callgsubr
          -1 82 hintmask 11111000
          503 240 rmoveto
          59 -10 53 -23 41 vhcurveto
          hintmask 11110100
          60 23 54 41 73 -22 callsubr
          -50 -26 -25 -35 -13 vhcurveto
          35 -35 -50 21 -68 hhcurveto
          -180 -68 -135 -115 -145 60 -105 155 hvcurveto
          hintmask 11111000
          180 68 135 115 hvcurveto
          -240 184 rmoveto
          100 54 -69 -111 -53 -12 -77 -30 -30 hvcurveto
          -18 -18 -32 -10 -45 hhcurveto
          -100 -54 69 111 53 12 77 30 30 hvcurveto
          18 18 32 10 45 hhcurveto
          endchar
        </CharString>
        <CharString name="ohungarumlaut">
          -9 callgsubr
          0 65 213 -20 hstemhm
          -18 callgsubr
          hintmask 11011100
          -106 callsubr
          -9 344 -30 callgsubr
          hintmask 10111100
          -82 callsubr
        </CharString>
        <CharString name="omacron">
          -9 callgsubr
          118 70 hstem
          -18 callgsubr
          vstem
          -106 callsubr
          -127 184 -62 callgsubr
        </CharString>
        <CharString name="one">
          -257 21 -21 505 -20 hstemhm
          52 179 vstemhm
          231 505 rmoveto
          -52 hlineto
          -127 -65 rlineto
          -72 vlineto
          hintmask 11100000
          100 45 rlineto
          -308 vlineto
          -28 -3 -8 -21 -3 vhcurveto
          -80 -7 rlineto
          -59 282 59 vlineto
          -75 7 rlineto
          -21 2 -3 9 28 vvcurveto
          endchar
        </CharString>
        <CharString name="onehalf">
          254 0 60 334 53 283 -20 hstemhm
          45 159 562 75 -13 callgsubr
          hintmask 11111000
          -48 callsubr
          637 -304 -50 callgsubr
          -217 730 -6 callsubr
          endchar
        </CharString>
        <CharString name="onequarter">
          157 21 -21 100 54 576 -20 hstemhm
          45 159 436 63 -13 callgsubr
          hintmask 11111000
          -48 callsubr
          420 366 -6 callsubr
          90 -576 -49 callgsubr
          endchar
        </CharString>
        <CharString name="onesuperior">
          -312 296 -21 444 -20 hstemhm
          45 159 -13 callgsubr
          hintmask 11100000
          -48 callsubr
          endchar
        </CharString>
        <CharString name="ordfeminine">
          -289 325 56 46 50 214 39 hstem
          25 58 -42 217 -53 53 vstem
          258 648 rmoveto
          60 -53 22 -59 -38 -23 -5 -16 -46 vhcurveto
          4 -74 rlineto
          37 hlineto
          8 43 rlineto
          5 13 21 8 21 hhcurveto
          34 28 -13 -36 hvcurveto
          -29 vlineto
          -94 -14 rlineto
          -56 -8 -30 -33 -49 vvcurveto
          -49 32 -33 48 36 37 19 34 30 vhcurveto
          5 -47 rlineto
          91 37 hlineto
          -32 4 rlineto
          -12 1 -2 5 16 vvcurveto
          -53 74 rmoveto
          -45 vlineto
          -16 -16 -35 -32 -30 hhcurveto
          -25 -16 12 24 25 17 16 25 4 hvcurveto
          -93 -233 rmoveto
          267 56 -267 hlineto
          endchar
        </CharString>
        <CharString name="ordmasculine">
          -286 325 56 46 45 213 45 hstem
          25 58 165 58 vstem
          32 325 rmoveto
          267 56 -267 hlineto
          274 197 rmoveto
          88 -36 64 -94 -110 -41 -82 -70 -88 36 -63 94 110 41 82 69 vhcurveto
          -146 107 rmoveto
          58 30 -40 -65 -30 -5 -46 -18 -17 hvcurveto
          -10 -11 -18 -5 -25 hhcurveto
          -58 -30 40 64 31 6 45 17 17 hvcurveto
          11 11 18 5 25 hhcurveto
          endchar
        </CharString>
        <CharString name="oslash">
          -74 -33 -21 44 66 368 66 42 -20 hstem
          -18 callgsubr
          vstem
          -70 callgsubr
          endchar
        </CharString>
        <CharString name="oslashacute">
          -74 -33 -21 44 66 368 66 0 64 8 callgsubr
          -18 callgsubr
          hintmask 11101110
          -70 callgsubr
          109 328 -53 callgsubr
          hintmask 11011110
          -96 callgsubr
        </CharString>
        <CharString name="otilde">
          -9 callgsubr
          84 34 callsubr
          -18 callgsubr
          hintmask 11011100
          -106 callsubr
          -64 187 rmoveto
          hintmask 11101100
          -84 callsubr
          hintmask 11011100
          -86 callsubr
        </CharString>
        <CharString name="p">
          -48 19 callsubr
          -10 -20 hstemhm
          110 79 255 86 hintmask 11101100
          189 355 -22 callgsubr
          -79 -236 rmoveto
          -49 callsubr
          -57 -6 rlineto
          -54 255 53 vlineto
          -73 -75 callsubr
          153 vlineto
          -8 15 45 -13 39 hhcurveto
          137 105 106 155 141 -64 98 -118 -100 -44 -54 -20 -17 hvcurveto
          hintmask 11011100
          -8 64 rlineto
          -147 -52 hlineto
          0 callsubr
          -1 callsubr
          -8 -28 vvcurveto
          endchar
        </CharString>
        <CharString name="paragraph">
          -51 -143 -21 884 -20 hstem
          253 77 69 77 vstem
          253 -164 rmoveto
          77 884 -77 hlineto
          -175 -43 -88 -134 -129 55 -59 163 hvcurveto
          146 -474 rmoveto
          77 884 -77 hlineto
          endchar
        </CharString>
        <CharString name="parenleft">
          -304 -189 -21 995 -20 hstem
          60 88 vstem
          289 -169 rmoveto
          -110 150 -31 194 111 vvcurveto
          111 32 193 110 150 vhcurveto
          -47 45 rlineto
          -83 -91 -100 -188 -218 vvcurveto
          -218 100 -190 82 -90 vhcurveto
          endchar
        </CharString>
        <CharString name="parenright">
          -304 -189 -21 995 -20 hstem
          165 88 vstem
          71 -210 rmoveto
          82 90 100 190 218 vvcurveto
          218 -100 188 -83 91 vhcurveto
          -47 -45 rlineto
          110 -150 32 -193 -111 vvcurveto
          -111 -31 -194 -110 -150 vhcurveto
          endchar
        </CharString>
        <CharString name="percent">
          55 -12 50 -40 -21 220 53 67 53 158 51 16 -20 hstemhm
          67 61 135 61 25 61 135 61 hintmask 0111101111000000
          324 447 rmoveto
          70 -44 62 -79 -90 -44 -68 -66 33 callsubr
          9 rmoveto
          -49 -19 -37 -44 -42 -30 32 33 callgsubr
          -92 -479 rmoveto
          378 582 rlineto
          hintmask 0111011111000000
          -51 36 -379 -582 rlineto
          487 105 rmoveto
          70 -44 62 -79 -90 -44 -68 -66 vhcurveto
          hintmask 1011101111000000
          33 callsubr
          7 rmoveto
          -49 -19 -38 -44 -42 -30 33 33 callgsubr
          endchar
        </CharString>
        <CharString name="period">
          -389 -6 -17 callgsubr
          endchar
        </CharString>
        <CharString name="periodcentered">
          -399 227 118 hstem
          50 118 vstem
          168 284 -26 callgsubr
          endchar
        </CharString>
        <CharString name="peseta">
          597 0 52 -52 146 -135 -21 259 70 64 62 -42 57 150 70 hstemhm
          144 86 231 97 52 79 -79 212 23 78 174 81 hintmask 1001011111011000
          1012 460 rmoveto
          -87 -80 -37 -92 -76 36 -33 104 -35 hvcurveto
          67 -17 45 -23 -32 vvcurveto
          -49 -49 -14 -52 -32 -26 10 11 -24 vhcurveto
          hintmask 0101101111011000
          -9 73 rlineto
          -60 hlineto
          -5 -82 rlineto
          -6 -17 -24 -5 -14 24 callgsubr
          187 vlineto
          hintmask 1001101110111000
          133 67 hlineto
          hintmask 1001101111011000
          -133 -10 rlineto
          107 vlineto
          -79 -18 rlineto
          -89 vlineto
          -60 -7 rlineto
          5 19 3 20 22 vvcurveto
          148 -93 38 -140 vhcurveto
          21 callgsubr
          -468 -52 callgsubr
          289 60 vlineto
          -91 8 rlineto
          -24 2 -6 11 25 vvcurveto
          143 72 vlineto
          94 96 49 90 43 hvcurveto
          -5 75 -202 vlineto
          hintmask 0011011111011000
          6 callgsubr
          35 59 13 18 22 vhcurveto
          -18 41 47 -13 67 hhcurveto
          93 83 50 90 66 -51 27 -91 32 hvcurveto
          -69 24 -44 15 46 vvcurveto
          51 36 12 45 24 18 -2 -13 31 vhcurveto
          14 -73 rlineto
          58 hlineto
          7 117 rlineto
          14 -42 -52 14 -50 hhcurveto
          -782 150 rmoveto
          86 hlineto
          77 68 -26 -100 -76 -15 -38 -34 -25 hvcurveto
          -24 -31 -43 -2 -39 hhcurveto
          -69 hlineto
          endchar
        </CharString>
        <CharString name="plus">
          -101 31 -21 191 68 197 -20 hstem
          221 68 vstem
          289 10 rmoveto
          191 187 68 -187 197 -68 -197 -181 -68 181 -191 vlineto
          endchar
        </CharString>
        <CharString name="plusminus">
          -101 14 68 227 68 177 -20 hstem
          221 68 vstem
          289 138 rmoveto
          171 187 68 -187 177 -68 -177 -181 -68 181 -171 vlineto
          -181 -124 rmoveto
          436 68 -436 hlineto
          endchar
        </CharString>
        <CharString name="q">
          -57 19 callsubr
          hstem
          39 86 256 79 vstem
          381 119 rmoveto
          -20 -8 -44 -43 -68 hhcurveto
          -84 -52 57 126 62 16 72 33 26 hvcurveto
          16 20 36 9 33 hhcurveto
          40 57 -11 -13 21 hvcurveto
          -542 vmoveto
          -49 callsubr
          -73 -7 rlineto
          -53 253 54 vlineto
          -55 6 -92 callsubr
          622 vlineto
          -79 -12 rlineto
          5 -24 -32 17 -53 hhcurveto
          -150 -83 -111 -159 -143 76 -87 107 97 43 44 22 19 hvcurveto
          endchar
        </CharString>
        <CharString name="question">
          -167 -11 124 457 159 -59 59 hstemhm
          134 124 -108 75 135 81 hintmask 11001100
          360 577 rmoveto
          -154 -210 -2 -112 vvcurveto
          -63 8 -39 2 -32 vhcurveto
          60 7 5 87 rlineto
          7 114 209 -19 213 vvcurveto
          82 -50 70 -143 -70 -65 -17 -15 -45 vhcurveto
          11 -127 rlineto
          64 hlineto
          10 79 rlineto
          hintmask 10110100
          9 22 36 12 43 hhcurveto
          89 17 -49 -44 hvcurveto
          -226 -524 rmoveto
          -45 7 -19 46 60 11 19 49 42 -13 14 -41 -53 -17 -10 -50 vhcurveto
          endchar
        </CharString>
        <CharString name="questiondown">
          -178 -249 59 -59 159 457 124 hstemhm
          38 81 102 124 -91 75 hintmask 01110100
          119 -97 rmoveto
          154 210 2 112 vvcurveto
          63 -8 39 -2 32 vhcurveto
          -60 -7 -5 -87 rlineto
          -7 -114 -209 19 -213 vvcurveto
          -82 50 -70 143 70 65 17 15 45 vhcurveto
          -11 127 rlineto
          -64 hlineto
          -10 -79 rlineto
          hintmask 10111000
          -9 -22 -36 -12 -43 hhcurveto
          -89 -17 49 44 hvcurveto
          226 524 rmoveto
          45 -7 19 -46 -60 -11 -19 -49 -42 13 -14 41 53 17 10 50 vhcurveto
          endchar
        </CharString>
        <CharString name="quotedbl">
          -251 558 -21 253 -20 hstem
          64 75 87 75 vstem
          147 746 3 callgsubr
          177 209 3 callgsubr
          endchar
        </CharString>
        <CharString name="quotedblbase">
          -201 -114 -21 248 -20 hstem
          50 126 65 126 vstem
          176 26 rmoveto
          -47 callgsubr
          191 hmoveto
          -47 callgsubr
          endchar
        </CharString>
        <CharString name="quotedblleft">
          -197 11 callsubr
          49 131 59 131 vstem
          49 616 rmoveto
          -47 callsubr
          190 hmoveto
          -47 callsubr
          endchar
        </CharString>
        <CharString name="quotedblright">
          -198 11 callsubr
          50 131 59 131 vstem
          371 703 rmoveto
          -48 callgsubr
          -190 hmoveto
          -48 callgsubr
          endchar
        </CharString>
        <CharString name="quoteleft">
          -387 11 callsubr
          49 131 vstem
          49 616 rmoveto
          -47 callsubr
          endchar
        </CharString>
        <CharString name="quoteright">
          -388 11 callsubr
          50 131 vstem
          181 703 rmoveto
          -48 callgsubr
          endchar
        </CharString>
        <CharString name="quotesinglbase">
          -392 -114 -21 248 -20 hstem
          50 126 vstem
          176 26 rmoveto
          -47 callgsubr
          endchar
        </CharString>
        <CharString name="quotesingle">
          -413 558 -21 253 -20 hstem
          52 100 vstem
          132 537 rmoveto
          15 145 5 69 2 vvcurveto
          24 -14 13 -36 -32 -18 -11 -26 -2 6 -69 14 -145 vhcurveto
          endchar
        </CharString>
        <CharString name="r">
          -177 25 callsubr
          hintmask 11010000
          -85 callsubr
          hintmask 10110000
          -36 callsubr
          endchar
        </CharString>
        <CharString name="racute">
          -177 -4 callsubr
          8 callgsubr
          120 79 hintmask 11001100
          -85 callsubr
          hintmask 10111100
          -36 callsubr
          196 368 -53 callgsubr
          -96 callgsubr
        </CharString>
        <CharString name="rcaron">
          -177 -4 callsubr
          182 -20 hstemhm
          120 79 hintmask 11001100
          -85 callsubr
          hintmask 10111100
          -36 callsubr
          174 170 -83 callsubr
        </CharString>
        <CharString name="rcommaaccent">
          -177 -41 callgsubr
          57 -32 callgsubr
          hstemhm
          93 122 -95 79 hintmask 11110010
          -85 callsubr
          hintmask 11101010
          -36 callsubr
          hintmask 11110100
          95 -488 -103 callsubr
          endchar
        </CharString>
        <CharString name="registered">
          -97 364 37 50 230 47 37 hstem
          54 37 103 33 66 35 90 37 vstem
          54 564 rmoveto
          -112 88 -88 112 113 88 88 112 113 -88 88 -113 -112 -88 -88 -113 vhcurveto
          37 hmoveto
          91 73 73 90 91 73 -73 -91 -90 -73 -73 -91 -90 -73 73 90 vhcurveto
          136 89 rmoveto
          19 hlineto
          30 17 -6 -27 -24 -5 -7 -7 -4 hvcurveto
          -8 -6 -12 -2 -10 hhcurveto
          -26 hlineto
          -32 vmoveto
          6 hlineto
          10 9 -4 -7 4 hvcurveto
          37 -53 rlineto
          -17 11 13 -13 14 hhcurveto
          14 6 2 1 5 hvcurveto
          2 24 rlineto
          -1 -3 -4 -1 -4 hhcurveto
          -10 -6 7 12 -9 hvcurveto
          -28 38 -7 10 -7 9 -11 3 rlinecurve
          16 5 43 12 48 vvcurveto
          48 -31 15 -43 vhcurveto
          -85 -23 hlineto
          17 -2 rlineto
          5 -2 3 -4 -9 vvcurveto
          -153 vlineto
          -9 -3 -3 -5 -2 vhcurveto
          -17 -3 rlineto
          -20 86 20 vlineto
          -21 3 rlineto
          -5 1 -2 4 9 vvcurveto
          endchar
        </CharString>
        <CharString name="ring">
          -306 565 47 92 48 hstem
          60 50 91 50 vstem
          251 660 -96 callsubr
          endchar
        </CharString>
        <CharString name="s">
          -177 -10 28 callgsubr
          hstemhm
          50 78 194 81 hintmask 10111000
          -79 callsubr
          hintmask 01111000
          -91 callgsubr
          endchar
        </CharString>
        <CharString name="sacute">
          -177 -10 62 381 57 0 64 8 callgsubr
          50 78 194 81 hintmask 11011100
          -79 callsubr
          -91 callgsubr
          76 262 -53 callgsubr
          hintmask 10111100
          -96 callgsubr
        </CharString>
        <CharString name="scaron">
          -177 -10 62 381 57 0 64 182 -20 hstemhm
          50 78 194 81 hintmask 11011100
          -79 callsubr
          -91 callgsubr
          hintmask 10111100
          34 64 -83 callsubr
        </CharString>
        <CharString name="scedilla">
          -177 -230 46 175 61 381 57 hstem
          50 78 122 63 9 81 vstem
          -79 callsubr
          -9 73 rlineto
          -60 hlineto
          -7 -121 39 -16 43 -14 58 -4 rlinecurve
          -15 -83 37 -8 rlineto
          -91 callsubr
          53 vlineto
          92 5 79 53 91 vvcurveto
          76 -52 32 -100 33 vhcurveto
          -75 25 -48 18 46 vvcurveto
          51 40 12 51 27 21 -2 -13 35 vhcurveto
          14 -73 rlineto
          58 hlineto
          7 117 rlineto
          14 -45 -55 14 -54 hhcurveto
          endchar
        </CharString>
        <CharString name="scircumflex">
          -177 -10 28 callgsubr
          238 -20 hstemhm
          50 78 194 81 hintmask 10111100
          -79 callsubr
          hintmask 01111100
          -91 callgsubr
          -42 238 -84 callgsubr
          endchar
        </CharString>
        <CharString name="scommaaccent">
          -177 -41 callgsubr
          26 28 callgsubr
          hstemhm
          50 78 31 122 41 81 hintmask 11101111
          -79 callsubr
          hintmask 11011111
          -91 callgsubr
          54 -594 -103 callsubr
          endchar
        </CharString>
        <CharString name="section">
          -107 -162 66 -66 188 544 160 -62 62 hstemhm
          62 86 214 86 -64 86 hintmask 01101100
          117 26 rmoveto
          -62 hlineto
          -15 -142 rlineto
          -23 44 65 -23 90 hhcurveto
          114 95 65 103 70 -25 39 -38 27 hvcurveto
          hintmask 10011010
          64 50 21 33 62 vvcurveto
          104 -82 29 -58 26 vhcurveto
          -85 32 rlineto
          -72 26 -25 27 48 vvcurveto
          62 36 27 63 35 31 -6 -15 34 vhcurveto
          hintmask 10101100
          12 -77 rlineto
          62 hlineto
          11 137 rlineto
          14 -56 -58 9 -58 hhcurveto
          -134 -64 -67 -94 -67 30 -47 46 -30 hvcurveto
          -63 -56 -20 -17 -67 vvcurveto
          -73 38 -40 72 -30 vhcurveto
          102 -43 rlineto
          75 -32 20 -26 -41 vvcurveto
          -61 -52 -35 -66 -56 -31 16 18 -31 vhcurveto
          hintmask 01101010
          15 364 rmoveto
          35 15 25 41 36 vhcurveto
          88 -33 rlineto
          69 -26 30 -24 -45 vvcurveto
          -37 -12 -24 -46 -35 vhcurveto
          -23 10 -72 29 rlineto
          -68 27 -22 23 39 vvcurveto
          endchar
        </CharString>
        <CharString name="semicolon">
          -387 -116 -21 130 120 249 128 -35 callsubr
          1 386 rmoveto
          3 callsubr
        </CharString>
        <CharString name="seven">
          -169 -156 -21 510 171 -77 77 hstemhm
          hintmask 11000000
          118 -177 rmoveto
          24 44 187 368 26 51 rrcurveto
          60 119 10 23 54 vvcurveto
          22 -405 vlineto
          9 -171 rlineto
          63 hlineto
          6 67 rlineto
          hintmask 10100000
          24 2 11 3 25 hhcurveto
          200 hlineto
          -22 -88 -201 -364 -63 -110 rrcurveto
          endchar
        </CharString>
        <CharString name="sevensuperior">
          -260 273 -21 410 58 hstem
          138 252 rmoveto
          33 55 130 267 26 50 rrcurveto
          18 34 4 20 26 vvcurveto
          16 -307 vlineto
          7 -122 rlineto
          52 hlineto
          4 46 rlineto
          17 2 7 1 17 hhcurveto
          144 hlineto
          -14 -59 -145 -249 -44 -74 rrcurveto
          endchar
        </CharString>
        <CharString name="six">
          -89 -10 68 302 69 239 62 hstem
          44 92 264 86 vstem
          486 211 rmoveto
          131 -67 87 -129 -61 -49 -12 -57 -45 vhcurveto
          22 146 118 155 164 7 rrcurveto
          62 vlineto
          -62 -98 -13 -93 -96 hvcurveto
          -103 -101 -36 -117 -149 vvcurveto
          -132 53 -135 159 142 88 85 136 vhcurveto
          -86 2 rmoveto
          -81 -35 -74 -89 -89 -50 59 99 -1 vhcurveto
          51 14 30 15 20 vhcurveto
          20 15 40 23 51 hhcurveto
          105 24 -70 -77 hvcurveto
          endchar
        </CharString>
        <CharString name="sixsuperior">
          -244 266 53 201 52 102 52 hstem
          24 68 194 67 vstem
          353 428 rmoveto
          87 -52 57 -91 -41 -46 -14 -37 -27 vhcurveto
          95 25 71 58 121 hhcurveto
          52 vlineto
          -73 -83 -13 -63 -58 hvcurveto
          -48 -52 -27 -65 -90 vvcurveto
          -85 38 -92 120 108 63 61 101 vhcurveto
          -67 -7 rmoveto
          -59 -28 -43 -64 -65 -37 39 65 35 11 19 12 11 vhcurveto
          16 12 29 16 35 hhcurveto
          75 20 -43 -56 hvcurveto
          endchar
        </CharString>
        <CharString name="slash">
          -204 -123 -21 864 -20 hstem
          324 720 rmoveto
          -304 -864 rlineto
          76 hlineto
          304 864 rlineto
          endchar
        </CharString>
        <CharString name="space">
          -362 endchar
        </CharString>
        <CharString name="sterling">
          -23 22 callsubr
          200 60 271 79 hstemhm
          138 88 -71 83 231 66 hintmask 0011011011000000
          62 282 rmoveto
          87 hlineto
          3 -45 3 -43 -26 -3 callgsubr
          hintmask 0100011011000000
          4 callgsubr
          hintmask 1000011011000000
          -25 -16 -17 -22 vhcurveto
          hintmask 0010111011000000
          9 callgsubr
          26 -1 25 -1 26 vhcurveto
          140 hlineto
          18 60 rlineto
          -160 hlineto
          hintmask 1000011101000000
          -4 64 -4 61 52 -14 callsubr
          -25 2 -42 4 -44 hvcurveto
          -82 hlineto
          endchar
        </CharString>
        <CharString name="t">
          -263 -10 63 370 18 callgsubr
          hintmask 11110000
          20 423 rmoveto
          75 -242 -45 callsubr
          227 vlineto
          hintmask 11101000
          133 67 hlineto
          hintmask 11110000
          -43 callgsubr
          endchar
        </CharString>
        <CharString name="tbar">
          -263 -10 63 184 60 126 18 callgsubr
          hintmask 11111000
          20 423 rmoveto
          75 -126 -71 -60 71 -56 -45 callsubr
          41 124 60 -124 126 vlineto
          hintmask 11110100
          133 67 hlineto
          hintmask 11111000
          -43 callgsubr
          endchar
        </CharString>
        <CharString name="tcaron">
          -213 -10 63 370 62 159 115 hstemhm
          95 79 -79 212 -65 129 hintmask 11110100
          371 -78 callsubr
          -351 -267 rmoveto
          75 -242 -45 callsubr
          227 vlineto
          hintmask 11101000
          133 67 hlineto
          hintmask 11110100
          -43 callgsubr
          endchar
        </CharString>
        <CharString name="tcedilla">
          -263 -230 46 195 -21 433 62 102 -20 hstem
          95 79 60 63 vstem
          20 423 rmoveto
          75 -242 hlineto
          -99 2 -68 71 -18 vhcurveto
          -16 -88 37 -8 rlineto
          -91 callsubr
          52 vlineto
          37 61 10 9 18 hvcurveto
          9 51 rlineto
          -4 -26 -26 -3 -19 24 callgsubr
          227 133 67 vlineto
          -43 callgsubr
          endchar
        </CharString>
        <CharString name="tcommaaccent">
          -263 -41 callgsubr
          26 63 370 18 callgsubr
          -159 122 hintmask 11111100
          20 423 rmoveto
          75 -242 14 callsubr
          hintmask 11111001
          7 callgsubr
          hintmask 11111100
          22 callgsubr
          227 vlineto
          hintmask 11111010
          133 67 hlineto
          hintmask 11111100
          -43 callgsubr
          hintmask 11111001
          250 -575 -103 callsubr
          endchar
        </CharString>
        <CharString name="thorn">
          -48 19 callsubr
          290 -20 hstemhm
          30 159 -79 79 255 86 hintmask 11110110
          110 -142 rmoveto
          -49 callsubr
          hintmask 11111010
          -57 -6 rlineto
          -54 255 53 vlineto
          -73 -75 callsubr
          153 vlineto
          -8 15 45 -13 39 hhcurveto
          137 105 106 155 141 -64 98 -118 -97 -44 -50 -22 -18 hvcurveto
          362 -159 -19 callsubr
          hintmask 11110110
          21 -2 4 -8 -28 vvcurveto
          79 -329 -22 callgsubr
          endchar
        </CharString>
        <CharString name="three">
          -156 -172 69 472 139 -57 57 hstemhm
          310 86 -63 86 hintmask 11001000
          119 150 rmoveto
          95 -8 rlineto
          75 -7 44 -37 -68 vvcurveto
          -54 -40 -79 -97 -38 -95 20 8 -23 vhcurveto
          -15 -52 rlineto
          -17 34 57 -28 95 hhcurveto
          123 85 91 118 48 -19 43 -27 23 hvcurveto
          -28 24 -43 17 -37 9 rrcurveto
          hintmask 11010000
          75 31 56 51 80 vvcurveto
          76 -47 69 -118 -59 -72 -13 -10 -49 vhcurveto
          7 -116 rlineto
          62 hlineto
          11 72 8 1 9 2 9 2 rlinecurve
          hintmask 10110000
          3 16 21 2 23 hhcurveto
          59 34 -38 -49 -104 -147 -38 -49 -8 hvcurveto
          endchar
        </CharString>
        <CharString name="threequarters">
          178 21 -21 100 54 112 53 357 50 4 -20 hstemhm
          257 60 -60 75 329 63 hintmask 11101011
          645 730 -6 callsubr
          90 -576 -49 callgsubr
          -685 384 -38 callsubr
          hintmask 11110101
          -34 callgsubr
        </CharString>
        <CharString name="threesuperior">
          -260 266 53 357 50 hstemhm
          257 60 -60 75 hintmask 11010000
          110 484 -38 callsubr
          hintmask 11100000
          -34 callgsubr
        </CharString>
        <CharString name="tilde">
          -213 584 34 callsubr
          hintmask 01000000
          130 621 rmoveto
          hintmask 10000000
          -84 callsubr
          hintmask 01000000
          -86 callsubr
        </CharString>
        <CharString name="two">
          -168 0 75 281 152 -59 59 hstemhm
          33 98 180 87 hintmask 11011000
          411 75 rmoveto
          -280 hlineto
          2 49 56 18 38 21 rrcurveto
          67 37 104 56 105 vvcurveto
          87 -52 60 -121 -59 -68 -16 -15 -47 vhcurveto
          7 -121 rlineto
          60 hlineto
          15 77 rlineto
          hintmask 10111000
          7 21 26 9 38 hhcurveto
          56 37 -35 -55 -89 -118 -41 -83 -62 hvcurveto
          -40 -30 -37 -34 -87 vvcurveto
          -16 378 vlineto
          endchar
        </CharString>
        <CharString name="twosuperior">
          -258 279 60 334 53 hstem
          254 75 vstem
          329 339 -50 callgsubr
          endchar
        </CharString>
        <CharString name="u">
          -42 callsubr
          -11 callsubr
          hintmask 10111000
          417 139 rmoveto
          -102 callsubr
          hintmask 01111000
          -97 callsubr
          endchar
        </CharString>
        <CharString name="uacute">
          -42 callsubr
          292 -20 -100 callsubr
          -31 368 -53 callgsubr
          -96 callgsubr
        </CharString>
        <CharString name="ubreve">
          -42 callsubr
          108 66 69 -20 -11 callsubr
          hintmask 10111110
          417 139 rmoveto
          -102 callsubr
          hintmask 01111110
          -97 callsubr
          -25 319 -98 callsubr
        </CharString>
        <CharString name="ucircumflex">
          -42 callsubr
          268 -20 -100 callsubr
          -162 344 -84 callgsubr
          endchar
        </CharString>
        <CharString name="udieresis">
          -42 callsubr
          120 112 hstemhm
          105 79 -53 -27 callsubr
          -31 79 hintmask 10111001
          417 139 rmoveto
          -102 callsubr
          hintmask 01110101
          -97 callsubr
          -174 250 rmoveto
          -103 callgsubr
          hintmask 10111010
          205 hmoveto
          -103 callgsubr
          endchar
        </CharString>
        <CharString name="ugrave">
          -42 callsubr
          292 -20 -100 callsubr
          -309 308 -21 callsubr
          -69 callgsubr
        </CharString>
        <CharString name="uhorn">
          27 -10 -19 callgsubr
          -20 125 -20 hstemhm
          100 79 233 79 72 82 hintmask 10111110
          412 139 rmoveto
          -102 callsubr
          hintmask 01111110
          8 -76 8 callsubr
          -69 callsubr
          283 vlineto
          72 17 82 43 89 -22 callsubr
          -55 -31 -24 -41 -13 vhcurveto
          50 27 callgsubr
          -1 callsubr
          -8 -28 vvcurveto
          endchar
        </CharString>
        <CharString name="uhungarumlaut">
          -11 -10 -19 callgsubr
          75 213 -20 -100 callsubr
          -167 384 rmoveto
          -110 -203 rlineto
          -82 callsubr
        </CharString>
        <CharString name="umacron">
          -42 callsubr
          148 70 -100 callsubr
          -262 224 -62 callgsubr
        </CharString>
        <CharString name="underscore">
          -117 -172 54 hstem
          -172 vmoveto
          500 54 -500 hlineto
          endchar
        </CharString>
        <CharString name="uni01F0">
          13 callsubr
          74 182 -20 hstem
          110 79 vstem
          110 25 -74 callsubr
          58 170 -83 callsubr
        </CharString>
        <CharString name="uni1E00">
          46 -220 47 92 48 54 -31 callsubr
          -20 hstem
          222 50 91 50 vstem
          413 -125 -96 callsubr
          -293 235 -107 callgsubr
          endchar
        </CharString>
        <CharString name="uni1E01">
          -90 -220 47 92 48 23 -37 callsubr
          hstemhm
          37 83 22 50 91 50 2 79 hintmask 1110111110000000
          333 -125 -96 callsubr
          131 475 -105 callsubr
          hintmask 1101111110000000
          -88 callsubr
          hintmask 1110111110000000
          -81 callsubr
          endchar
        </CharString>
        <CharString name="uni1E3E">
          276 -5 callsubr
          118 68 504 84 vstem
          555 935 -100 callgsubr
          -347 -868 rmoveto
          -68 callsubr
        </CharString>
        <CharString name="uni1E3F">
          303 -4 callsubr
          8 callgsubr
          120 79 225 79 222 79 hintmask 11001111
          -64 callgsubr
          hintmask 10111111
          -9 73 rlineto
          -147 -52 hlineto
          0 callsubr
          -65 callsubr
          -8 -21 -2 vhcurveto
          -55 -6 rlineto
          -54 240 53 vlineto
          -60 -75 callsubr
          383 654 -53 callgsubr
          -96 callgsubr
        </CharString>
        <CharString name="uni1EF4">
          53 -185 118 88 -21 720 -20 hstemhm
          276 118 -102 86 hintmask 11101000
          -99 callgsubr
          hintmask 11110000
          300 -742 rmoveto
          -93 callgsubr
          endchar
        </CharString>
        <CharString name="uni1EF5">
          -94 -250 63 2 118 547 -20 hstem
          343 118 vstem
          -106 callgsubr
          207 2 rmoveto
          -93 callgsubr
          endchar
        </CharString>
        <CharString name="uni1EF6">
          6 callsubr
          212 45 hstem
          292 86 12 60 vstem
          -99 callgsubr
          264 116 -62 callsubr
        </CharString>
        <CharString name="uni1EF7">
          -15 callsubr
          305 45 hstem
          305 60 vstem
          -106 callgsubr
          19 713 -62 callsubr
        </CharString>
        <CharString name="uogonek">
          -11 -225 55 160 -19 callgsubr
          -20 hstemhm
          105 79 199 66 -32 79 hintmask 10111100
          383 -126 rmoveto
          -74 callgsubr
          -28 callsubr
          3 -23 callgsubr
          hintmask 11011010
          -93 callsubr
          382 27 callgsubr
          -1 callsubr
          -8 -28 vvcurveto
          -245 vlineto
          -102 callsubr
          hintmask 10111100
          8 -76 rlineto
          57 hlineto
          -10 callgsubr
          endchar
        </CharString>
        <CharString name="uring">
          -42 callsubr
          95 47 92 48 hstemhm
          105 79 10 50 95 46 32 79 hintmask 1011111110000000
          417 139 rmoveto
          -102 callsubr
          hintmask 0111111110000000
          -97 callsubr
          -32 266 -96 callsubr
          endchar
        </CharString>
        <CharString name="utilde">
          -42 callsubr
          114 71 -34 34 -11 callsubr
          hintmask 10110110
          417 139 rmoveto
          -102 callsubr
          hintmask 01101110
          -97 callsubr
          -199 227 rmoveto
          hintmask 10110110
          -84 callsubr
          hintmask 10101110
          -86 callsubr
        </CharString>
        <CharString name="v">
          -102 -23 callsubr
          hstem
          301 hmoveto
          147 384 7 19 6 31 callgsubr
          -51 vlineto
          51 -6 rlineto
          18 -2 6 -6 -10 vvcurveto
          -5 -2 -7 -3 -9 vhcurveto
          -95 -250 -20 -69 -20 69 -95 250 rlineto
          16 callgsubr
          51 -232 -52 vlineto
          44 -6 23 -3 2 -12 9 -23 rlinecurve
          151 -384 rlineto
          endchar
        </CharString>
        <CharString name="w">
          144 -23 callsubr
          hstem
          -90 callgsubr
          endchar
        </CharString>
        <CharString name="wacute">
          -72 callgsubr
          214 620 -53 callgsubr
          -96 callgsubr
        </CharString>
        <CharString name="wcircumflex">
          144 -23 callsubr
          268 -20 hstem
          -90 callgsubr
          106 596 -84 callgsubr
          endchar
        </CharString>
        <CharString name="wdieresis">
          144 -23 callsubr
          120 112 hstem
          222 -27 callsubr
          vstem
          -90 callgsubr
          101 502 rmoveto
          -103 callgsubr
          205 hmoveto
          -103 callgsubr
          endchar
        </CharString>
        <CharString name="wgrave">
          -72 callgsubr
          -13 560 -21 callsubr
          -69 callgsubr
        </CharString>
        <CharString name="x">
          -85 -23 callsubr
          hstem
          223 243 rmoveto
          -122 -148 -17 -20 -14 -12 -26 -5 rlinecurve
          -33 -6 rlineto
          -52 203 51 vlineto
          -45 6 rlineto
          -6 1 -5 3 4 vvcurveto
          7 10 10 10 13 vhcurveto
          84 102 86 -101 rlineto
          11 -13 8 -10 -8 vvcurveto
          -4 -6 -3 -6 -1 vhcurveto
          -45 -6 rlineto
          -51 218 52 vlineto
          -33 6 -21 4 -11 13 -17 20 rlinecurve
          -129 152 119 147 19 23 11 3 22 4 rlinecurve
          33 6 rlineto
          50 -199 -49 vlineto
          43 -6 rlineto
          9 -1 4 -3 -4 vvcurveto
          -6 -11 -9 -6 -8 vhcurveto
          -83 -101 -85 101 rlineto
          -4 5 -13 11 7 vvcurveto
          4 3 3 9 1 vhcurveto
          43 6 rlineto
          49 -213 -50 vlineto
          33 -6 22 -4 4 -3 19 -23 rlinecurve
          endchar
        </CharString>
        <CharString name="y">
          -15 callsubr
          hstem
          -106 callgsubr
          endchar
        </CharString>
        <CharString name="yacute">
          -15 callsubr
          292 -20 hstem
          -106 callgsubr
          118 882 -53 callgsubr
          -96 callgsubr
        </CharString>
        <CharString name="ycircumflex">
          -15 callsubr
          268 -20 hstem
          -106 callgsubr
          -29 858 -84 callgsubr
          endchar
        </CharString>
        <CharString name="ydieresis">
          -15 callsubr
          120 112 hstem
          101 -27 callsubr
          vstem
          -106 callgsubr
          -41 764 rmoveto
          -103 callgsubr
          205 hmoveto
          -103 callgsubr
          endchar
        </CharString>
        <CharString name="yen">
          67 0 230 -60 60 450 -20 hstemhm
          301 86 hintmask 10110000
          567 574 rmoveto
          16 29 5 9 29 4 38 5 rcurveline
          59 -248 -59 vlineto
          50 -6 rlineto
          21 -3 14 -4 -13 vvcurveto
          -5 -2 -7 -5 -9 vhcurveto
          -134 -234 -139 234 rlineto
          -5 10 -3 7 6 vvcurveto
          12 12 4 20 3 vhcurveto
          50 6 rlineto
          58 -269 -59 vlineto
          38 -5 30 -4 13 -8 17 -30 rlinecurve
          186 -320 rlineto
          -24 -107 vlineto
          hintmask 01110000
          -10 -60 rlineto
          117 -64 hlineto
          -90 callsubr
          -57 -9 rlineto
          hintmask 10110000
          -76 callgsubr
          hintmask 01110000
          64 107 vlineto
          10 60 rlineto
          -117 42 hlineto
          endchar
        </CharString>
        <CharString name="ygrave">
          -15 callsubr
          292 -20 hstem
          -106 callgsubr
          -156 822 -21 callsubr
          -69 callgsubr
        </CharString>
        <CharString name="ytilde">
          -15 callsubr
          124 34 callsubr
          hintmask 11010000
          -106 callgsubr
          -67 751 rmoveto
          hintmask 11100000
          -84 callsubr
          hintmask 11010000
          -86 callsubr
        </CharString>
        <CharString name="z">
          -114 0 63 356 61 hstem
          -82 callgsubr
          endchar
        </CharString>
        <CharString name="zacute">
          -144 0 63 356 61 0 84 8 callgsubr
          hintmask 11010000
          -82 callgsubr
          146 343 -53 callgsubr
          hintmask 10110000
          -96 callgsubr
        </CharString>
        <CharString name="zcaron">
          -114 0 63 356 61 0 74 182 -20 hstemhm
          hintmask 11010000
          -82 callgsubr
          hintmask 10110000
          133 135 -83 callsubr
        </CharString>
        <CharString name="zdotaccent">
          -144 0 63 356 61 107 118 hstem
          194 118 vstem
          -82 callgsubr
          156 225 rmoveto
          -93 callgsubr
          endchar
        </CharString>
        <CharString name="zero">
          -35 -10 66 390 66 hstem
          35 90 332 90 vstem
          547 260 rmoveto
          145 -87 107 -155 -180 -90 -135 -135 -145 87 -107 155 180 90 135 135 vhcurveto
          -90 -4 rmoveto
          -115 -50 -85 -105 -110 -67 75 115 115 50 85 105 109 68 -75 -115 vhcurveto
          endchar
        </CharString>
        <CharString name="zerosuperior">
          -176 266 58 344 58 hstem
          10 74 273 74 vstem
          431 503 rmoveto
          129 -71 94 -128 -149 -73 -119 -118 -129 71 -94 128 149 73 119 118 vhcurveto
          -74 -3 rmoveto
          -101 -41 -75 -86 -91 -55 67 101 101 40 75 87 89 57 -67 -101 vhcurveto
          endchar
        </CharString>
      <CharString index="0">
        rmoveto
        -12 -35 -10 -6 -25 -5 -38 -7 rcurveline
        -59 240 57 vlineto
        -54 9 rlineto
        -18 3 -9 8 15 vvcurveto
        6 1 7 3 8 vhcurveto
        42 124 rlineto
        265 hlineto
        44 -127 rlineto
        3 -8 1 -6 -6 vvcurveto
        -13 -8 -8 -18 -3 vhcurveto
        -55 -9 rlineto
        -57 257 59 vlineto
        -39 7 -25 5 -11 6 -12 35 rlinecurve
        -214 608 rlineto
        -93 hlineto
        48 -131 rmoveto
        97 -282 rlineto
        -216 hlineto
        97 282 11 45 rlineto
        return
      </CharString>
      <CharString index="1">
        448 384 rmoveto
        7 19 6 16 21 3 44 6 rcurveline
        -42 callgsubr
        18 -2 6 -6 -10 vvcurveto
        -5 -2 -7 -3 -9 vhcurveto
        -112 -308 -115 308 rlineto
        -4 10 -2 -64 callsubr
        -232 -52 vlineto
        44 -6 23 -3 2 -12 9 -23 rlinecurve
        156 -406 -23 -63 rlineto
        -65 -24 -44 -37 -52 hhcurveto
        -29 -24 5 3 -19 hvcurveto
        10 -59 rlineto
        -5 14 44 -7 32 hhcurveto
        67 52 36 84 30 hvcurveto
        return
      </CharString>
      <CharString index="2">
        rmoveto
        215 -81 155 -212 -245 -95 -180 -190 -215 81 -155 212 245 95 180 190 vhcurveto
        -329 296 rmoveto
        150 82 -110 -180 -90 -22 -117 -35 -40 hvcurveto
        -40 -35 -50 -15 -65 hhcurveto
        -150 -82 110 180 90 22 117 35 40 hvcurveto
        40 35 50 15 65 hhcurveto
        return
      </CharString>
      <CharString index="3">
        445 242 rmoveto
        152 -33 96 -152 -146 -78 -109 -146 -145 61 -100 145 106 71 38 8 22 vhcurveto
        -14 49 rlineto
        -10 -30 -79 -19 -48 hhcurveto
        -97 -47 59 104 -3 hvcurveto
        -1 60 rmoveto
        116 13 12 29 109 hhcurveto
        94 16 -63 -61 hvcurveto
        return
      </CharString>
      <CharString index="4">
        38 -8 20 -40 -52 -12 -20 -41 -35 14 -16 36 45 17 10 44 vhcurveto
        return
      </CharString>
      <CharString index="5">
        rmoveto
        -19 -5 -43 -11 -34 -2 rrcurveto
        -3 -45 -45 0 -37 hhcurveto
        -4 hlineto
        -158 -57 -100 -84 -79 34 -63 72 -27 hvcurveto
        -51 -80 rlineto
        -55 30 -26 41 -8 vhcurveto
        58 -11 44 -5 54 -6 rrcurveto
        43 -5 29 -8 -32 vvcurveto
        -64 -54 -16 -82 -62 -59 14 21 -32 vhcurveto
        75 -55 vlineto
        -21 -123 rlineto
        -35 40 79 -24 89 hhcurveto
        143 93 78 91 60 -30 33 -66 10 hvcurveto
        -64 10 -50 7 -53 7 rrcurveto
        -20 3 -11 4 14 vvcurveto
        22 59 rlineto
        -1 10 10 0 10 hhcurveto
        return
      </CharString>
      <CharString index="6">
        70 112 -107 callgsubr
        return
      </CharString>
      <CharString index="7">
        rmoveto
        -179 -152 rlineto
        -14 12 16 -15 20 hhcurveto
        8 8 3 7 11 hvcurveto
        153 104 rlineto
        return
      </CharString>
      <CharString index="8">
        292 254 rmoveto
        -148 vlineto
        -53 callsubr
        150 vlineto
        202 358 16 29 5 9 29 4 rlinecurve
        38 5 rlineto
        59 -248 -59 vlineto
        50 -6 rlineto
        21 -3 14 -4 -13 vvcurveto
        -5 -2 -7 -5 -9 vhcurveto
        -150 -283 -157 283 rlineto
        -5 10 -3 7 6 vvcurveto
        12 12 4 20 3 vhcurveto
        50 6 rlineto
        58 -269 -59 vlineto
        38 -5 30 -4 13 -8 17 -30 rlinecurve
        return
      </CharString>
      <CharString index="9">
        -95 callsubr
        -508 vlineto
        -90 callsubr
        return
      </CharString>
      <CharString index="10">
        6 -70 rlineto
        64 hlineto
        6 172 rlineto
        -514 -56 hlineto
        53 -6 rlineto
        25 -3 4 -12 -25 vvcurveto
        -511 vlineto
        31 callsubr
        return
      </CharString>
      <CharString index="11">
        -10 12 16 -12 18 hhcurveto
        10 10 4 10 11 hvcurveto
        137 124 rlineto
        endchar
      </CharString>
      <CharString index="12">
        rmoveto
        -11 -44 -54 -16 -59 hhcurveto
        -92 -48 75 100 63 9 62 25 35 hvcurveto
        22 13 41 11 29 hhcurveto
        50 32 -9 -10 18 hvcurveto
        14 -75 rlineto
        58 hlineto
        7 123 rlineto
        17 -26 -62 20 -66 hhcurveto
        -141 -87 -110 -154 return
      </CharString>
      <CharString index="13">
        -2 -6 -18 -5 -11 hhcurveto
        -25 -28 13 40 -26 hvcurveto
        -110 172 -19 30 -25 27 -21 5 rlinecurve
        63 9 118 43 142 vvcurveto
        138 -91 42 -138 vhcurveto
        -263 -59 hlineto
        53 -9 rlineto
        -98 callgsubr
        -36 callgsubr
        -59 263 60 vlineto
        -65 8 rlineto
        -25 3 -5 10 25 vvcurveto
        return
      </CharString>
      <CharString index="14">
        40 -8 21 -43 -55 -12 -21 -43 -37 14 -17 39 47 18 10 47 vhcurveto
        return
      </CharString>
      <CharString index="15">
        120 90 77 111 46 -12 41 -25 31 hvcurveto
        27 2 28 10 23 15 rrcurveto
        -124 -136 rmoveto
        -38 -2 -37 -18 -24 vhcurveto
        -26 -19 -31 -14 -45 hhcurveto
        -84 -36 53 72 41 6 32 14 20 hvcurveto
        21 15 28 13 48 hhcurveto
        86 38 -45 -68 hvcurveto
        return
      </CharString>
      <CharString index="16">
        -9 73 rlineto
        -60 hlineto
        -7 -121 rlineto
        -19 47 51 -16 76 hhcurveto
        98 88 54 96 76 -52 32 -100 33 hvcurveto
        -75 25 -48 18 46 vvcurveto
        51 40 12 51 27 21 -2 -13 35 vhcurveto
        14 -73 rlineto
        58 hlineto
        7 117 rlineto
        14 -45 -55 14 -54 hhcurveto
        return
      </CharString>
      <CharString index="17">
        164 384 rmoveto
        16 callgsubr
        51 -231 -52 vlineto
        44 -6 23 -3 2 -12 9 -23 rlinecurve
        116 -384 rlineto
        82 hlineto
        89 289 8 40 8 -40 92 -289 rlineto
        82 hlineto
        117 384 6 19 7 31 callgsubr
        -51 vlineto
        51 -6 rlineto
        17 -2 7 -6 -10 vvcurveto
        -5 -2 -7 -3 -9 vhcurveto
        -69 -252 -10 -61 -12 61 -91 297 rlineto
        -78 hlineto
        -88 -297 -11 -56 -10 56 rlineto
        return
      </CharString>
      <CharString index="18">
        25 4 9 25 4 vhcurveto
        return
      </CharString>
      <CharString index="19">
        913 rmoveto
        -115 -135 39 -32 113 106 114 -106 38 32 -114 135 rlineto
        return
      </CharString>
      <CharString index="20">
        -9 rlineto
        -95 callsubr
        return
      </CharString>
      <CharString index="21">
        rmoveto
        8 36 12 4 25 3 35 4 rcurveline
        59 -243 -58 vlineto
        53 -6 rlineto
        24 -2 9 -7 -18 vvcurveto
        -4 0 -5 -1 -6 vhcurveto
        -108 -518 -134 550 rlineto
        -110 hlineto
        -132 -550 -115 518 rlineto
        -1 8 -1 7 5 vvcurveto
        14 6 6 22 2 vhcurveto
        57 6 rlineto
        58 -270 -59 vlineto
        39 -4 25 -3 22 -5 8 -35 rlinecurve
        140 -614 rlineto
        122 hlineto
        126 523 129 -523 rlineto
        121 hlineto
        return
      </CharString>
      <CharString index="22">
        -25 -2 -12 -4 -24 hhcurveto
        -199 541 hlineto
        -89 callgsubr
        59 -40 callgsubr
        -256 -59 vlineto
        53 -9 rlineto
        -98 callgsubr
        -36 callgsubr
        -59 vlineto
        return
      </CharString>
      <CharString index="23">
        rmoveto
        -110 -150 39 -32 108 121 108 -121 38 32 -108 150 rlineto
        return
      </CharString>
      <CharString index="24">
        34 callgsubr
        hintmask 11101000
        -79 callgsubr
        508 vlineto
        -89 callgsubr
        hintmask 11110000
        -65 callgsubr
        hintmask 11101000
        -63 callsubr
        return
      </CharString>
      <CharString index="25">
        351 419 rmoveto
        -308 -359 rlineto
        -60 420 vlineto
        -6 159 rlineto
        -55 hlineto
        -7 -73 rlineto
        -21 -2 -9 -2 -28 hhcurveto
        -213 hlineto
        308 359 rlineto
        58 -402 vlineto
        7 -149 rlineto
        54 hlineto
        7 65 rlineto
        21 2 9 2 28 hhcurveto
        return
      </CharString>
      <CharString index="26">
        868 rmoveto
        153 -104 rlineto
        -7 11 8 -3 8 hhcurveto
        20 16 15 14 12 hvcurveto
        -179 152 rlineto
        return
      </CharString>
      <CharString index="27">
        -6 177 rlineto
        -67 hlineto
        -6 -75 rlineto
        return
      </CharString>
      <CharString index="28">
        -25 4 -4 9 25 vvcurveto
        return
      </CharString>
      <CharString index="29">
        rmoveto
        75 hlineto
        90 62 -30 -90 -57 -12 -28 -28 -23 hvcurveto
        -24 -29 -32 -1 -37 hhcurveto
        -89 hlineto
        -70 vmoveto
        36 hlineto
        31 17 -20 -20 13 hvcurveto
        134 -213 rlineto
        -43 28 35 -41 54 hhcurveto
        42 29 15 6 8 hvcurveto
        5 55 rlineto
        return
      </CharString>
      <CharString index="30">
        21 -110 rlineto
        72 hlineto
        16 163 rlineto
        53 -97 -64 4 -63 -26 callsubr
        91 -132 209 114 109 51 9 23 hvcurveto
        return
      </CharString>
      <CharString index="31">
        -59 258 -71 callsubr
        return
      </CharString>
      <CharString index="32">
        242 rmoveto
        152 -33 96 -152 -67 -53 -22 -43 -37 vhcurveto
        51 -35 -58 14 -66 hhcurveto
        -58 -37 -10 -27 -75 hvcurveto
        7 -115 rlineto
        58 hlineto
        14 73 rlineto
        9 20 36 10 32 hhcurveto
        61 47 -19 -61 hvcurveto
        -67 vlineto
        -22 -4 -90 -9 -75 -15 rrcurveto
        -62 -12 -49 -46 -79 vvcurveto
        -76 50 -52 76 95 58 48 38 40 vhcurveto
        -54 28 62 -32 82 1 callsubr
        -1 hvcurveto
        -1 60 rmoveto
        116 11 12 29 109 hhcurveto
        94 16 -63 -61 hvcurveto
        -467 -98 rmoveto
        62 13 80 10 8 2 rrcurveto
        -99 vlineto
        -31 -29 -62 -36 -54 hhcurveto
        -39 -31 23 42 44 26 24 39 8 hvcurveto
        return
      </CharString>
      <CharString index="33">
        -51 33 -48 62 45 39 22 5 13 vhcurveto
        -12 41 rlineto
        -4 -14 -25 -9 -27 hhcurveto
        -31 -17 25 28 26 30 27 18 14 hvcurveto
        return
      </CharString>
      <CharString index="34">
        rmoveto
        -73 hlineto
        -12 -161 rlineto
        -26 64 48 -20 96 hhcurveto
        171 89 88 124 122 -85 41 -89 31 hvcurveto
        -85 30 rlineto
        -89 31 -28 35 59 vvcurveto
        return
      </CharString>
      <CharString index="35">
        144 21 -21 429 125 -74 -20 292 -20 hstemhm
        hintmask 11010000
        164 384 rmoveto
        16 callgsubr
        hintmask 10110000
        51 -231 -52 vlineto
        44 -6 23 -3 2 -12 9 -23 rlinecurve
        116 -384 rlineto
        82 hlineto
        89 289 8 40 8 -40 92 -289 rlineto
        82 hlineto
        117 384 6 19 7 31 callgsubr
        vlineto
        hintmask 11010000
        -51 vlineto
        51 -6 rlineto
        17 -2 7 -6 -10 vvcurveto
        -5 -2 -7 -3 -9 vhcurveto
        -69 -252 -10 -61 -12 61 -91 297 rlineto
        -78 hlineto
        -88 -297 -11 -56 -10 56 rlineto
        return
      </CharString>
      <CharString index="36">
        194 -53 rmoveto
        28 61 rlineto
        -11 33 37 -7 43 hhcurveto
        245 95 180 190 149 -39 121 -96 59 hvcurveto
        26 55 -55 26 -26 -55 rlineto
        10 -30 -34 5 -39 hhcurveto
        -245 -95 -180 -190 -146 37 -117 89 -61 hvcurveto
        -29 -63 rlineto
        439 393 rmoveto
        -90 -22 -117 -35 -40 vhcurveto
        -40 -35 -50 -15 -65 hhcurveto
        -43 -37 9 16 -31 hvcurveto
        239 511 rlineto
        52 -50 27 -80 -104 vvcurveto
        -232 290 rmoveto
        38 34 -7 -14 30 hvcurveto
        -237 -508 rlineto
        -48 50 -24 78 99 vvcurveto
        90 22 117 35 40 vhcurveto
        40 35 50 15 65 hhcurveto
        return
      </CharString>
      <CharString index="37">
        150 -54 rmoveto
        26 55 rlineto
        -7 23 26 -4 30 hhcurveto
        180 68 135 115 105 -32 85 -77 38 hvcurveto
        19 41 -50 23 -22 -47 rlineto
        3 -17 -17 2 -19 hhcurveto
        -180 -68 -135 -115 -95 25 -77 61 -43 hvcurveto
        -26 -56 rlineto
        317 275 rmoveto
        -53 -12 -77 -30 -30 vhcurveto
        -18 -18 -32 -10 -45 hhcurveto
        -28 -23 5 10 -21 hvcurveto
        151 322 rlineto
        38 -30 20 -52 -67 vvcurveto
        -154 180 rmoveto
        17 15 -2 -4 15 hvcurveto
        -146 -312 rlineto
        -25 31 -13 44 55 vvcurveto
        53 12 77 30 30 vhcurveto
        18 18 32 10 45 hhcurveto
        return
      </CharString>
      <CharString index="38">
        -10 11 10 -4 10 hhcurveto
        18 16 12 10 12 hvcurveto
        -156 176 rlineto
        endchar
      </CharString>
      <CharString index="39">
        rmoveto
        8 36 12 4 25 3 35 4 rcurveline
        hintmask 10110000
        59 -243 -58 vlineto
        53 -6 rlineto
        24 -2 9 -7 -18 vvcurveto
        -4 0 -5 -1 -6 vhcurveto
        -108 -518 rlineto
        hintmask 11010000
        -134 550 rlineto
        -110 hlineto
        -132 -550 -115 518 rlineto
        -1 8 -1 7 5 vvcurveto
        14 6 6 22 2 vhcurveto
        57 6 rlineto
        hintmask 10110000
        58 -270 -59 vlineto
        39 -4 25 -3 22 -5 8 -35 rlinecurve
        140 -614 rlineto
        122 hlineto
        126 523 129 -523 rlineto
        121 hlineto
        endchar
      </CharString>
      <CharString index="40">
        hstem
        -101 callgsubr
        return
      </CharString>
      <CharString index="41">
        rmoveto
        -9 -24 -100 -38 -84 hhcurveto
        -145 -76 114 177 74 21 133 35 35 hvcurveto
        return
      </CharString>
      <CharString index="42">
        -55 callgsubr
        53 -9 rlineto
        return
      </CharString>
      <CharString index="43">
        199 340 rmoveto
        39 22 54 37 55 hhcurveto
        66 28 -34 -60 hvcurveto
        -322 162 53 vlineto
        -60 -75 callsubr
        248 vlineto
        3 -1 4 4 vvcurveto
        28 26 43 31 53 hhcurveto
        66 35 -34 -60 hvcurveto
        -322 157 54 vlineto
        -55 6 rlineto
        -21 3 -2 7 28 vvcurveto
        248 vlineto
        72 -40 72 -107 -94 -48 -51 -29 -24 vhcurveto
        45 -19 -41 35 -68 hhcurveto
        -89 -48 -53 -30 -28 hvcurveto
        return
      </CharString>
      <CharString index="44">
        rmoveto
        -14 -6 -48 -63 -72 hhcurveto
        -85 -44 63 120 43 12 90 30 25 hvcurveto
        18 21 38 9 35 hhcurveto
        32 57 -9 -30 30 hvcurveto
        return
      </CharString>
      <CharString index="45">
        rmoveto
        267 hlineto
        10 70 rlineto
        -267 hlineto
        endchar
      </CharString>
      <CharString index="46">
        53 -40 callgsubr
        return
      </CharString>
      <CharString index="47">
        rmoveto
        215 -81 155 -212 -245 -95 -180 -190 -215 81 -155 212 245 95 180 190 vhcurveto
        hintmask 11011100
        -39 callgsubr
      </CharString>
      <CharString index="48">
        24 12 -4 -25 2 hvcurveto
        return
      </CharString>
      <CharString index="49">
        -63 callgsubr
        79 395 rmoveto
        -164 -52 hlineto
        60 -6 rlineto
        21 -2 4 -8 -28 vvcurveto
        -212 vlineto
        -56 callsubr
        return
      </CharString>
      <CharString index="50">
        rmoveto
        13 13 17 12 18 vvcurveto
        8 -2 8 -6 11 vhcurveto
        -77 123 77 123 rlineto
        6 11 2 8 7 vvcurveto
        18 -17 10 -13 16 vhcurveto
        -149 -193 rlineto
        return
      </CharString>
      <CharString index="51">
        -12 callsubr
        -544 hlineto
        -53 callsubr
        544 vlineto
        return
      </CharString>
      <CharString index="52">
        -61 callgsubr
        -250 -59 vlineto
        return
      </CharString>
      <CharString index="53">
        -55 -6 rlineto
        -54 235 54 vlineto
        -55 6 rlineto
        -21 3 -2 7 28 vvcurveto
        endchar
      </CharString>
      <CharString index="54">
        rmoveto
        -156 -176 rlineto
        return
      </CharString>
      <CharString index="55">
        vlineto
        -90 callsubr
        -36 callgsubr
        -59 return
      </CharString>
      <CharString index="56">
        35 20 49 41 65 hhcurveto
        65 40 -33 -60 hvcurveto
        -323 vlineto
        return
      </CharString>
      <CharString index="57">
        rmoveto
        -214 hlineto
        41 37 19 41 27 vhcurveto
        71 46 65 42 93 vvcurveto
        68 -42 51 -97 -53 -59 -14 -14 -42 vhcurveto
        6 -109 rlineto
        51 hlineto
        14 70 rlineto
        7 16 20 7 35 hhcurveto
        48 28 -24 -49 -66 -61 -40 -55 -36 hvcurveto
        -57 -36 -51 -33 -96 vvcurveto
        -14 299 vlineto
        return
      </CharString>
      <CharString index="58">
        rmoveto
        -71 131 -63 -131 -150 hlineto
        191 262 -41 35 -228 -297 27 -54 rlineto
        201 -100 63 100 71 hlineto
        return
      </CharString>
      <CharString index="59">
        46 -15 41 -54 -35 -27 -16 -44 -41 20 -18 45 -5 vhcurveto
        -42 -49 -43 -29 -18 vhcurveto
        32 -34 rlineto
        51 26 61 68 80 vvcurveto
        return
      </CharString>
      <CharString index="60">
        46 -13 41 -54 -35 -24 -16 -44 -41 17 -18 45 -5 vhcurveto
        -42 -43 -33 -29 -18 vhcurveto
        32 -31 rlineto
        50 26 54 57 78 vvcurveto
        return
      </CharString>
      <CharString index="61">
        rmoveto
        -157 -52 hlineto
        0 callsubr
        return
      </CharString>
      <CharString index="62">
        -1 -8 -18 -4 -11 hhcurveto
        -42 -38 33 38 -29 hvcurveto
        -121 155 rlineto
        7 vlineto
        40 42 rlineto
        45 43 47 47 50 hhcurveto
        16 58 -45 hlineto
        -34 -22 -8 -40 -40 hvcurveto
        -141 -143 rlineto
        491 27 callgsubr
        return
      </CharString>
      <CharString index="63">
        30 30 35 24 78 hhcurveto
        67 31 -12 -23 47 hvcurveto
        return
      </CharString>
      <CharString index="64">
        -133 -10 rlineto
        107 vlineto
        -79 -18 rlineto
        -89 vlineto
        -75 -9 rlineto
        return
      </CharString>
      <CharString index="65">
        52 -219 -51 vlineto
        51 -6 rlineto
        return
      </CharString>
      <CharString index="66">
        -229 -21 102 112 return
      </CharString>
      <CharString index="67">
        9 rlineto
        59 return
      </CharString>
      <CharString index="68">
        -329 296 rmoveto
        150 82 -110 -180 -90 -22 -117 -35 -40 hvcurveto
        -40 -35 -50 -15 -65 hhcurveto
        -150 -82 110 180 90 22 117 35 40 hvcurveto
        40 35 50 15 65 hhcurveto
        endchar
      </CharString>
      <CharString index="69">
        21 -32 callgsubr
        return
      </CharString>
      <CharString index="70">
        -80 callgsubr
        -25 -2 -12 -4 -24 hhcurveto
        -233 266 234 73 -234 return
      </CharString>
      <CharString index="71">
        -53 -9 rlineto
        return
      </CharString>
      <CharString index="72">
        8 -68 rlineto
        148 54 hlineto
        -58 6 -92 callsubr
        return
      </CharString>
      <CharString index="73">
        62 21 40 33 62 vvcurveto
        43 -31 47 -97 -45 -59 -11 -9 -37 vhcurveto
        6 -93 rlineto
        47 hlineto
        10 55 rlineto
        5 17 16 3 30 hhcurveto
        48 25 -21 -27 -68 -103 -22 -38 -7 hvcurveto
        endchar
      </CharString>
      <CharString index="74">
        -10 -37 callsubr
        return
      </CharString>
      <CharString index="75">
        -16 callgsubr
        -10 -20 return
      </CharString>
      <CharString index="76">
        -118 -250 72 303 58 252 56 return
      </CharString>
      <CharString index="77">
        rmoveto
        -110 -203 rlineto
        return
      </CharString>
      <CharString index="78">
        -74 callsubr
        endchar
      </CharString>
      <CharString index="79">
        hlineto
        -59 callgsubr
        return
      </CharString>
      <CharString index="80">
        hstemhm
        58 250 -168 86 return
      </CharString>
      <CharString index="81">
        rmoveto
        39 -7 22 -43 -57 -11 -22 -43 -36 15 -17 37 47 19 10 47 vhcurveto
        return
      </CharString>
      <CharString index="82">
        -30 callsubr
        -79 79 return
      </CharString>
      <CharString index="83">
        44 -8 25 -48 -65 -12 -25 -48 -41 17 -19 42 53 21 11 53 vhcurveto
        return
      </CharString>
      <CharString index="84">
        54 hlineto
        -56 6 rlineto
        return
      </CharString>
      <CharString index="85">
        rmoveto
        18 10 56 51 54 hhcurveto
        87 48 -62 -115 -67 -16 -65 -25 -28 hvcurveto
        -22 -23 -37 -9 -33 hhcurveto
        -49 -46 16 22 -26 hvcurveto
        return
      </CharString>
      <CharString index="86">
        19 -10 78 442 220 -75 75 return
      </CharString>
      <CharString index="87">
        100 -10 74 592 74 return
      </CharString>
      <CharString index="88">
        74 -43 -20 callsubr
        return
      </CharString>
      <CharString index="89">
        7 callsubr
        86 return
      </CharString>
      <CharString index="90">
        128 hstem
        50 128 vstem
        178 54 rmoveto
        -39 callsubr
        return
      </CharString>
      <CharString index="91">
        -21 416 74 return
      </CharString>
</ttFont>
